<svg width="408" height="289" viewBox="0 0 408 289" fill="none" xmlns="http://www.w3.org/2000/svg">
<g clip-path="url(#clip0_629_4088)">
<path d="M373.993 80.4477C367.39 76.8963 360.616 73.514 353.674 70.9773C346.054 68.1023 338.096 66.2421 330.137 64.3818C316.591 61.1686 303.045 57.9555 289.16 56.6025C305.416 64.72 321.502 73.0067 337.588 81.2933C347.409 86.3667 357.399 91.6093 366.543 97.8665C385.169 110.077 386.574 111.193 399.951 118.803C406.894 122.693 418.527 132.028 422.929 138.623C421.744 136.763 422.929 129.829 422.929 127.462V116.3C422.76 108.859 420.22 108.183 414.124 104.124C401.255 95.668 387.878 87.8887 374.332 80.6168L373.993 80.4477Z" fill="#472D22"/>
<mask id="mask0_629_4088" style="mask-type:luminance" maskUnits="userSpaceOnUse" x="289" y="56" width="134" height="83">
<path d="M373.993 80.4477C367.39 76.8963 360.616 73.514 353.674 70.9773C346.054 68.1023 338.096 66.2421 330.137 64.3818C316.591 61.1686 303.045 57.9555 289.16 56.6025C305.416 64.72 321.502 73.0067 337.588 81.2933C347.409 86.3667 357.399 91.6093 366.543 97.8665C385.169 110.077 386.574 111.193 399.951 118.803C406.894 122.693 418.527 132.028 422.929 138.623C421.744 136.763 422.929 129.829 422.929 127.462V116.3C422.76 108.859 420.22 108.183 414.124 104.124C401.255 95.668 387.878 87.8887 374.332 80.6168L373.993 80.4477Z" fill="white"/>
</mask>
<g mask="url(#mask0_629_4088)">
<path d="M379.412 97.5109C376.211 95.4477 373.011 93.3845 369.811 91.3213C366.153 88.9706 362.496 86.603 358.754 84.3538C336.402 70.8923 311.596 61.5233 285.926 56.8389C301.081 68.1019 318.758 75.3738 335.369 84.3707C356.586 95.8536 376.093 110.127 396.057 123.588C400.527 126.599 421.303 143.899 426.569 140.415C432.53 136.475 414.801 122.844 412.244 120.713C401.898 112.156 390.655 104.783 379.395 97.494L379.412 97.5109Z" fill="#341D11"/>
</g>
<path d="M287.976 39.5386C272.228 25.1639 253.264 14.6788 232.944 7.91418C221.43 4.19366 209.577 1.65694 197.555 0.642255C157.255 -2.90915 116.108 8.42153 81.7345 29.73C80.8879 30.2373 80.0413 30.7447 79.5333 31.5902C78.1787 33.7887 79.8719 36.4946 81.5652 38.3548C108.827 70.1484 150.651 86.5525 192.306 91.2877C222.107 94.8391 253.433 92.8097 280.695 80.2952C288.653 76.7438 300.506 70.1484 303.046 60.8471C305.247 52.7296 293.056 44.1047 287.806 39.2004L287.976 39.5386ZM188.242 39.5386C177.913 38.8622 176.219 38.5239 165.89 37.8475C157.593 37.3401 147.434 37.171 129.485 38.1857C146.587 33.1123 151.498 32.9431 156.916 32.774C167.414 32.4358 177.913 32.9431 188.411 34.1269C199.079 35.3108 209.577 37.171 219.906 39.3695C229.558 41.3989 232.098 41.0606 249.877 46.3032C229.388 44.9503 208.561 40.7224 188.242 39.3695V39.5386Z" fill="#466C50"/>
<path d="M247.557 140.889C244.848 134.97 239.819 132.569 232.673 129.457C223.767 126.988 219.415 125.585 209.086 122.354C196.725 119.716 191.798 119.175 186.244 118.059C176.423 116.706 166.602 115.184 156.611 114.677C101.41 111.802 45.7016 138.522 13.5293 183.337C11.6667 186.043 9.63478 189.425 10.9894 192.469C11.4974 193.822 12.6827 194.837 13.868 195.683C27.5835 207.013 44.6856 213.609 62.1264 216.991C79.5671 220.373 97.3465 220.881 115.126 220.881C122.576 220.881 130.027 220.881 137.308 219.697C144.589 218.513 151.701 216.315 158.812 213.947C175.745 208.535 193.017 202.954 208.595 194.16C224.173 185.367 238.227 172.852 245.847 156.786C248.218 151.713 249.911 145.794 247.71 140.72L247.54 140.889H247.557ZM171.021 170.315C161.2 174.205 151.21 177.249 140.881 179.786C130.552 182.153 120.053 184.014 109.386 185.536C99.5647 186.889 97.3635 188.072 78.7374 189.256C98.3794 183.506 119.545 180.462 139.187 174.712C149.178 171.837 150.871 171.499 160.692 168.624C168.65 166.257 178.302 163.043 194.896 155.941C180.503 166.595 175.932 168.286 171.021 170.315Z" fill="#466C50"/>
<mask id="mask1_629_4088" style="mask-type:luminance" maskUnits="userSpaceOnUse" x="10" y="114" width="239" height="107">
<path d="M247.557 140.889C244.848 134.97 239.819 132.569 232.673 129.457C223.767 126.988 219.415 125.585 209.086 122.354C196.725 119.716 191.798 119.175 186.244 118.059C176.423 116.706 166.602 115.184 156.611 114.677C101.41 111.802 45.7016 138.522 13.5293 183.337C11.6667 186.043 9.63478 189.425 10.9894 192.469C11.4974 193.822 12.6827 194.837 13.868 195.683C27.5835 207.013 44.6856 213.609 62.1264 216.991C79.5671 220.373 97.3465 220.881 115.126 220.881C122.576 220.881 130.027 220.881 137.308 219.697C144.589 218.513 151.701 216.315 158.812 213.947C175.745 208.535 193.017 202.954 208.595 194.16C224.173 185.367 238.227 172.852 245.847 156.786C248.218 151.713 249.911 145.794 247.71 140.72L247.54 140.889H247.557ZM171.021 170.315C161.2 174.205 151.21 177.249 140.881 179.786C130.552 182.153 120.053 184.014 109.386 185.536C99.5647 186.889 97.3635 188.072 78.7374 189.256C98.3794 183.506 119.545 180.462 139.187 174.712C149.178 171.837 150.871 171.499 160.692 168.624C168.65 166.257 178.302 163.043 194.896 155.941C180.503 166.595 175.932 168.286 171.021 170.315Z" fill="white"/>
</mask>
<g mask="url(#mask1_629_4088)">
<path d="M167.974 172.902C162.657 186.161 154.292 197.948 145.995 209.583C140.848 216.788 135.717 223.992 130.569 231.196C129.519 232.651 128.385 234.19 126.709 234.832C125.286 235.373 123.712 235.17 122.205 234.951C106.101 232.684 89.9984 230.418 73.9123 228.152C50.1217 224.804 25.7724 221.286 4.53871 210.074C2.87929 209.194 1.13522 208.163 0.390177 206.455C-0.69352 203.969 0.728832 201.145 2.13425 198.828C36.3723 142.749 95.129 100.504 160.439 92.8097C183.095 90.1377 176.525 104.783 176.203 119.648C175.814 137.76 174.781 155.873 167.957 172.902H167.974Z" fill="#294833"/>
</g>
<path d="M308.668 127.512C272.923 130.556 238.549 136.982 214.572 147.298C282.439 141.887 352.1 139.688 421.321 140.872C421.321 137.321 425.842 129.541 419.967 126.497C414.091 123.453 400.968 124.468 392.824 124.468C364.326 124.468 336.268 125.144 308.227 127.512H308.685H308.668Z" fill="#472D22"/>
<mask id="mask2_629_4088" style="mask-type:luminance" maskUnits="userSpaceOnUse" x="214" y="124" width="209" height="24">
<path d="M308.668 127.512C272.923 130.556 238.549 136.982 214.572 147.298C282.439 141.887 352.1 139.688 421.321 140.872C421.321 137.321 425.842 129.541 419.967 126.497C414.091 123.453 400.968 124.468 392.824 124.468C364.326 124.468 336.268 125.144 308.227 127.512H308.685H308.668Z" fill="white"/>
</mask>
<g mask="url(#mask2_629_4088)">
<path d="M247.878 141.752C231.64 143.105 214.097 144.779 203.887 149.683C227.491 153.437 254.414 151.966 279.813 150.596C331.966 147.789 384.441 145.709 437.102 144.948C439.794 144.914 436.17 134.784 429.888 133.702C419.729 131.943 400.544 133.228 389.622 133.414C359.245 133.888 329.088 135.579 299.252 137.727C282.065 138.961 264.963 140.348 247.878 141.769V141.752Z" fill="#341D11"/>
</g>
<path d="M385.712 90.9156C408.25 90.9156 426.52 72.6682 426.52 50.159C426.52 27.6497 408.25 9.40234 385.712 9.40234C363.175 9.40234 344.904 27.6497 344.904 50.159C344.904 72.6682 363.175 90.9156 385.712 90.9156Z" fill="#933B3C"/>
<path d="M388.285 61.4392C400.348 61.4392 410.128 51.6719 410.128 39.6234C410.128 27.5749 400.348 17.8076 388.285 17.8076C376.221 17.8076 366.441 27.5749 366.441 39.6234C366.441 51.6719 376.221 61.4392 388.285 61.4392Z" fill="#B35653"/>
<path d="M289.043 132.991C304.015 132.991 316.152 120.869 316.152 105.916C316.152 90.9628 304.015 78.8408 289.043 78.8408C274.071 78.8408 261.934 90.9628 261.934 105.916C261.934 120.869 274.071 132.991 289.043 132.991Z" fill="#933B3C"/>
<path d="M283.082 116.351C291.096 116.351 297.593 109.862 297.593 101.857C297.593 93.853 291.096 87.3643 283.082 87.3643C275.067 87.3643 268.57 93.853 268.57 101.857C268.57 109.862 275.067 116.351 283.082 116.351Z" fill="#B35653"/>
<path d="M369.253 160.439C365.206 155.332 359.754 154.182 352.083 152.879C342.855 152.592 338.283 152.271 327.48 151.577C314.848 151.949 309.921 152.592 304.282 152.829C294.427 153.843 284.522 154.706 274.701 156.583C220.397 166.899 172.647 206.083 152.057 257.24C150.888 260.318 149.72 264.072 151.769 266.71C152.582 267.911 153.97 268.604 155.325 269.146C171.343 276.891 189.529 279.242 207.274 278.379C225.02 277.517 242.41 273.796 259.681 269.568C266.912 267.793 274.159 266.034 280.949 263.159C287.739 260.284 294.123 256.462 300.472 252.471C315.627 243.187 331.087 233.665 344.125 221.438C357.163 209.195 367.831 193.704 371.421 176.285C372.521 170.789 372.758 164.65 369.406 160.236L369.287 160.439H369.253ZM301.912 207.182C293.293 213.287 284.318 218.614 274.887 223.535C265.422 228.288 255.668 232.583 245.661 236.591C236.45 240.244 234.587 241.901 216.774 247.482C234.485 237.234 254.314 229.252 272.025 219.003C281.05 213.845 282.608 213.101 291.464 207.977C298.627 203.783 307.245 198.371 321.672 187.531C310.226 201.297 306.196 204.02 301.895 207.165L301.912 207.182Z" fill="#466C50"/>
<mask id="mask3_629_4088" style="mask-type:luminance" maskUnits="userSpaceOnUse" x="150" y="151" width="223" height="128">
<path d="M369.253 160.439C365.206 155.332 359.754 154.182 352.083 152.879C342.855 152.592 338.283 152.271 327.48 151.577C314.848 151.949 309.921 152.592 304.282 152.829C294.427 153.843 284.522 154.706 274.701 156.583C220.397 166.899 172.647 206.083 152.057 257.24C150.888 260.318 149.72 264.072 151.769 266.71C152.582 267.911 153.97 268.604 155.325 269.146C171.343 276.891 189.529 279.242 207.274 278.379C225.02 277.517 242.41 273.796 259.681 269.568C266.912 267.793 274.159 266.034 280.949 263.159C287.739 260.284 294.123 256.462 300.472 252.471C315.627 243.187 331.087 233.665 344.125 221.438C357.163 209.195 367.831 193.704 371.421 176.285C372.521 170.789 372.758 164.65 369.406 160.236L369.287 160.439H369.253ZM301.912 207.182C293.293 213.287 284.318 218.614 274.887 223.535C265.422 228.288 255.668 232.583 245.661 236.591C236.45 240.244 234.587 241.901 216.774 247.482C234.485 237.234 254.314 229.252 272.025 219.003C281.05 213.845 282.608 213.101 291.464 207.977C298.627 203.783 307.245 198.371 321.672 187.531C310.226 201.297 306.196 204.02 301.895 207.165L301.912 207.182Z" fill="white"/>
</mask>
<g mask="url(#mask3_629_4088)">
<path d="M299.559 210.429C297.561 224.567 292.227 237.994 286.927 251.27C283.642 259.489 280.374 267.708 277.089 275.927C276.428 277.601 275.683 279.36 274.193 280.375C272.94 281.237 271.366 281.406 269.842 281.558C253.671 283.182 237.483 284.805 221.312 286.429C197.403 288.83 172.918 291.198 149.619 285.347C147.807 284.89 145.86 284.298 144.725 282.81C143.083 280.645 143.794 277.567 144.607 274.98C164.503 212.374 211.542 157.394 273.143 134.412C294.513 126.446 291.617 142.225 294.851 156.735C298.78 174.424 302.082 192.266 299.525 210.412L299.559 210.429Z" fill="#294833"/>
</g>
<path d="M383.561 143.156C371.285 149.295 360.33 158.579 354.064 170.739C377.449 159.459 402.255 151.121 427.705 146.132C426.858 142.683 426.655 134.717 423.794 132.282C420.932 129.847 416.411 131.994 413.448 132.722C403.085 135.258 393.044 138.404 383.409 143.19L383.578 143.156H383.561Z" fill="#472D22"/>
<mask id="mask4_629_4088" style="mask-type:luminance" maskUnits="userSpaceOnUse" x="354" y="131" width="74" height="40">
<path d="M383.561 143.156C371.285 149.295 360.33 158.579 354.064 170.739C377.449 159.459 402.255 151.121 427.705 146.132C426.858 142.683 426.655 134.717 423.794 132.282C420.932 129.847 416.411 131.994 413.448 132.722C403.085 135.258 393.044 138.404 383.409 143.19L383.578 143.156H383.561Z" fill="white"/>
</mask>
<g mask="url(#mask4_629_4088)">
<path d="M364.851 162.384C359.263 165.141 353.286 168.32 350.746 174.003C360.228 175.558 369.66 171.72 378.567 168.134C396.854 160.761 415.446 154.098 434.411 148.669C435.376 148.399 431.651 138.877 429.111 138.387C424.996 137.575 418.325 140.535 414.396 141.685C403.458 144.847 392.909 149.177 382.563 153.895C376.602 156.618 370.727 159.493 364.851 162.401V162.384Z" fill="#341D11"/>
</g>
</g>
<defs>
<clipPath id="clip0_629_4088">
<rect width="438" height="289" fill="white"/>
</clipPath>
</defs>
</svg>
