<svg width="461" height="444" viewBox="0 0 461 444" fill="none" xmlns="http://www.w3.org/2000/svg">
<g clip-path="url(#clip0_629_4041)">
<path d="M460.999 186.725C460.746 185.965 460.111 185.331 459.604 184.824C449.328 175.319 434.993 172.024 421.292 169.616C412.539 168.096 401.756 165.941 392.876 166.828C383.235 167.842 381.966 167.716 368.9 171.391C355.833 175.066 355.96 175.573 350.125 179.121C335.028 188.246 320.693 199.271 310.671 213.845C309.022 216.253 307.373 219.041 307.881 221.956C308.388 224.871 310.925 226.899 313.335 228.673C324.626 236.403 338.2 244.261 351.774 245.275C367.251 246.542 377.653 248.189 395.413 243.247C410.383 239.065 423.703 230.32 435.628 220.435C441.463 215.62 447.045 210.17 451.612 204.087C454.783 199.778 457.447 194.963 459.984 190.274C460.619 189.133 461.253 187.992 460.873 186.725H460.999ZM408.86 209.917C401.376 212.578 393.764 214.479 386.026 216C378.16 217.521 370.295 218.534 362.303 219.422C354.945 220.182 353.169 220.942 339.342 221.322C354.184 217.647 370.041 216 385.011 212.325C392.495 210.424 393.764 210.297 401.376 208.396C407.465 206.875 414.696 204.721 427.382 199.905C416.345 207.382 412.793 208.523 409.114 209.917H408.86Z" fill="#395D44"/>
<path d="M195.611 19.263C194.85 13.9403 193.581 8.7444 192.186 3.54845C191.932 2.40788 191.424 1.01384 190.41 0.380191C189.648 0 188.887 0 187.999 0C174.045 0.253461 161.359 7.73055 149.688 15.4611C142.33 20.4036 133.069 26.3599 127.234 33.0766C120.891 40.5537 119.749 43.0883 113.152 52.9733C109.347 58.5494 106.683 64.886 104.907 71.476C100.213 88.4578 97.5488 106.327 100.34 123.689C100.847 126.604 101.608 129.645 104.019 131.419C106.429 133.194 109.727 132.94 112.645 132.433C126.092 130.152 141.315 126.604 151.971 117.986C164.023 108.228 172.649 102.271 182.037 86.4301C189.902 73.1234 193.581 57.5356 195.357 42.2012C196.245 34.5974 196.626 26.8668 195.611 19.263ZM165.291 53.4802C161.993 60.5771 157.934 67.4206 153.494 74.0106C149.054 80.6005 144.233 87.0638 139.159 93.2736C134.465 98.9764 133.83 100.877 124.316 110.889C132.181 97.7091 142.203 85.2896 150.068 72.2363C154.001 65.6463 154.762 64.5058 158.822 57.9158C161.993 52.5931 165.672 45.8764 171.127 33.5836C168.717 46.7635 167.068 50.0585 165.291 53.607V53.4802Z" fill="#466C50"/>
<path d="M56.9537 159.224C60.6326 157.83 64.3115 156.436 67.8636 154.789C80.4226 149.339 88.2879 144.523 99.8321 136.92C102.75 135.019 107.951 129.949 110.996 126.147C97.8023 131.217 92.4742 133.244 76.8706 137.3C61.2669 141.355 58.3492 142.496 48.9616 144.143C44.0141 145.03 39.0666 145.917 34.1191 146.678C21.0526 148.579 7.7324 149.593 -5.46094 149.339C-5.20722 154.789 -5.96837 161.379 -4.69978 166.701C-3.43119 172.024 1.00887 170.376 4.81464 170.376C16.232 170.376 27.5224 168.349 38.4323 165.307C49.3422 162.266 50.8645 161.379 56.9537 159.097V159.224Z" fill="#472D22"/>
<mask id="mask0_629_4041" style="mask-type:luminance" maskUnits="userSpaceOnUse" x="-6" y="126" width="117" height="45">
<path d="M56.9537 159.224C60.6326 157.83 64.3115 156.436 67.8636 154.789C80.4226 149.339 88.2879 144.523 99.8321 136.92C102.75 135.019 107.951 129.949 110.996 126.147C97.8023 131.217 92.4742 133.244 76.8706 137.3C61.2669 141.355 58.3492 142.496 48.9616 144.143C44.0141 145.03 39.0666 145.917 34.1191 146.678C21.0526 148.579 7.7324 149.593 -5.46094 149.339C-5.20722 154.789 -5.96837 161.379 -4.69978 166.701C-3.43119 172.024 1.00887 170.376 4.81464 170.376C16.232 170.376 27.5224 168.349 38.4323 165.307C49.3422 162.266 50.8645 161.379 56.9537 159.097V159.224Z" fill="white"/>
</mask>
<g mask="url(#mask0_629_4041)">
<path d="M112.899 124.931C103.867 138.44 91.5745 149.795 77.2267 157.45C62.8917 165.117 46.5268 169.033 30.2762 168.399C29.477 168.374 28.6778 168.323 27.8913 168.475C26.8764 168.665 25.9503 169.16 25.0369 169.654C16.7784 174.115 7.59381 178.994 -1.50198 176.687C-3.92499 176.066 -6.33531 174.85 -7.68002 172.759C-13.8454 163.191 3.49626 164.496 8.10125 163.976C17.2224 162.95 26.2928 161.366 35.2237 159.249C52.9205 155.067 70.1226 148.807 86.3606 140.62C95.5452 135.994 104.425 130.748 112.887 124.931H112.899Z" fill="#341D11"/>
</g>
<path d="M258.914 365.288C276.639 365.288 291.009 350.933 291.009 333.225C291.009 315.517 276.639 301.162 258.914 301.162C241.188 301.162 226.818 315.517 226.818 333.225C226.818 350.933 241.188 365.288 258.914 365.288Z" fill="#933B3C"/>
<path d="M203.984 315.609C221.71 315.609 236.079 301.254 236.079 283.546C236.079 265.838 221.71 251.483 203.984 251.483C186.258 251.483 171.889 265.838 171.889 283.546C171.889 301.254 186.258 315.609 203.984 315.609Z" fill="#933B3C"/>
<path d="M256.25 226.011C273.346 226.011 287.204 212.167 287.204 195.089C287.204 178.011 273.346 164.167 256.25 164.167C239.155 164.167 225.297 178.011 225.297 195.089C225.297 212.167 239.155 226.011 256.25 226.011Z" fill="#933B3C"/>
<path d="M204.242 193.447C206.902 177.074 195.772 161.646 179.382 158.988C162.992 156.33 147.548 167.449 144.888 183.823C142.227 200.196 153.357 215.624 169.747 218.282C186.138 220.94 201.581 209.821 204.242 193.447Z" fill="#933B3C"/>
<path d="M69.5131 294.698C85.9077 294.698 99.1982 281.422 99.1982 265.044C99.1982 248.666 85.9077 235.389 69.5131 235.389C53.1186 235.389 39.8281 248.666 39.8281 265.044C39.8281 281.422 53.1186 294.698 69.5131 294.698Z" fill="#933B3C"/>
<path d="M32.3426 157.323C49.2276 157.323 62.9156 143.649 62.9156 126.781C62.9156 109.913 49.2276 96.2393 32.3426 96.2393C15.4575 96.2393 1.76953 109.913 1.76953 126.781C1.76953 143.649 15.4575 157.323 32.3426 157.323Z" fill="#933B3C"/>
<path d="M29.8062 135.399C38.8443 135.399 46.171 128.079 46.171 119.05C46.171 110.021 38.8443 102.702 29.8062 102.702C20.7682 102.702 13.4414 110.021 13.4414 119.05C13.4414 128.079 20.7682 135.399 29.8062 135.399Z" fill="#B35653"/>
<path d="M66.2145 273.154C73.7112 273.154 79.7885 267.083 79.7885 259.594C79.7885 252.105 73.7112 246.034 66.2145 246.034C58.7179 246.034 52.6406 252.105 52.6406 259.594C52.6406 267.083 58.7179 273.154 66.2145 273.154Z" fill="#B35653"/>
<path d="M136.747 275.69C151.741 275.69 163.895 263.548 163.895 248.57C163.895 233.591 151.741 221.449 136.747 221.449C121.754 221.449 109.6 233.591 109.6 248.57C109.6 263.548 121.754 275.69 136.747 275.69Z" fill="#7C6931"/>
<path d="M134.718 257.948C144.036 257.948 151.59 250.401 151.59 241.092C151.59 231.784 144.036 224.237 134.718 224.237C125.4 224.237 117.846 231.784 117.846 241.092C117.846 250.401 125.4 257.948 134.718 257.948Z" fill="#8C7637"/>
<path d="M161.232 305.725C205.505 336.9 249.145 367.569 282.382 410.277C278.703 395.957 270.584 383.284 261.958 371.244C234.049 332.592 199.543 298.628 160.47 271.254C130.405 250.217 97.4215 235.136 65.453 217.013C146.516 230.447 229.228 240.965 310.037 225.631C312.308 225.149 315.594 221.956 314.198 220.308C312.803 218.661 309.149 218.788 306.866 218.788C230.877 219.928 154.762 212.324 80.4224 196.103C6.08297 179.881 25.1118 183.43 -3.17773 179.628C-2.41658 191.667 -2.16286 203.2 -1.40171 215.239V215.366C41.9841 237.037 84.6087 260.355 126.218 285.321C136.24 291.328 145.273 299.16 149.269 310.122C153.265 321.084 153.912 332.959 154.318 344.631C154.673 354.782 154.863 365.047 152.884 375.021C154.622 374.641 155.51 372.74 156.081 371.067C161.688 354.529 161.853 336.71 161.967 319.247C161.993 314.951 161.802 309.995 161.244 305.737L161.232 305.725Z" fill="#472D22"/>
<mask id="mask1_629_4041" style="mask-type:luminance" maskUnits="userSpaceOnUse" x="-4" y="179" width="319" height="232">
<path d="M161.232 305.725C205.505 336.9 249.145 367.569 282.382 410.277C278.703 395.957 270.584 383.284 261.958 371.244C234.049 332.592 199.543 298.628 160.47 271.254C130.405 250.217 97.4215 235.136 65.453 217.013C146.516 230.447 229.228 240.965 310.037 225.631C312.308 225.149 315.594 221.956 314.198 220.308C312.803 218.661 309.149 218.788 306.866 218.788C230.877 219.928 154.762 212.324 80.4224 196.103C6.08297 179.881 25.1118 183.43 -3.17773 179.628C-2.41658 191.667 -2.16286 203.2 -1.40171 215.239V215.366C41.9841 237.037 84.6087 260.355 126.218 285.321C136.24 291.328 145.273 299.16 149.269 310.122C153.265 321.084 153.912 332.959 154.318 344.631C154.673 354.782 154.863 365.047 152.884 375.021C154.622 374.641 155.51 372.74 156.081 371.067C161.688 354.529 161.853 336.71 161.967 319.247C161.993 314.951 161.802 309.995 161.244 305.737L161.232 305.725Z" fill="white"/>
</mask>
<g mask="url(#mask1_629_4041)">
<path d="M96.9395 262.459C160.699 297.855 226.196 334.695 271.383 391.901C281.101 404.207 290.12 418.439 289.905 434.102C289.879 435.889 289.702 437.752 288.725 439.248C287.266 441.453 284.45 442.264 281.849 442.758C268.808 445.204 255.374 443.671 242.282 441.491C215.527 437.055 188.976 429.946 164.873 417.513C142.482 405.968 122.641 390.076 103.485 373.715C81.5642 354.997 60.1631 335.392 42.6058 312.53C25.5686 290.352 12.388 265.234 3.69815 238.671C1.52886 232.031 -0.361343 225.289 -1.95977 218.496C-4.25592 208.776 -3.92608 206.482 5.5376 211.741C19.8854 219.713 34.2331 227.671 48.5809 235.63C64.692 244.577 80.8158 253.524 96.9268 262.471L96.9395 262.459Z" fill="#341D11"/>
<path d="M-3.51976 198.764C0.0703478 199.144 3.48286 200.411 6.88268 201.615C26.0511 208.421 45.8284 213.553 65.8975 216.937C103.422 223.248 137.357 244.121 174.641 251.75C186.109 254.094 197.742 255.843 209.439 255.805C224.408 255.755 239.2 252.789 253.877 249.824C271.701 246.224 289.918 242.486 305.534 233.184C309.53 230.801 316.178 226.188 315.049 221.689C290.26 222.729 263.29 227.532 238.489 228.241C229.85 228.482 221.198 228.317 212.559 228.013C159.76 226.163 107.127 219.446 55.5585 207.965C38.3945 204.137 20.4693 199.778 4.28207 192.896C1.08522 191.54 -2.27654 190.07 -5.72711 190.476C-6.93227 193.834 -5.24505 195.634 -3.53245 198.764H-3.51976Z" fill="#341D11"/>
</g>
<mask id="mask2_629_4041" style="mask-type:luminance" maskUnits="userSpaceOnUse" x="107" y="218" width="60" height="61">
<path d="M107.062 218.914V278.224H166.433V218.914H107.062ZM120.256 225.504C125.076 222.082 130.785 220.181 136.748 220.181C142.71 220.181 152.732 223.73 158.187 229.94C145.501 228.672 132.942 227.278 120.256 225.504Z" fill="white"/>
</mask>
<g mask="url(#mask2_629_4041)">
<path d="M136.747 275.689C151.741 275.689 163.895 263.547 163.895 248.569C163.895 233.59 151.741 221.448 136.747 221.448C121.754 221.448 109.6 233.59 109.6 248.569C109.6 263.547 121.754 275.689 136.747 275.689Z" fill="#7C6931"/>
<path d="M134.718 257.947C144.036 257.947 151.59 250.4 151.59 241.091C151.59 231.783 144.036 224.236 134.718 224.236C125.4 224.236 117.846 231.783 117.846 241.091C117.846 250.4 125.4 257.947 134.718 257.947Z" fill="#8C7637"/>
</g>
<path d="M199.671 279.998C205.065 279.998 209.439 275.629 209.439 270.24C209.439 264.85 205.065 260.481 199.671 260.481C194.276 260.481 189.902 264.85 189.902 270.24C189.902 275.629 194.276 279.998 199.671 279.998Z" fill="#B35653"/>
<path d="M172.523 187.485C178.479 187.485 183.306 182.662 183.306 176.713C183.306 170.763 178.479 165.94 172.523 165.94C166.568 165.94 161.74 170.763 161.74 176.713C161.74 182.662 166.568 187.485 172.523 187.485Z" fill="#B35653"/>
<path d="M255.869 195.216C261.544 195.216 266.145 190.62 266.145 184.951C266.145 179.281 261.544 174.686 255.869 174.686C250.194 174.686 245.594 179.281 245.594 184.951C245.594 190.62 250.194 195.216 255.869 195.216Z" fill="#B35653"/>
<path d="M253.331 336.774C261.248 336.774 267.666 330.362 267.666 322.453C267.666 314.544 261.248 308.133 253.331 308.133C245.414 308.133 238.996 314.544 238.996 322.453C238.996 330.362 245.414 336.774 253.331 336.774Z" fill="#B35653"/>
</g>
<defs>
<clipPath id="clip0_629_4041">
<rect width="470" height="444" fill="white" transform="translate(-9)"/>
</clipPath>
</defs>
</svg>
