<svg width="300" height="228" viewBox="0 0 300 228" fill="none" xmlns="http://www.w3.org/2000/svg">
<g clip-path="url(#clip0_629_3972)">
<path d="M258.392 70.7265C252.607 67.6042 246.674 64.6306 240.592 62.4005C233.916 59.8729 226.944 58.2374 219.972 56.6019C208.105 53.777 196.238 50.9521 184.074 49.7627C198.315 56.8993 212.407 64.1846 226.499 71.4699C235.103 75.9303 243.855 80.5393 251.865 86.0405C268.183 96.7751 269.414 97.7564 281.133 104.447C287.215 107.867 297.406 116.074 301.262 121.872C300.224 120.237 301.262 114.141 301.262 112.059V102.247C301.114 95.7046 298.889 95.1099 293.549 91.5416C282.275 84.1077 270.556 77.2684 258.689 70.8752L258.392 70.7265Z" fill="#472D22"/>
<mask id="mask0_629_3972" style="mask-type:luminance" maskUnits="userSpaceOnUse" x="184" y="49" width="118" height="73">
<path d="M258.392 70.7265C252.607 67.6042 246.674 64.6306 240.592 62.4005C233.916 59.8729 226.944 58.2374 219.972 56.6019C208.105 53.777 196.238 50.9521 184.074 49.7627C198.315 56.8993 212.407 64.1846 226.499 71.4699C235.103 75.9303 243.855 80.5393 251.865 86.0405C268.183 96.7751 269.414 97.7564 281.133 104.447C287.215 107.867 297.406 116.074 301.262 121.872C300.224 120.237 301.262 114.141 301.262 112.059V102.247C301.114 95.7046 298.889 95.1099 293.549 91.5416C282.275 84.1077 270.556 77.2684 258.689 70.8752L258.392 70.7265Z" fill="white"/>
</mask>
<g mask="url(#mask0_629_3972)">
<path d="M263.139 85.7281C260.335 83.9142 257.531 82.1003 254.728 80.2865C251.524 78.2198 248.319 76.1383 245.041 74.1609C225.46 62.326 203.729 54.0891 181.24 49.9707C194.517 59.8728 210.003 66.266 224.555 74.1757C243.142 84.2711 260.231 96.8196 277.72 108.655C281.636 111.301 299.838 126.511 304.451 123.448C309.673 119.984 294.141 108 291.902 106.127C282.838 98.6038 272.988 92.1213 263.124 85.7133L263.139 85.7281Z" fill="#341D11"/>
</g>
<path d="M183.037 34.7617C169.242 22.1239 152.628 12.9058 134.827 6.95861C124.74 3.68766 114.356 1.45746 103.824 0.565388C68.5191 -2.55688 32.4726 7.40464 2.35966 26.1383C1.61796 26.5843 0.87626 27.0303 0.431241 27.7737C-0.755476 29.7066 0.72792 32.0854 2.21132 33.7209C26.094 61.6727 62.7338 76.0946 99.2254 80.2576C125.333 83.3799 152.776 81.5957 176.659 70.5934C183.631 67.4712 194.014 61.6727 196.239 53.4953C198.168 46.3587 187.487 38.776 182.889 34.4643L183.037 34.7617ZM95.6652 34.7617C86.6165 34.167 85.1331 33.8696 76.0844 33.2749C68.8158 32.8288 59.9154 32.6802 44.1914 33.5722C59.1737 29.1118 63.4756 28.9632 68.2224 28.8145C77.4195 28.5171 86.6165 28.9632 95.8136 30.0039C105.159 31.0447 114.356 32.6802 123.405 34.613C131.86 36.3971 134.085 36.0998 149.661 40.7088C131.712 39.5194 113.466 35.8024 95.6652 34.613V34.7617Z" fill="#466C50"/>
<path d="M251.807 145.112C249.434 139.908 245.028 137.796 238.768 135.061C230.965 132.89 227.153 131.656 218.104 128.816C207.275 126.497 202.959 126.021 198.093 125.04C189.489 123.85 180.886 122.512 172.134 122.066C123.775 119.539 74.9714 143.03 46.7868 182.43C45.1551 184.809 43.375 187.783 44.5617 190.459C45.0068 191.648 46.0451 192.54 47.0835 193.284C59.099 203.245 74.0813 209.044 89.3603 212.017C104.639 214.991 120.215 215.437 135.791 215.437C142.318 215.437 148.844 215.437 155.223 214.396C161.602 213.355 167.832 211.423 174.062 209.341C188.896 204.583 204.027 199.677 217.674 191.946C231.321 184.214 243.633 173.212 250.309 159.087C252.385 154.627 253.869 149.423 251.94 144.963L251.792 145.112H251.807ZM184.757 170.982C176.154 174.401 167.402 177.078 158.353 179.308C149.304 181.389 140.107 183.025 130.762 184.363C122.158 185.552 120.23 186.593 103.912 187.634C121.12 182.579 139.662 179.903 156.87 174.847C165.622 172.32 167.105 172.022 175.709 169.495C182.681 167.413 191.136 164.589 205.673 158.344C193.064 167.711 189.059 169.198 184.757 170.982Z" fill="#466C50"/>
<mask id="mask1_629_3972" style="mask-type:luminance" maskUnits="userSpaceOnUse" x="44" y="121" width="209" height="95">
<path d="M251.807 145.112C249.434 139.908 245.028 137.796 238.768 135.061C230.965 132.89 227.153 131.656 218.104 128.816C207.275 126.497 202.959 126.021 198.093 125.04C189.489 123.85 180.886 122.512 172.134 122.066C123.775 119.539 74.9714 143.03 46.7868 182.43C45.1551 184.809 43.375 187.783 44.5617 190.459C45.0068 191.648 46.0451 192.54 47.0835 193.284C59.099 203.245 74.0813 209.044 89.3603 212.017C104.639 214.991 120.215 215.437 135.791 215.437C142.318 215.437 148.844 215.437 155.223 214.396C161.602 213.355 167.832 211.423 174.062 209.341C188.896 204.583 204.027 199.677 217.674 191.946C231.321 184.214 243.633 173.212 250.309 159.087C252.385 154.627 253.869 149.423 251.94 144.963L251.792 145.112H251.807ZM184.757 170.982C176.154 174.401 167.402 177.078 158.353 179.308C149.304 181.389 140.107 183.025 130.762 184.363C122.158 185.552 120.23 186.593 103.912 187.634C121.12 182.579 139.662 179.903 156.87 174.847C165.622 172.32 167.105 172.022 175.709 169.495C182.681 167.413 191.136 164.589 205.673 158.344C193.064 167.711 189.059 169.198 184.757 170.982Z" fill="white"/>
</mask>
<g mask="url(#mask1_629_3972)">
<path d="M182.072 173.256C177.415 184.913 170.087 195.276 162.818 205.505C158.308 211.839 153.814 218.172 149.304 224.506C148.384 225.785 147.391 227.138 145.922 227.703C144.676 228.178 143.296 228 141.976 227.807C127.869 225.814 113.762 223.822 99.6698 221.83C78.8281 218.886 57.4968 215.793 38.8951 205.936C37.4413 205.163 35.9134 204.256 35.2608 202.754C34.3114 200.569 35.5574 198.086 36.7886 196.049C66.7829 146.747 118.257 109.607 175.471 102.842C195.319 100.493 189.564 113.368 189.282 126.437C188.941 142.361 188.036 158.284 182.058 173.256H182.072Z" fill="#294833"/>
</g>
<path d="M267.589 133.336C255.87 136.012 244.596 141.662 236.734 150.731C258.985 145.973 281.83 144.04 304.526 145.081C304.526 141.959 306.009 135.12 304.081 132.443C302.152 129.767 297.85 130.659 295.18 130.659C285.835 130.659 276.638 131.254 267.441 133.336H267.589Z" fill="#472D22"/>
<mask id="mask2_629_3972" style="mask-type:luminance" maskUnits="userSpaceOnUse" x="236" y="130" width="70" height="21">
<path d="M267.589 133.336C255.87 136.012 244.596 141.662 236.734 150.731C258.985 145.973 281.83 144.04 304.526 145.081C304.526 141.959 306.009 135.12 304.081 132.443C302.152 129.767 297.85 130.659 295.18 130.659C285.835 130.659 276.638 131.254 267.441 133.336H267.589Z" fill="white"/>
</mask>
<g mask="url(#mask2_629_3972)">
<path d="M247.653 145.854C242.328 147.043 236.572 148.515 233.234 152.827C240.978 156.128 249.804 154.834 258.126 153.63C275.229 151.162 292.437 149.333 309.703 148.664C310.579 148.634 309.392 139.728 307.33 138.777C303.992 137.231 297.703 138.361 294.128 138.524C284.159 138.94 274.28 140.427 264.504 142.315C258.867 143.401 253.26 144.62 247.668 145.869L247.653 145.854Z" fill="#341D11"/>
</g>
</g>
<defs>
<clipPath id="clip0_629_3972">
<rect width="310" height="228" fill="white"/>
</clipPath>
</defs>
</svg>
