<svg width="117" height="71" viewBox="0 0 117 71" fill="none" xmlns="http://www.w3.org/2000/svg">
<path d="M0.574241 0.904297H99.1999C103.816 0.904297 108.243 2.73798 111.507 6.00196C114.771 9.26594 116.604 13.6929 116.604 18.3088C116.604 22.9248 114.771 27.3517 111.507 30.6157C108.243 33.8797 103.816 35.7133 99.1999 35.7133H91.9364C89.1214 46.6617 82.4075 56.2063 73.0547 62.5556C63.7018 68.905 52.3532 71.6226 41.1389 70.1984C29.9246 68.7742 19.6155 63.3061 12.1468 54.8203C4.67804 46.3346 0.563069 35.4147 0.574241 24.1103V0.904297ZM93.3983 24.1103H99.1999C100.739 24.1103 102.214 23.4991 103.302 22.4111C104.39 21.3231 105.001 19.8475 105.001 18.3088C105.001 16.7702 104.39 15.2945 103.302 14.2065C102.214 13.1185 100.739 12.5073 99.1999 12.5073H93.3983V24.1103Z" fill="#452C1C"/>
<g clip-path="url(#clip0_785_503)">
<path d="M49.0677 18.9976L49.0489 41.782C49.0489 42.449 49.1621 42.9776 49.3886 43.3677C49.6152 43.7578 50.0179 44.0598 50.5968 44.2738C51.1757 44.4751 52.0125 44.6387 53.1074 44.7646V46.2559H38.3268V44.7646C39.409 44.6387 40.2396 44.4751 40.8185 44.2738C41.41 44.0598 41.8127 43.7578 42.0266 43.3677C42.2532 42.9776 42.3664 42.449 42.3664 41.782V23.6979L38.1569 24.8683V23.5092C39.4783 22.8044 40.7556 22.0619 41.9889 21.2817C43.2222 20.5014 44.3548 19.7401 45.3867 18.9976H49.0677ZM54.1645 85.2559H36.3824V80.9519L40.4032 76.95C41.6743 75.83 42.7377 74.8106 43.5934 73.892C44.4492 72.9733 45.1288 72.1175 45.6321 71.3247C46.1481 70.5193 46.5194 69.7453 46.7459 69.0028C46.9724 68.2603 47.0857 67.499 47.0857 66.7187C47.0857 65.2589 46.6452 64.1011 45.7643 63.2454C44.8959 62.3896 43.7193 61.9617 42.2343 61.9617C40.7871 61.9617 39.5726 62.3078 38.591 63C37.6094 63.6795 36.867 64.5164 36.3636 65.5106V63.9627C36.8418 62.0498 37.8863 60.4956 39.4971 59.3001C41.1206 58.092 43.1656 57.4879 45.6321 57.4879C47.2556 57.4879 48.6902 57.8025 49.9361 58.4317C51.182 59.0484 52.1573 59.923 52.862 61.0556C53.5667 62.1757 53.9191 63.4782 53.9191 64.9632C53.9191 66.4356 53.573 67.8199 52.8809 69.1161C52.1887 70.4123 51.1127 71.7022 49.6529 72.9859C48.1931 74.2695 46.2928 75.6412 43.9521 77.101L38.8364 80.48L38.8176 79.9892L54.4288 79.9703L54.1645 85.2559ZM44.9148 124.766C43.1278 124.766 41.561 124.457 40.2145 123.841C38.8679 123.211 37.8171 122.387 37.062 121.368C36.3195 120.348 35.9483 119.241 35.9483 118.045H37.9304C37.9807 118.826 38.2261 119.53 38.6666 120.16C39.1196 120.776 39.7111 121.273 40.441 121.651C41.1709 122.028 41.9826 122.217 42.8761 122.217C43.9206 122.217 44.8519 121.984 45.6699 121.519C46.5005 121.053 47.1486 120.399 47.6142 119.556C48.0798 118.7 48.3127 117.699 48.3127 116.554C48.3127 114.666 47.6394 113.181 46.2928 112.099C44.9589 111.017 43.1341 110.495 40.8185 110.532V108.928C43.1718 108.638 44.8896 108.097 45.9719 107.304C47.0668 106.499 47.6142 105.524 47.6142 104.378C47.6142 103.359 47.2052 102.535 46.3872 101.906C45.5818 101.276 44.4681 100.962 43.046 100.962C41.5736 100.962 40.2774 101.27 39.1574 101.887C38.0499 102.503 37.1942 103.315 36.5901 104.322V102.793C36.9173 101.597 37.5151 100.521 38.3834 99.5648C39.2643 98.6084 40.3529 97.8596 41.6491 97.3185C42.9579 96.7648 44.4303 96.4879 46.0663 96.4879C47.652 96.4879 49.0552 96.7459 50.2759 97.2619C51.5092 97.7652 52.4719 98.4889 53.164 99.4327C53.8562 100.364 54.2023 101.446 54.2023 102.68C54.2023 103.812 53.8751 104.813 53.2207 105.681C52.5788 106.549 51.7042 107.241 50.5968 107.757C49.4893 108.273 48.2309 108.563 46.8214 108.626V108.305C48.4951 108.255 49.9675 108.557 51.2386 109.211C52.5096 109.865 53.5038 110.778 54.2211 111.948C54.9385 113.118 55.2971 114.446 55.2971 115.931C55.2971 117.29 55.0266 118.517 54.4854 119.612C53.9443 120.694 53.1955 121.626 52.2391 122.406C51.2826 123.174 50.1752 123.759 48.9167 124.161C47.6708 124.564 46.3369 124.766 44.9148 124.766ZM38.8553 115.006C39.6356 115.006 40.2963 115.277 40.8374 115.818C41.3785 116.359 41.6491 117.039 41.6491 117.857C41.6491 118.612 41.3848 119.253 40.8563 119.782C40.3403 120.311 39.7111 120.575 38.9686 120.575C38.2135 120.575 37.5717 120.336 37.0431 119.858C36.5272 119.367 36.2692 118.763 36.2692 118.045H35.9483C35.9483 117.164 36.2251 116.441 36.7789 115.875C37.3326 115.296 38.0247 115.006 38.8553 115.006ZM46.7081 163.256V157.498H34.5891V153.95L47.2744 135.998H52.7487V152.949H56.6563L56.4864 157.498H52.7487V163.256H46.7081ZM46.727 152.949V139.207H47.2744L37.4396 153.968V152.949H46.727ZM44.424 202.766C42.6244 202.766 41.0765 202.464 39.7803 201.859C38.4967 201.255 37.5151 200.469 36.8355 199.5C36.1559 198.531 35.8161 197.505 35.8161 196.423H37.7793C37.8297 197.153 38.0751 197.807 38.5155 198.386C38.956 198.952 39.5412 199.399 40.2711 199.726C41.001 200.054 41.8253 200.217 42.744 200.217C43.7382 200.217 44.638 199.984 45.4434 199.519C46.2614 199.053 46.9095 198.392 47.3877 197.537C47.8659 196.668 48.105 195.63 48.105 194.422C48.105 193.252 47.8659 192.226 47.3877 191.345C46.9095 190.464 46.2677 189.778 45.4622 189.287C44.6694 188.797 43.7759 188.551 42.7817 188.551C41.775 188.551 40.9129 188.759 40.1956 189.174C39.4783 189.577 38.9434 190.061 38.591 190.628L36.76 190.609L39.5538 174.998H53.8814L53.5982 180.302H40.7808L38.6477 189.325L38.4967 188.74C38.8364 188.073 39.3587 187.463 40.0634 186.909C40.7808 186.343 41.6491 185.883 42.6685 185.531C43.7004 185.179 44.8519 185.002 46.1229 185.002C47.7338 185.002 49.2125 185.342 50.559 186.022C51.9056 186.689 52.9816 187.651 53.787 188.91C54.5924 190.168 54.9951 191.691 54.9951 193.478C54.9951 195.378 54.5106 197.027 53.5416 198.424C52.5851 199.808 51.3015 200.878 49.6907 201.633C48.0924 202.388 46.3369 202.766 44.424 202.766ZM38.6477 193.421C39.4405 193.421 40.1075 193.686 40.6486 194.214C41.1898 194.73 41.4603 195.391 41.4603 196.196C41.4603 196.951 41.1961 197.593 40.6675 198.122C40.1515 198.638 39.516 198.896 38.7609 198.896C38.0184 198.896 37.3892 198.663 36.8732 198.197C36.3573 197.719 36.0993 197.128 36.0993 196.423H35.8161C35.8161 195.555 36.0804 194.837 36.609 194.271C37.1501 193.705 37.8297 193.421 38.6477 193.421ZM34.7402 229.967C34.7653 227.627 35.2435 225.456 36.1748 223.455C37.1186 221.441 38.4652 219.698 40.2145 218.226C41.9637 216.741 44.0716 215.608 46.5382 214.828C49.0048 214.048 51.7734 213.702 54.8441 213.79L54.863 215.243C51.9811 215.47 49.546 216.257 47.5576 217.603C45.5818 218.95 44.0842 220.756 43.0649 223.021C42.0455 225.286 41.5358 227.904 41.5358 230.874V232.912H41.668C41.668 234.259 41.8253 235.448 42.1399 236.48C42.4671 237.512 42.9327 238.317 43.5368 238.896C44.1409 239.463 44.8708 239.746 45.7265 239.746C46.5571 239.746 47.2681 239.507 47.8596 239.028C48.4637 238.55 48.923 237.864 49.2376 236.971C49.5648 236.065 49.7284 234.989 49.7284 233.743C49.7284 231.83 49.3761 230.332 48.6713 229.25C47.9792 228.155 47.0227 227.608 45.802 227.608C44.5813 227.608 43.5871 228.086 42.8195 229.042C42.0518 229.986 41.668 231.276 41.668 232.912H41.1017C41.1017 231.138 41.4163 229.603 42.0455 228.306C42.6873 227.01 43.5934 226.01 44.7638 225.305C45.9342 224.588 47.3185 224.229 48.9167 224.229C50.4395 224.229 51.7671 224.562 52.8998 225.229C54.045 225.884 54.9322 226.809 55.5614 228.004C56.2032 229.2 56.5241 230.609 56.5241 232.233C56.5241 233.705 56.2536 235.026 55.7124 236.197C55.1713 237.367 54.4099 238.368 53.4283 239.198C52.4593 240.029 51.3204 240.664 50.0116 241.105C48.7028 241.545 47.2744 241.766 45.7265 241.766C43.5368 241.766 41.6114 241.319 39.9502 240.425C38.3016 239.532 37.018 238.21 36.0993 236.461C35.1806 234.712 34.7276 232.547 34.7402 229.967ZM45.6888 280.256H38.5533V279.916C40.0131 276.971 41.4918 274.209 42.9894 271.629C44.4869 269.037 46.0034 266.614 47.5387 264.361C49.074 262.096 50.6345 259.982 52.2202 258.019V258.321H36.609L36.8921 252.998H54.0512V258.245C53.0067 260.397 52.0125 262.619 51.0687 264.909C50.1374 267.187 49.225 269.59 48.3315 272.12C47.438 274.649 46.5571 277.361 45.6888 280.256ZM56.0711 311.799C56.0711 313.36 55.618 314.738 54.7119 315.934C53.8184 317.129 52.5726 318.067 50.9743 318.746C49.3886 319.426 47.5576 319.766 45.4811 319.766C43.2914 319.766 41.4037 319.495 39.818 318.954C38.2324 318.413 37.0117 317.651 36.1559 316.67C35.3002 315.676 34.8723 314.511 34.8723 313.177C34.8723 311.995 35.1932 310.95 35.835 310.044C36.4894 309.125 37.4207 308.376 38.6288 307.798C39.8495 307.219 41.3156 306.847 43.0271 306.684L44.0087 307.024C42.939 307.502 42.1273 308.225 41.5736 309.194C41.0199 310.163 40.743 311.296 40.743 312.592C40.743 313.586 40.9381 314.474 41.3282 315.254C41.7183 316.022 42.272 316.626 42.9894 317.066C43.7193 317.507 44.5876 317.727 45.5944 317.727C46.9913 317.727 48.105 317.368 48.9356 316.651C49.7788 315.934 50.2004 314.99 50.2004 313.819C50.2004 313.052 50.0368 312.359 49.7096 311.743C49.3824 311.126 48.8475 310.541 48.105 309.987C47.3751 309.434 46.4061 308.867 45.198 308.288L42.1399 306.816C40.7934 306.187 39.6293 305.501 38.6477 304.758C37.6787 304.003 36.9299 303.16 36.4013 302.229C35.8854 301.298 35.6274 300.247 35.6274 299.076C35.6274 297.491 36.049 296.138 36.8921 295.018C37.7353 293.885 38.9057 293.017 40.4032 292.413C41.9008 291.796 43.6375 291.488 45.6133 291.488C47.6897 291.488 49.4579 291.758 50.9177 292.3C52.3775 292.828 53.4912 293.564 54.2589 294.508C55.0266 295.439 55.4104 296.497 55.4104 297.68C55.3978 298.762 55.0769 299.687 54.4477 300.454C53.8184 301.21 52.9438 301.82 51.8238 302.286C50.7037 302.739 49.4075 303.041 47.9351 303.192L46.9346 302.795C47.7778 302.342 48.4259 301.732 48.879 300.964C49.332 300.196 49.5585 299.29 49.5585 298.246C49.5585 297.34 49.3949 296.534 49.0677 295.83C48.7531 295.112 48.2938 294.552 47.6897 294.15C47.0857 293.734 46.3558 293.527 45.5 293.527C44.2541 293.527 43.2788 293.841 42.5741 294.47C41.8693 295.1 41.517 295.924 41.517 296.943C41.517 297.95 41.8568 298.825 42.5363 299.567C43.2159 300.297 44.2667 301.002 45.6888 301.681L48.7657 303.135C50.3765 303.877 51.7231 304.664 52.8054 305.495C53.8876 306.313 54.6994 307.238 55.2405 308.269C55.7942 309.289 56.0711 310.466 56.0711 311.799ZM56.2598 342.286C56.2347 344.627 55.7502 346.804 54.8063 348.817C53.8751 350.818 52.5348 352.561 50.7855 354.046C49.0363 355.519 46.9284 356.645 44.4618 357.425C41.9952 358.206 39.2266 358.552 36.1559 358.464L36.137 357.01C39.0189 356.783 41.4478 355.997 43.4235 354.65C45.4119 353.304 46.9158 351.498 47.9351 349.233C48.9545 346.967 49.4642 344.35 49.4642 341.38V339.341H49.332C49.332 337.982 49.1684 336.793 48.8412 335.773C48.5266 334.742 48.0673 333.942 47.4632 333.376C46.8591 332.797 46.1292 332.508 45.2735 332.508C44.4429 332.508 43.7256 332.747 43.1215 333.225C42.53 333.703 42.0707 334.389 41.7435 335.283C41.4289 336.176 41.2716 337.252 41.2716 338.511C41.2716 340.411 41.6176 341.908 42.3098 343.003C43.0145 344.098 43.9773 344.646 45.198 344.646C46.4187 344.646 47.4129 344.174 48.1805 343.23C48.9482 342.273 49.332 340.977 49.332 339.341H49.8983C49.8983 341.116 49.5774 342.651 48.9356 343.947C48.3064 345.243 47.4066 346.25 46.2362 346.967C45.0784 347.672 43.6941 348.025 42.0833 348.025C40.5605 348.025 39.2266 347.697 38.0814 347.043C36.9488 346.376 36.0615 345.445 35.4197 344.249C34.7905 343.054 34.4759 341.644 34.4759 340.021C34.4759 338.548 34.7464 337.227 35.2876 336.057C35.8287 334.886 36.5838 333.886 37.5528 333.055C38.5344 332.225 39.6796 331.589 40.9884 331.149C42.2972 330.708 43.7256 330.488 45.2735 330.488C47.4632 330.488 49.3824 330.935 51.0309 331.828C52.6921 332.722 53.982 334.043 54.9007 335.792C55.8194 337.542 56.2724 339.706 56.2598 342.286ZM36.3155 369.998L36.2967 392.782C36.2967 393.449 36.4099 393.978 36.6365 394.368C36.863 394.758 37.2657 395.06 37.8446 395.274C38.4235 395.475 39.2603 395.639 40.3552 395.765V397.256H25.5746V395.765C26.6569 395.639 27.4874 395.475 28.0663 395.274C28.6578 395.06 29.0605 394.758 29.2745 394.368C29.501 393.978 29.6142 393.449 29.6142 392.782V374.698L25.4047 375.868V374.509C26.7261 373.804 28.0034 373.062 29.2367 372.282C30.47 371.501 31.6026 370.74 32.6345 369.998H36.3155ZM53.5141 397.766C51.9158 397.766 50.4183 397.451 49.0214 396.822C47.6371 396.18 46.4227 395.249 45.3781 394.028C44.3336 392.807 43.5156 391.329 42.9241 389.592C42.3452 387.843 42.0558 385.854 42.0558 383.627C42.0558 381.399 42.3452 379.411 42.9241 377.662C43.5156 375.9 44.3336 374.415 45.3781 373.207C46.4352 371.986 47.6748 371.061 49.0969 370.432C50.5189 369.803 52.0543 369.488 53.7029 369.488C55.3011 369.488 56.7924 369.809 58.1767 370.451C59.5736 371.08 60.7943 372.005 61.8388 373.226C62.8833 374.446 63.695 375.931 64.2739 377.68C64.8654 379.417 65.1611 381.399 65.1611 383.627C65.1611 385.854 64.8654 387.849 64.2739 389.611C63.695 391.36 62.877 392.845 61.8199 394.066C60.7754 395.274 59.5421 396.192 58.1201 396.822C56.698 397.451 55.1627 397.766 53.5141 397.766ZM53.7217 395.746C54.4013 395.746 54.9991 395.538 55.515 395.123C56.031 394.695 56.4652 394.022 56.8175 393.103C57.1699 392.172 57.4342 390.957 57.6104 389.46C57.7991 387.95 57.8935 386.118 57.8935 383.967C57.8809 381.802 57.7803 379.933 57.5915 378.36C57.4027 376.787 57.1196 375.497 56.742 374.49C56.3645 373.471 55.9052 372.722 55.364 372.244C54.8229 371.753 54.1999 371.508 53.4952 371.508C52.8156 371.508 52.2179 371.722 51.7019 372.15C51.1859 372.565 50.7518 373.238 50.3994 374.169C50.047 375.088 49.7765 376.302 49.5877 377.813C49.4115 379.31 49.3234 381.135 49.3234 383.287C49.3234 385.451 49.4178 387.32 49.6066 388.893C49.8079 390.466 50.0974 391.763 50.4749 392.782C50.8524 393.789 51.3118 394.538 51.8529 395.028C52.3941 395.507 53.017 395.746 53.7217 395.746Z" fill="white"/>
</g>
<defs>
<clipPath id="clip0_785_503">
<rect width="63" height="38" fill="white" transform="translate(14 13.2559)"/>
</clipPath>
</defs>
</svg>
