<svg width="263" height="51" viewBox="0 0 263 51" fill="none" xmlns="http://www.w3.org/2000/svg">
<path d="M0 25.5664C0 21.9661 0.615234 18.6165 1.8457 15.5176C3.09896 12.4186 4.8877 9.70703 7.21191 7.38281C9.53613 5.05859 12.3161 3.24707 15.5518 1.94824C18.7874 0.649414 22.3877 0 26.3525 0C30.0895 0 33.5645 0.603841 36.7773 1.81152C39.9902 2.99642 42.793 4.7054 45.1855 6.93848C47.6009 9.17155 49.4808 11.849 50.8252 14.9707C52.1924 18.0697 52.876 21.5446 52.876 25.3955C52.876 28.973 52.2493 32.3226 50.9961 35.4443C49.7428 38.5433 47.9541 41.2663 45.6299 43.6133C43.3057 45.9375 40.5257 47.749 37.29 49.0479C34.0771 50.3467 30.4883 50.9961 26.5234 50.9961C22.7637 50.9961 19.2773 50.4036 16.0645 49.2188C12.8516 48.0111 10.0374 46.2907 7.62207 44.0576C5.22949 41.8245 3.361 39.1471 2.0166 36.0254C0.672201 32.9036 0 29.4173 0 25.5664ZM14.3213 25.0879C14.3213 28.5286 14.6061 31.6732 15.1758 34.5215C15.7454 37.347 16.5544 39.7966 17.6025 41.8701C18.6735 43.9209 19.9723 45.5046 21.499 46.6211C23.0485 47.7376 24.7803 48.2959 26.6943 48.2959C29.4743 48.2959 31.7301 47.3617 33.4619 45.4932C35.2165 43.6019 36.5039 40.9814 37.3242 37.6318C38.1445 34.2594 38.5547 30.3402 38.5547 25.874C38.5547 22.4333 38.2699 19.3001 37.7002 16.4746C37.1305 13.6263 36.3102 11.1768 35.2393 9.12598C34.1683 7.0752 32.8695 5.49154 31.3428 4.375C29.8161 3.25846 28.0957 2.7002 26.1816 2.7002C23.3789 2.7002 21.1003 3.63444 19.3457 5.50293C17.6139 7.37142 16.3379 9.99186 15.5176 13.3643C14.7201 16.7139 14.3213 20.6217 14.3213 25.0879ZM47.9883 0.581055L49.7656 2.29004L4.85352 50.415L3.07617 48.7061L47.9883 0.581055Z" fill="#5D5F47"/>
<path d="M73.6944 0.820312L97.2784 40.708H96.253L95.5352 9.91211C95.4897 8.15755 95.3415 6.81315 95.0909 5.87891C94.863 4.92188 94.3959 4.22689 93.6895 3.79395C92.9831 3.33822 91.9236 3.00781 90.5108 2.80273V0.820312H103.909V2.80273C102.588 3.00781 101.596 3.33822 100.936 3.79395C100.275 4.22689 99.8191 4.91048 99.5684 5.84473C99.3406 6.77897 99.2152 8.10059 99.1925 9.80957L98.6798 50.1758H86.9561L60.8428 5.98145H62.005L62.6886 41.084C62.7341 42.8385 62.8708 44.1943 63.0987 45.1514C63.3494 46.0856 63.8279 46.7806 64.5343 47.2363C65.2406 47.6693 66.3002 47.9883 67.713 48.1934V50.1758H54.3145V48.1934C55.6589 47.9883 56.6615 47.6693 57.3223 47.2363C57.9832 46.7806 58.4275 46.0856 58.6553 45.1514C58.8832 44.2171 59.0085 42.8955 59.0313 41.1865L59.4415 8.27148C59.4643 7.10938 59.3389 6.17513 59.0655 5.46875C58.8149 4.73958 58.3477 4.16992 57.6641 3.75977C57.0033 3.34961 56.0577 3.0306 54.8272 2.80273V0.820312H73.6944Z" fill="#5D5F47"/>
<path d="M122.814 50.9961C119.373 50.9961 116.194 50.6771 113.277 50.0391C110.384 49.3783 108.071 48.5693 106.339 47.6123L105.861 33.9062H107.74C108.196 36.1849 108.902 38.2129 109.86 39.9902C110.839 41.7676 111.99 43.2715 113.312 44.502C114.633 45.7324 116.08 46.6781 117.652 47.3389C119.248 47.9769 120.9 48.2959 122.609 48.2959C125.434 48.2959 127.679 47.5781 129.342 46.1426C131.005 44.707 131.837 42.8613 131.837 40.6055C131.837 38.4635 131.142 36.6862 129.752 35.2734C128.362 33.8379 126.129 32.5846 123.053 31.5137L118.917 30.1465C114.724 28.7337 111.5 26.7741 109.244 24.2676C107.011 21.7611 105.895 18.6963 105.895 15.0732C105.895 11.9287 106.715 9.22852 108.356 6.97266C110.019 4.7168 112.366 2.99642 115.397 1.81152C118.427 0.603841 121.993 0 126.095 0C129.239 0 132.031 0.296224 134.469 0.888672C136.907 1.45833 138.81 2.19889 140.177 3.11035L140.45 15.2783H138.605C138.035 12.7262 137.169 10.5046 136.007 8.61328C134.868 6.72201 133.466 5.26367 131.803 4.23828C130.139 3.21289 128.271 2.7002 126.197 2.7002C123.326 2.7002 121.127 3.361 119.601 4.68262C118.074 5.98145 117.311 7.67904 117.311 9.77539C117.311 11.8717 118.04 13.5921 119.498 14.9365C120.957 16.2581 123.212 17.443 126.266 18.4912L130.367 19.8926C134.628 21.3281 137.83 23.3561 139.972 25.9766C142.137 28.597 143.219 31.7643 143.219 35.4785C143.219 38.737 142.319 41.5283 140.519 43.8525C138.741 46.1768 136.303 47.9541 133.204 49.1846C130.128 50.3923 126.665 50.9961 122.814 50.9961Z" fill="#5D5F47"/>
<path d="M162.875 43.8184C162.875 44.7754 162.989 45.5387 163.217 46.1084C163.445 46.6781 163.866 47.1224 164.482 47.4414C165.097 47.7376 166.02 47.9883 167.25 48.1934V50.1758H145.204V48.1934C146.526 47.9655 147.517 47.6921 148.178 47.373C148.862 47.054 149.317 46.5983 149.545 46.0059C149.796 45.4134 149.921 44.6045 149.921 43.5791V7.41699C149.921 6.3916 149.796 5.58268 149.545 4.99023C149.317 4.39779 148.862 3.94206 148.178 3.62305C147.517 3.30404 146.526 3.0306 145.204 2.80273V0.820312H167.25V2.80273C166.02 3.00781 165.097 3.26986 164.482 3.58887C163.866 3.88509 163.445 4.31803 163.217 4.8877C162.989 5.45736 162.875 6.2207 162.875 7.17773V43.8184ZM179.247 50.1758L165.473 24.7461L177.299 10.5957C178.894 8.68164 179.942 7.20052 180.444 6.15234C180.945 5.10417 180.934 4.34082 180.409 3.8623C179.885 3.361 178.894 3.00781 177.436 2.80273V0.820312H192.919V2.80273C191.552 3.09896 190.276 3.54329 189.091 4.13574C187.929 4.72819 186.733 5.52572 185.502 6.52832C184.272 7.53092 182.859 8.81836 181.264 10.3906C179.532 12.1224 177.983 13.7174 176.615 15.1758C175.248 16.6341 173.995 18.0127 172.856 19.3115L174.531 15.7227L186.835 38.4521C188.225 40.9359 189.353 42.8385 190.219 44.1602C191.108 45.4818 191.882 46.4388 192.543 47.0312C193.204 47.6009 193.899 48.0339 194.628 48.3301V50.1758H179.247ZM167.729 26.25L159.697 26.2158V23.8574L167.729 23.7891V26.25Z" fill="#5D5F47"/>
<path d="M262.03 24.9745C262.039 29.8318 260.532 34.5812 257.702 38.6165C257.538 38.8515 257.374 39.0802 257.2 39.3058C254.822 42.4718 251.688 45.0507 248.058 46.8286C244.429 48.6065 240.408 49.5324 236.329 49.5295C236.044 49.5295 235.759 49.5295 235.473 49.5138C235.464 49.5169 235.454 49.5169 235.444 49.5138C234.484 49.4865 233.527 49.4049 232.578 49.2694C231.824 49.166 231.08 49.0282 230.348 48.8621C224.604 47.5477 219.509 44.3833 215.92 39.9011C215.612 39.522 215.32 39.1304 215.042 38.7356C212.678 35.409 211.213 31.5746 210.779 27.5751C210.401 24.2553 210.735 20.8968 211.762 17.7047C212.789 14.5127 214.486 11.5543 216.75 9.01032C219.014 6.46635 221.797 4.39029 224.929 2.90904C228.061 1.42779 231.477 0.572475 234.966 0.395394C238.456 0.218314 241.947 0.723183 245.226 1.87914C248.505 3.03509 251.502 4.81784 254.035 7.11841C256.569 9.41897 258.584 12.189 259.959 15.2592C261.333 18.3294 262.038 21.6352 262.03 24.9745Z" fill="#EECBA4"/>
<path d="M232.364 50.6138H232.44L232.364 50.6357V50.6138Z" fill="#4C5238"/>
<path d="M257.696 38.6162C257.532 38.8512 257.368 39.0799 257.194 39.3055C254.816 42.4715 251.682 45.0503 248.052 46.8283C244.423 48.6062 240.402 49.5321 236.323 49.5292C236.038 49.5292 235.753 49.5292 235.467 49.5135C235.458 49.5166 235.447 49.5166 235.438 49.5135C234.478 49.4862 233.521 49.4046 232.572 49.2691C231.818 49.1657 231.073 49.0278 230.342 48.8618C224.598 47.5474 219.503 44.383 215.914 39.9008C215.606 39.5217 215.314 39.1301 215.036 38.7353L225.237 38.7071H228.421H234.651H235.418H238.599H239.255H241.222L257.696 38.6162Z" fill="#4C5238"/>
<path d="M261.109 31.4918C260.38 34.027 259.228 36.433 257.695 38.6167C257.532 38.8517 256.953 39.6247 256.779 39.8503C255.641 39.8503 255.039 39.306 254.548 39.3655C253.085 39.4971 247.803 39.0334 245.924 39.0334C245.36 39.0334 243.412 39.0334 240.874 39.0334L238.562 39.0522H238.382C237.398 39.0522 236.385 39.0741 235.362 39.0929H234.791C232.578 39.1274 230.355 39.1807 228.466 39.2527H228.158H227.977C227.168 39.2872 226.426 39.3279 225.787 39.3687H225.699C225.039 39.4059 224.382 39.477 223.731 39.5817C222.128 39.895 218.793 39.9201 215.911 39.8543C215.602 39.4752 215.311 39.0836 215.032 38.6888C212.668 35.3622 211.203 31.5278 210.769 27.5283C212.838 26.275 216.248 24.3763 217.199 24.8306C218.593 25.4948 224.78 28.0891 225.613 29.7497C226.446 31.4103 228.118 34.202 229.371 31.8082C230.191 30.2416 230.981 28.3053 231.939 26.7042C232.384 25.9183 232.949 25.1993 233.614 24.5705C235.041 23.3172 235.385 22.4243 235.844 22.4023H235.864C236.012 22.4164 236.151 22.4783 236.257 22.5778C237.021 23.1762 238.762 26.7669 239.664 27.9607C240.566 29.1544 241.753 28.1581 242.796 29.6213C243.838 31.0845 244.671 34.1393 247.386 32.4787C250.101 30.8181 252.813 29.3455 253.577 28.3586L253.698 28.1957C253.856 27.9386 254.032 27.6925 254.226 27.4593C254.277 27.4039 254.34 27.3593 254.41 27.3286C254.48 27.2978 254.556 27.2815 254.633 27.2808C254.938 27.2808 255.38 27.5126 256.141 28.1079C257.643 29.3017 259.627 30.8463 261.109 31.4918Z" fill="#31312C"/>
<path d="M226.659 27.071C224.085 25.943 217.825 24.8119 217.199 24.8777C217.603 25.3548 218.131 25.7221 218.73 25.943C219.842 26.4068 224.632 30.671 225.754 31.7896C226.99 33.0241 227.354 32.7296 228.538 32.8737C229.721 33.0178 231.249 29.8627 231.528 28.3995C231.807 26.9363 232.03 26.5195 232.03 26.5195C232.03 26.5195 231.597 26.7984 229.649 28.1958L226.659 27.071Z" fill="#5C5F44"/>
<path d="M235.768 22.418C235.909 22.3522 237.08 23.6713 238.063 26.8045C239.047 29.9377 240.847 28.4683 242.097 29.3299C243.346 30.1915 243.28 32.7764 245.228 33.1179C247.176 33.4595 247.455 32.9206 249.471 31.7237C251.488 30.5268 253.078 29.0636 253.573 28.3993C254.068 27.7351 254.301 27.4594 254.301 27.4594C254.301 27.4594 251.652 28.838 249.471 28.9351C246.72 29.0573 242.654 26.1434 241.602 25.6139C240.549 25.0844 239.795 23.0196 238.542 22.6217C237.64 22.3824 236.698 22.3133 235.768 22.418Z" fill="#4C5238"/>
<path d="M234.579 37.6641C234.579 37.6641 233.746 37.6077 233.559 37.4448C233.275 37.2542 232.976 37.0855 232.664 36.9404C232.517 36.5591 232.517 36.1405 232.664 35.7592C232.926 35.1858 233.405 34.5654 234.146 34.5059C234.627 34.4593 235.113 34.5149 235.569 34.6688C235.661 34.697 236.094 34.1205 236.526 34.0422C237.086 33.9439 237.661 33.9642 238.212 34.1017C238.654 34.2317 239.036 34.5026 239.294 34.8693C239.424 35.3216 239.492 35.7883 239.494 36.2573C239.494 36.3075 239.494 36.3513 239.494 36.3889C239.486 36.4723 239.486 36.5562 239.494 36.6396C239.494 36.6396 240.747 37.2474 240.871 37.5796C240.996 37.9117 241.425 38.4976 241.117 38.8516C240.809 39.2057 239.697 39.8386 239.386 39.8386H237.986C237.877 39.8386 238.258 39.2621 238.507 38.8986C238.756 38.5352 238.645 37.567 238.258 37.332C237.871 37.097 237.5 36.6239 237.054 36.7054C236.608 36.7868 236.048 36.5738 235.615 36.8401C235.247 37.0879 234.9 37.3634 234.579 37.6641Z" fill="#E4CEBC"/>
<path d="M240.363 47.1297C240.035 47.9286 238.97 48.3829 238.97 48.3829C238.97 48.3829 239.078 48.7558 239.268 49.3793C238.288 49.4867 237.303 49.5401 236.317 49.5391C236.032 49.5391 235.746 49.5391 235.461 49.5234C235.461 48.9845 235.461 48.3986 235.432 48.0257C235.433 47.8943 235.41 47.7637 235.363 47.6404H235.346C235.176 47.6404 233.343 46.4717 233.051 46.29L233.031 46.2743L232.569 49.2978C231.815 49.1944 231.07 49.0566 230.339 48.8905C230.408 48.6452 230.503 48.4069 230.621 48.1793C231.133 47.2393 230.9 45.209 230.621 44.902C230.342 44.5949 227.05 44.1468 226.122 43.5703C225.194 42.9938 225.568 40.9134 225.706 41.045L226.811 40.7912H226.86C227.094 41.0303 227.248 41.3301 227.303 41.6528C227.304 41.6963 227.316 41.739 227.336 41.7781L227.381 41.8533C227.67 42.137 228.014 42.3629 228.395 42.5176L230.88 43.5045L230.988 43.5484L231.772 43.8617L231.808 43.9244L231.864 44.0278V44.0466V44.0623C231.878 44.082 231.89 44.103 231.9 44.1249C231.9 44.1249 231.9 44.1249 231.9 44.1437C231.901 44.152 231.901 44.1604 231.9 44.1688L232.041 44.4132L233.425 43.5735L233.53 43.6925L234.533 44.8079C234.533 44.8079 235.553 45.8262 235.599 45.516C235.645 45.2059 235.969 44.1876 236.064 43.7458C236.159 43.304 238.173 40.9259 238.36 40.7066V40.6909C238.826 40.9446 239.266 41.2416 239.671 41.5776C240.229 42.0664 240.74 42.8622 240.786 43.3949C240.832 43.9275 240.685 46.3338 240.363 47.1297Z" fill="#81221A"/>
<path d="M234.076 41.2612L233.915 41.6372L233.545 43.4545L233.682 43.9182C233.682 43.9182 234.82 45.2717 235.168 45.4033C235.515 45.5349 235.699 45.6258 235.699 45.6258C235.699 45.6258 236.07 43.8963 236.512 43.2978C236.955 42.6994 238.227 41.1296 238.388 40.9291C238.549 40.7286 238.342 40.4184 238.342 40.4184L237.971 40.0048L236.627 40.5406L236.214 40.9949L235.886 41.0168L235.699 41.1516L235.466 40.4372L235.194 39.8105C235.01 40.1646 235.033 40.1583 234.935 40.315L234.076 41.2612Z" fill="#E4CEBC"/>
<path d="M235.438 47.6681V49.5135C234.479 49.4862 233.522 49.4046 232.572 49.2692L233.035 46.2456L233.054 46.2613L235.35 47.6117H235.366L235.438 47.6681Z" fill="#E4CEBC"/>
<path d="M238.809 37.3198C238.892 37.6056 238.946 37.8983 238.97 38.194C238.97 38.2817 239.121 37.6833 239.167 37.5673L238.809 37.3198Z" fill="#211E1B"/>
<path d="M225.338 35.9534C225.743 35.7961 226.187 35.7526 226.617 35.8281C227.361 35.9471 228.227 36.3012 228.659 36.3012C230.449 36.2109 232.228 36.6098 233.788 37.4511C234.254 37.6892 235.457 37.6579 235.457 38.1623C235.457 38.6668 235.336 39.9921 234.801 40.5247C234.267 41.0574 233.817 41.4396 233.752 41.706C233.686 41.9723 232.64 43.3008 232.145 43.5358C232.145 43.5358 231.247 44.3347 231.125 43.9493C230.698 43.0802 230.223 42.2331 229.702 41.4114C229.086 40.3462 228.391 40.2584 228.125 39.5785C227.72 38.8018 227.2 38.0852 226.581 37.4511C226.177 37.0375 225.653 36.8025 225.685 36.5362C225.718 36.2699 225.338 35.9534 225.338 35.9534Z" fill="#BF7B38"/>
<path d="M225.338 35.9536C224.967 36.0695 225.059 38.7296 225.367 38.9959C226.053 39.6287 226.618 40.371 227.036 41.1892C227.502 42.1636 228.02 42.6963 228.584 42.9031C229.148 43.1099 230.922 43.7772 231.109 43.8994C231.437 44.1094 230.532 42.8153 230.253 42.2827C229.974 41.75 229.387 40.5406 228.83 40.1866C228.273 39.8325 227.81 38.3255 227.253 38.0873C226.695 37.8492 227.007 37.351 226.42 36.9656C226.012 36.6775 225.648 36.3369 225.338 35.9536Z" fill="#AE7048"/>
<path d="M225.708 41.0169C225.708 41.0169 225.38 39.6884 225.941 38.8456C226.501 38.0027 227.006 37.4732 227.377 37.6518C227.747 37.8304 227.888 38.4476 227.888 38.4476C227.888 38.4476 228.583 38.6262 228.583 38.9803C228.583 39.3343 228.164 39.5129 227.793 39.6884C227.423 39.8639 227.052 40.5312 226.869 40.7506C226.685 40.9699 225.708 41.0169 225.708 41.0169Z" fill="#984620"/>
<path d="M232.106 44.3851L231.863 43.9747C231.863 43.9747 230.656 41.8911 231.073 41.537C231.489 41.183 231.584 40.7851 232.056 40.7851C232.529 40.7851 233.076 40.6503 233.401 40.8728C233.568 40.9603 233.707 41.0885 233.805 41.2442C233.903 41.4 233.956 41.5778 233.958 41.7595C233.912 42.1135 233.588 43.1318 233.542 43.442C233.496 43.7522 232.106 44.3851 232.106 44.3851Z" fill="#984620"/>
<path d="M239.494 36.6304C238.975 36.292 238.426 35.9974 237.854 35.75L239.248 36.2639C239.35 36.3001 239.438 36.3672 239.497 36.455L239.494 36.6304Z" fill="#CAB4A5"/>
<path d="M234.566 37.8272L234.72 37.0909C234.72 37.0909 234.687 36.411 235.215 36.2324C235.743 36.0538 236.789 36.2638 237.222 36.4988C237.655 36.7338 238.553 37.0596 238.769 37.2664C238.986 37.4732 238.986 38.175 238.986 38.175C238.986 38.175 239.169 37.0314 239.419 37.4732C239.668 37.915 239.232 39.0085 238.832 39.0085C238.432 39.0085 238.058 39.422 238.087 39.6351C238.117 39.8482 237.841 40.1959 237.841 40.1959C237.841 40.1959 236.759 40.4341 236.572 40.6095C236.386 40.785 235.74 41.4962 235.74 41.4962C235.616 40.9925 235.45 40.4991 235.244 40.0205C234.994 39.6115 234.797 39.1749 234.657 38.7202C234.598 38.4259 234.567 38.127 234.566 37.8272Z" fill="#984620"/>
<path d="M236.366 19.6362C240.808 19.6362 244.409 16.1951 244.409 11.9504C244.409 7.70568 240.808 4.26465 236.366 4.26465C231.923 4.26465 228.322 7.70568 228.322 11.9504C228.322 16.1951 231.923 19.6362 236.366 19.6362Z" fill="#D3411D"/>
</svg>
