<svg width="174" height="174" viewBox="0 0 174 174" fill="none" xmlns="http://www.w3.org/2000/svg">
<path d="M87 21.7715C84.1466 21.7715 81.3212 22.3335 78.685 23.4254C76.0488 24.5174 73.6535 26.1179 71.6358 28.1355C69.6182 30.1532 68.0177 32.5485 66.9257 35.1847C65.8338 37.8209 65.2717 40.6463 65.2717 43.4997C65.2717 46.3531 65.8338 49.1786 66.9257 51.8148C68.0177 54.451 69.6182 56.8463 71.6358 58.8639C73.6535 60.8816 76.0488 62.4821 78.685 63.574C81.3212 64.666 84.1466 65.228 87 65.228C92.7627 65.228 98.2894 62.9388 102.364 58.8639C106.439 54.7891 108.728 49.2624 108.728 43.4997C108.728 37.737 106.439 32.2104 102.364 28.1355C98.2894 24.0607 92.7627 21.7715 87 21.7715ZM135.938 32.6247C131.611 32.6247 127.462 34.3434 124.403 37.4026C121.344 40.4617 119.625 44.6109 119.625 48.9372C119.625 53.2636 121.344 57.4127 124.403 60.4719C127.462 63.5311 131.611 65.2497 135.938 65.2497C140.264 65.2497 144.413 63.5311 147.472 60.4719C150.531 57.4127 152.25 53.2636 152.25 48.9372C152.25 44.6109 150.531 40.4617 147.472 37.4026C144.413 34.3434 140.264 32.6247 135.938 32.6247ZM38.0625 32.6247C33.7362 32.6247 29.587 34.3434 26.5278 37.4026C23.4686 40.4617 21.75 44.6109 21.75 48.9372C21.75 53.2636 23.4686 57.4127 26.5278 60.4719C29.587 63.5311 33.7362 65.2497 38.0625 65.2497C42.3888 65.2497 46.538 63.5311 49.5972 60.4719C52.6564 57.4127 54.375 53.2636 54.375 48.9372C54.375 44.6109 52.6564 40.4617 49.5972 37.4026C46.538 34.3434 42.3888 32.6247 38.0625 32.6247ZM54.375 86.9236C54.3951 84.0526 55.5497 81.306 57.587 79.283C59.6243 77.26 62.3789 76.1247 65.25 76.1247H108.75C111.634 76.1247 114.4 77.2705 116.44 79.31C118.479 81.3494 119.625 84.1155 119.625 86.9997V119.625C119.628 123.048 119.092 126.45 118.037 129.706C115.629 137.087 110.669 143.367 104.047 147.42C97.4246 151.473 89.5747 153.032 81.9065 151.818C74.2382 150.603 67.2541 146.695 62.2081 140.795C57.1621 134.894 54.3848 127.389 54.375 119.625V86.9236ZM43.5 86.9997C43.5 83.0304 44.5549 79.322 46.4145 76.1247H21.75C18.8658 76.1247 16.0997 77.2705 14.0602 79.31C12.0208 81.3494 10.875 84.1155 10.875 86.9997V114.187C10.8735 118.638 11.965 123.022 14.0535 126.953C16.142 130.884 19.1637 134.241 22.8532 136.732C26.5427 139.222 30.7872 140.768 35.2139 141.234C39.6406 141.701 44.1141 141.073 48.2415 139.406C45.1181 133.277 43.4932 126.493 43.5 119.614V86.9997ZM130.5 86.9997V119.625C130.5 126.748 128.793 133.469 125.758 139.406C129.886 141.073 134.359 141.701 138.786 141.234C143.213 140.768 147.457 139.222 151.147 136.732C154.836 134.241 157.858 130.884 159.947 126.953C162.035 123.022 163.126 118.638 163.125 114.187V86.9997C163.125 84.1155 161.979 81.3494 159.94 79.31C157.9 77.2705 155.134 76.1247 152.25 76.1247H127.586C129.434 79.322 130.5 83.0304 130.5 86.9997Z" fill="#81221A"/>
</svg>
