<svg width="365" height="259" viewBox="0 0 365 259" fill="none" xmlns="http://www.w3.org/2000/svg">
<g clip-path="url(#clip0_629_4716)">
<path d="M31.1371 72.0964C37.0323 68.9137 43.0786 65.8825 49.2761 63.6091C56.0782 61.0326 63.1826 59.3655 70.287 57.6983C82.3796 54.8187 94.4722 51.939 106.867 50.7266C92.356 58.0014 77.9961 65.4278 63.6361 72.8542C54.8689 77.401 45.9506 82.0994 37.7881 87.7071C21.1607 98.6497 19.9061 99.65 7.96462 106.47C1.76715 109.956 -8.61741 118.322 -12.5475 124.233C-11.4894 122.566 -12.5475 116.352 -12.5475 114.23V104.227C-12.3964 97.5584 -10.129 96.9522 -4.68731 93.3148C6.80069 85.7368 18.7422 78.7651 30.8348 72.248L31.1371 72.0964Z" fill="#472D22"/>
<mask id="mask0_629_4716" style="mask-type:luminance" maskUnits="userSpaceOnUse" x="-13" y="50" width="120" height="75">
<path d="M31.1371 72.0964C37.0323 68.9137 43.0786 65.8825 49.2761 63.6091C56.0782 61.0326 63.1826 59.3655 70.287 57.6983C82.3796 54.8187 94.4722 51.939 106.867 50.7266C92.356 58.0014 77.9961 65.4278 63.6361 72.8542C54.8689 77.401 45.9506 82.0994 37.7881 87.7071C21.1607 98.6497 19.9061 99.65 7.96462 106.47C1.76715 109.956 -8.61741 118.322 -12.5475 124.233C-11.4894 122.566 -12.5475 116.352 -12.5475 114.23V104.227C-12.3964 97.5584 -10.129 96.9522 -4.68731 93.3148C6.80069 85.7368 18.7422 78.7651 30.8348 72.248L31.1371 72.0964Z" fill="white"/>
</mask>
<g mask="url(#mask0_629_4716)">
<path d="M26.2996 87.3885C29.1565 85.5395 32.0134 83.6905 34.8703 81.8415C38.1353 79.7348 41.4003 77.6129 44.7409 75.5972C64.6938 63.5331 86.8384 55.1367 109.754 50.9385C96.2253 61.0323 80.4444 67.5494 65.6158 75.6124C46.6757 85.9032 29.2624 98.6949 11.4408 110.759C7.45028 113.457 -11.0968 128.961 -15.7978 125.839C-21.1186 122.308 -5.29235 110.092 -3.00986 108.182C6.22588 100.514 16.2628 93.9056 26.3148 87.3734L26.2996 87.3885Z" fill="#341D11"/>
</g>
<path d="M107.927 35.435C121.984 22.5525 138.914 13.1558 157.053 7.09342C167.332 3.75911 177.913 1.48572 188.645 0.576359C224.621 -2.60639 261.352 7.54809 292.037 26.6446C292.793 27.0993 293.548 27.5539 294.002 28.3117C295.211 30.282 293.7 32.707 292.188 34.3741C267.852 62.8673 230.516 77.5686 193.331 81.8122C166.727 84.995 138.763 83.1763 114.426 71.9609C107.322 68.7781 96.741 62.8673 94.4736 54.5315C92.5086 47.2567 103.392 39.5271 108.078 35.1319L107.927 35.435ZM196.959 35.435C206.179 34.8288 207.691 34.5257 216.911 33.9194C224.318 33.4648 233.388 33.3132 249.41 34.2226C234.143 29.6758 229.76 29.5242 224.923 29.3727C215.551 29.0695 206.179 29.5242 196.807 30.5851C187.285 31.6461 177.913 33.3132 168.692 35.2835C160.076 37.1022 157.809 36.7991 141.937 41.4974C160.227 40.2849 178.82 36.496 196.959 35.2835V35.435Z" fill="#466C50"/>
<path d="M144.008 126.265C146.427 120.96 150.916 118.808 157.295 116.019C165.246 113.806 169.13 112.548 178.351 109.654C189.386 107.289 193.784 106.804 198.742 105.804C207.509 104.592 216.277 103.228 225.195 102.773C274.472 100.196 324.203 124.143 352.923 164.306C354.586 166.731 356.4 169.762 355.191 172.49C354.737 173.703 353.679 174.612 352.621 175.37C340.377 185.524 325.11 191.435 309.541 194.466C293.972 197.498 278.1 197.952 262.229 197.952C255.578 197.952 248.927 197.952 242.427 196.891C235.927 195.83 229.579 193.86 223.23 191.738C208.114 186.888 192.696 181.887 178.789 174.006C164.883 166.125 152.337 154.909 145.535 140.511C143.419 135.964 141.907 130.66 143.872 126.113L144.023 126.265H144.008ZM212.331 152.636C221.099 156.122 230.017 158.85 239.238 161.123C248.458 163.245 257.83 164.912 267.353 166.276C276.12 167.489 278.085 168.55 294.712 169.611C277.178 164.458 258.283 161.73 240.749 156.577C231.831 154 230.319 153.697 221.552 151.12C214.448 148.999 205.832 146.119 191.018 139.753C203.867 149.302 207.948 150.817 212.331 152.636Z" fill="#466C50"/>
<mask id="mask1_629_4716" style="mask-type:luminance" maskUnits="userSpaceOnUse" x="142" y="102" width="214" height="96">
<path d="M144.008 126.265C146.427 120.96 150.916 118.808 157.295 116.019C165.246 113.806 169.13 112.548 178.351 109.654C189.386 107.289 193.784 106.804 198.742 105.804C207.509 104.592 216.277 103.228 225.195 102.773C274.472 100.196 324.203 124.143 352.923 164.306C354.586 166.731 356.4 169.762 355.191 172.49C354.737 173.703 353.679 174.612 352.621 175.37C340.377 185.524 325.11 191.435 309.541 194.466C293.972 197.498 278.1 197.952 262.229 197.952C255.578 197.952 248.927 197.952 242.427 196.891C235.927 195.83 229.579 193.86 223.23 191.738C208.114 186.888 192.696 181.887 178.789 174.006C164.883 166.125 152.337 154.909 145.535 140.511C143.419 135.964 141.907 130.66 143.872 126.113L144.023 126.265H144.008ZM212.331 152.636C221.099 156.122 230.017 158.85 239.238 161.123C248.458 163.245 257.83 164.912 267.353 166.276C276.12 167.489 278.085 168.55 294.712 169.611C277.178 164.458 258.283 161.73 240.749 156.577C231.831 154 230.319 153.697 221.552 151.12C214.448 148.999 205.832 146.119 191.018 139.753C203.867 149.302 207.948 150.817 212.331 152.636Z" fill="white"/>
</mask>
<g mask="url(#mask1_629_4716)">
<path d="M215.052 154.955C219.798 166.837 227.265 177.401 234.672 187.828C239.267 194.284 243.847 200.741 248.443 207.197C249.38 208.501 250.393 209.88 251.889 210.456C253.159 210.941 254.565 210.759 255.91 210.562C270.285 208.531 284.66 206.5 299.02 204.469C320.258 201.468 341.994 198.316 360.949 188.268C362.431 187.479 363.988 186.555 364.653 185.024C365.62 182.796 364.35 180.265 363.096 178.189C332.532 127.932 280.08 90.0721 221.778 83.1762C201.554 80.7815 207.418 93.9066 207.706 107.229C208.053 123.461 208.975 139.693 215.067 154.955H215.052Z" fill="#294833"/>
</g>
<path d="M89.4547 114.276C121.364 117.004 152.049 122.763 173.453 132.008C112.869 127.158 50.6827 125.188 -11.1106 126.249C-11.1106 123.066 -15.1465 116.095 -9.90135 113.367C-4.65617 110.638 7.05856 111.548 14.3293 111.548C39.7691 111.548 64.816 112.154 89.8477 114.276H89.4396H89.4547Z" fill="#472D22"/>
<mask id="mask2_629_4716" style="mask-type:luminance" maskUnits="userSpaceOnUse" x="-13" y="111" width="187" height="22">
<path d="M89.4547 114.276C121.364 117.004 152.049 122.763 173.453 132.008C112.869 127.158 50.6827 125.188 -11.1106 126.249C-11.1106 123.066 -15.1465 116.095 -9.90135 113.367C-4.65617 110.638 7.05856 111.548 14.3293 111.548C39.7691 111.548 64.816 112.154 89.8477 114.276H89.4396H89.4547Z" fill="white"/>
</mask>
<g mask="url(#mask2_629_4716)">
<path d="M143.719 127.037C158.215 128.249 173.875 129.75 182.99 134.145C161.919 137.51 137.885 136.191 115.211 134.963C68.6544 132.448 21.8106 130.583 -25.1995 129.901C-27.6029 129.871 -24.3681 120.793 -18.7601 119.823C-9.69067 118.246 7.43552 119.398 17.1852 119.565C44.3029 119.989 71.2241 121.505 97.8581 123.43C113.201 124.536 128.468 125.779 143.719 127.052V127.037Z" fill="#341D11"/>
</g>
<path d="M20.6784 81.4784C0.559193 81.4784 -15.7507 65.1253 -15.7507 44.9526C-15.7507 24.7799 0.559193 8.42676 20.6784 8.42676C40.7976 8.42676 57.1074 24.7799 57.1074 44.9526C57.1074 65.1253 40.7976 81.4784 20.6784 81.4784Z" fill="#933B3C"/>
<path d="M18.3796 55.0613C7.61036 55.0613 -1.11982 46.308 -1.11982 35.5102C-1.11982 24.7123 7.61036 15.959 18.3796 15.959C29.1488 15.959 37.8789 24.7123 37.8789 35.5102C37.8789 46.308 29.1488 55.0613 18.3796 55.0613Z" fill="#B35653"/>
<path d="M106.973 119.187C93.608 119.187 82.7731 108.323 82.7731 94.9219C82.7731 81.5209 93.608 70.6572 106.973 70.6572C120.339 70.6572 131.174 81.5209 131.174 94.9219C131.174 108.323 120.339 119.187 106.973 119.187Z" fill="#933B3C"/>
<path d="M112.294 104.273C105.139 104.273 99.3396 98.458 99.3396 91.2845C99.3396 84.1111 105.139 78.2959 112.294 78.2959C119.448 78.2959 125.248 84.1111 125.248 91.2845C125.248 98.458 119.448 104.273 112.294 104.273Z" fill="#B35653"/>
<path d="M35.3703 143.784C38.983 139.207 43.8503 138.177 50.6978 137.01C58.9359 136.752 63.0171 136.464 72.661 135.843C83.9374 136.176 88.3361 136.752 93.3696 136.964C102.167 137.874 111.01 138.647 119.777 140.329C168.253 149.574 210.88 184.69 229.261 230.537C230.303 233.296 231.346 236.66 229.517 239.024C228.792 240.101 227.552 240.722 226.343 241.207C212.044 248.148 195.809 250.255 179.968 249.482C164.127 248.709 148.603 245.375 133.185 241.586C126.73 239.994 120.261 238.418 114.199 235.842C108.138 233.265 102.439 229.84 96.7707 226.263C83.242 217.943 69.4413 209.41 57.8022 198.452C46.163 187.479 36.64 173.596 33.4355 157.986C32.453 153.06 32.2414 147.558 35.2343 143.603L35.3401 143.784H35.3703ZM95.4858 185.676C103.18 191.147 111.191 195.921 119.611 200.331C128.06 204.59 136.767 208.44 145.7 212.032C153.923 215.305 155.586 216.791 171.488 221.792C155.677 212.608 137.976 205.454 122.165 196.27C114.108 191.647 112.718 190.98 104.812 186.388C98.4183 182.629 90.7243 177.779 77.8457 168.064C88.064 180.401 91.6615 182.841 95.5009 185.66L95.4858 185.676Z" fill="#466C50"/>
<mask id="mask3_629_4716" style="mask-type:luminance" maskUnits="userSpaceOnUse" x="32" y="135" width="199" height="115">
<path d="M35.3703 143.784C38.983 139.207 43.8503 138.177 50.6978 137.01C58.9359 136.752 63.0171 136.464 72.661 135.843C83.9374 136.176 88.3361 136.752 93.3696 136.964C102.167 137.874 111.01 138.647 119.777 140.329C168.253 149.574 210.88 184.69 229.261 230.537C230.303 233.296 231.346 236.66 229.517 239.024C228.792 240.101 227.552 240.722 226.343 241.207C212.044 248.148 195.809 250.255 179.968 249.482C164.127 248.709 148.603 245.375 133.185 241.586C126.73 239.994 120.261 238.418 114.199 235.842C108.138 233.265 102.439 229.84 96.7707 226.263C83.242 217.943 69.4413 209.41 57.8022 198.452C46.163 187.479 36.64 173.596 33.4355 157.986C32.453 153.06 32.2414 147.558 35.2343 143.603L35.3401 143.784H35.3703ZM95.4858 185.676C103.18 191.147 111.191 195.921 119.611 200.331C128.06 204.59 136.767 208.44 145.7 212.032C153.923 215.305 155.586 216.791 171.488 221.792C155.677 212.608 137.976 205.454 122.165 196.27C114.108 191.647 112.718 190.98 104.812 186.388C98.4183 182.629 90.7243 177.779 77.8457 168.064C88.064 180.401 91.6615 182.841 95.5009 185.66L95.4858 185.676Z" fill="white"/>
</mask>
<g mask="url(#mask3_629_4716)">
<path d="M97.5863 188.585C99.3699 201.255 104.131 213.289 108.863 225.187C111.795 232.552 114.712 239.918 117.645 247.284C118.234 248.784 118.9 250.361 120.23 251.27C121.348 252.043 122.754 252.195 124.114 252.331C138.55 253.786 153.001 255.241 167.436 256.696C188.78 258.848 210.637 260.97 231.437 255.726C233.054 255.317 234.792 254.786 235.805 253.452C237.271 251.513 236.636 248.754 235.911 246.435C218.15 190.328 176.158 141.056 121.167 120.459C102.091 113.321 104.676 127.461 101.788 140.465C98.2816 156.318 95.334 172.308 97.6165 188.57L97.5863 188.585Z" fill="#294833"/>
</g>
<path d="M22.598 128.295C33.5569 133.796 43.3368 142.117 48.9297 153.014C28.0548 142.905 5.91018 135.433 -16.8088 130.962C-16.0531 127.87 -15.8717 120.732 -13.3171 118.549C-10.7625 116.367 -6.72662 118.292 -4.08136 118.943C5.1695 121.217 14.1332 124.036 22.7341 128.325L22.5829 128.295H22.598Z" fill="#472D22"/>
<mask id="mask4_629_4716" style="mask-type:luminance" maskUnits="userSpaceOnUse" x="-17" y="117" width="66" height="37">
<path d="M22.598 128.295C33.5569 133.796 43.3368 142.117 48.9297 153.014C28.0548 142.905 5.91018 135.433 -16.8088 130.962C-16.0531 127.87 -15.8717 120.732 -13.3171 118.549C-10.7625 116.367 -6.72662 118.292 -4.08136 118.943C5.1695 121.217 14.1332 124.036 22.7341 128.325L22.5829 128.295H22.598Z" fill="white"/>
</mask>
<g mask="url(#mask4_629_4716)">
<path d="M39.3011 145.527C44.2893 147.998 49.6252 150.847 51.8926 155.939C43.4277 157.334 35.0082 153.893 27.0573 150.68C10.7323 144.072 -5.86481 138.101 -22.7945 133.236C-23.6561 132.993 -20.3306 124.461 -18.0633 124.021C-14.3901 123.294 -8.43451 125.946 -4.92765 126.976C4.83715 129.811 14.2543 133.691 23.49 137.919C28.8108 140.359 34.056 142.936 39.3011 145.542V145.527Z" fill="#341D11"/>
</g>
</g>
<defs>
<clipPath id="clip0_629_4716">
<rect width="391" height="259" fill="white" transform="matrix(-1 0 0 1 365 0)"/>
</clipPath>
</defs>
</svg>
