<svg width="455" height="444" viewBox="0 0 455 444" fill="none" xmlns="http://www.w3.org/2000/svg">
<g clip-path="url(#clip0_629_4674)">
<path d="M0.000640869 186.725C0.254364 185.965 0.888626 185.331 1.39607 184.824C11.6716 175.319 26.0067 172.024 39.7075 169.616C48.4608 168.096 59.2438 165.941 68.1239 166.828C77.7652 167.842 79.0338 167.716 92.1003 171.391C105.167 175.066 105.04 175.573 110.875 179.121C125.972 188.246 140.307 199.271 150.329 213.845C151.978 216.253 153.627 219.041 153.119 221.956C152.612 224.871 150.075 226.899 147.665 228.673C136.374 236.403 122.8 244.261 109.226 245.275C93.7494 246.542 83.347 248.189 65.5867 243.247C50.6174 239.065 37.2972 230.32 25.3725 220.435C19.5369 215.62 13.9551 210.17 9.38821 204.087C6.21674 199.778 3.55269 194.963 1.0155 190.274C0.38121 189.133 -0.253098 187.992 0.127472 186.725H0.000640869ZM52.1397 209.917C59.6244 212.578 67.2359 214.479 74.9743 216C82.8396 217.521 90.7048 218.534 98.6969 219.422C106.055 220.182 107.831 220.942 121.658 221.322C106.816 217.647 90.9586 216 75.9892 212.325C68.5045 210.424 67.2359 210.297 59.6244 208.396C53.5352 206.875 46.3042 204.721 33.6183 199.905C44.655 207.382 48.2071 208.523 51.886 209.917H52.1397Z" fill="#395D44"/>
<path d="M265.389 19.263C266.15 13.9403 267.419 8.7444 268.814 3.54845C269.068 2.40788 269.576 1.01384 270.59 0.380191C271.352 0 272.113 0 273.001 0C286.955 0.253461 299.641 7.73055 311.312 15.4611C318.67 20.4036 327.931 26.3599 333.766 33.0766C340.109 40.5537 341.251 43.0883 347.848 52.9733C351.653 58.5494 354.317 64.886 356.093 71.476C360.787 88.4578 363.451 106.327 360.66 123.689C360.153 126.604 359.392 129.645 356.981 131.419C354.571 133.194 351.273 132.94 348.355 132.433C334.908 130.152 319.685 126.604 309.029 117.986C296.977 108.228 288.351 102.271 278.963 86.4301C271.098 73.1234 267.419 57.5356 265.643 42.2012C264.755 34.5974 264.374 26.8668 265.389 19.263ZM295.709 53.4802C299.007 60.5771 303.066 67.4206 307.506 74.0106C311.946 80.6005 316.767 87.0638 321.841 93.2736C326.535 98.9764 327.17 100.877 336.684 110.889C328.819 97.7091 318.797 85.2896 310.932 72.2363C306.999 65.6463 306.238 64.5058 302.178 57.9158C299.007 52.5931 295.328 45.8764 289.873 33.5836C292.283 46.7635 293.932 50.0585 295.709 53.607V53.4802Z" fill="#466C50"/>
<path d="M404.046 159.224C400.367 157.83 396.688 156.436 393.136 154.789C380.577 149.339 372.712 144.523 361.168 136.92C358.25 135.019 353.049 129.949 350.004 126.147C363.198 131.217 368.526 133.244 384.129 137.3C399.733 141.355 402.651 142.496 412.038 144.143C416.986 145.03 421.933 145.917 426.881 146.678C439.947 148.579 453.268 149.593 466.461 149.339C466.207 154.789 466.968 161.379 465.7 166.701C464.431 172.024 459.991 170.376 456.185 170.376C444.768 170.376 433.478 168.349 422.568 165.307C411.658 162.266 410.136 161.379 404.046 159.097V159.224Z" fill="#472D22"/>
<mask id="mask0_629_4674" style="mask-type:luminance" maskUnits="userSpaceOnUse" x="350" y="126" width="117" height="45">
<path d="M404.046 159.224C400.367 157.83 396.688 156.436 393.136 154.789C380.577 149.339 372.712 144.523 361.168 136.92C358.25 135.019 353.049 129.949 350.004 126.147C363.198 131.217 368.526 133.244 384.129 137.3C399.733 141.355 402.651 142.496 412.038 144.143C416.986 145.03 421.933 145.917 426.881 146.678C439.947 148.579 453.268 149.593 466.461 149.339C466.207 154.789 466.968 161.379 465.7 166.701C464.431 172.024 459.991 170.376 456.185 170.376C444.768 170.376 433.478 168.349 422.568 165.307C411.658 162.266 410.136 161.379 404.046 159.097V159.224Z" fill="white"/>
</mask>
<g mask="url(#mask0_629_4674)">
<path d="M348.101 124.931C357.133 138.44 369.426 149.795 383.773 157.45C398.108 165.117 414.473 169.033 430.724 168.399C431.523 168.374 432.322 168.323 433.109 168.475C434.124 168.665 435.05 169.16 435.963 169.654C444.222 174.115 453.406 178.994 462.502 176.687C464.925 176.066 467.335 174.85 468.68 172.759C474.845 163.191 457.504 164.496 452.899 163.976C443.778 162.95 434.707 161.366 425.776 159.249C408.079 155.067 390.877 148.807 374.639 140.62C365.455 135.994 356.575 130.748 348.113 124.931H348.101Z" fill="#341D11"/>
</g>
<path d="M202.086 365.288C184.361 365.288 169.991 350.933 169.991 333.225C169.991 315.517 184.361 301.162 202.086 301.162C219.812 301.162 234.182 315.517 234.182 333.225C234.182 350.933 219.812 365.288 202.086 365.288Z" fill="#933B3C"/>
<path d="M257.016 315.609C239.29 315.609 224.921 301.254 224.921 283.546C224.921 265.838 239.29 251.483 257.016 251.483C274.742 251.483 289.111 265.838 289.111 283.546C289.111 301.254 274.742 315.609 257.016 315.609Z" fill="#933B3C"/>
<path d="M204.75 226.011C187.654 226.011 173.796 212.167 173.796 195.089C173.796 178.011 187.654 164.167 204.75 164.167C221.845 164.167 235.703 178.011 235.703 195.089C235.703 212.167 221.845 226.011 204.75 226.011Z" fill="#933B3C"/>
<path d="M256.758 193.447C254.098 177.074 265.228 161.646 281.618 158.988C298.008 156.33 313.452 167.449 316.112 183.823C318.773 200.196 307.643 215.624 291.253 218.282C274.862 220.94 259.419 209.821 256.758 193.447Z" fill="#933B3C"/>
<path d="M391.487 294.698C375.092 294.698 361.802 281.422 361.802 265.044C361.802 248.666 375.092 235.389 391.487 235.389C407.881 235.389 421.172 248.666 421.172 265.044C421.172 281.422 407.881 294.698 391.487 294.698Z" fill="#933B3C"/>
<path d="M428.657 157.323C411.772 157.323 398.084 143.649 398.084 126.781C398.084 109.913 411.772 96.2393 428.657 96.2393C445.542 96.2393 459.23 109.913 459.23 126.781C459.23 143.649 445.542 157.323 428.657 157.323Z" fill="#933B3C"/>
<path d="M431.194 135.399C422.156 135.399 414.829 128.079 414.829 119.05C414.829 110.021 422.156 102.702 431.194 102.702C440.232 102.702 447.559 110.021 447.559 119.05C447.559 128.079 440.232 135.399 431.194 135.399Z" fill="#B35653"/>
<path d="M394.785 273.154C387.289 273.154 381.212 267.083 381.212 259.594C381.212 252.105 387.289 246.034 394.785 246.034C402.282 246.034 408.359 252.105 408.359 259.594C408.359 267.083 402.282 273.154 394.785 273.154Z" fill="#B35653"/>
<path d="M324.253 275.69C309.259 275.69 297.105 263.548 297.105 248.57C297.105 233.591 309.259 221.449 324.253 221.449C339.246 221.449 351.4 233.591 351.4 248.57C351.4 263.548 339.246 275.69 324.253 275.69Z" fill="#7C6931"/>
<path d="M326.282 257.948C316.964 257.948 309.41 250.401 309.41 241.092C309.41 231.784 316.964 224.237 326.282 224.237C335.6 224.237 343.154 231.784 343.154 241.092C343.154 250.401 335.6 257.948 326.282 257.948Z" fill="#8C7637"/>
<path d="M299.768 305.725C255.495 336.9 211.855 367.569 178.618 410.277C182.297 395.957 190.416 383.284 199.042 371.244C226.951 332.592 261.457 298.628 300.53 271.254C330.595 250.217 363.579 235.136 395.547 217.013C314.484 230.447 231.772 240.965 150.963 225.631C148.692 225.149 145.406 221.956 146.802 220.308C148.197 218.661 151.851 218.788 154.134 218.788C230.123 219.928 306.238 212.324 380.578 196.103C454.917 179.881 435.888 183.43 464.178 179.628C463.417 191.667 463.163 203.2 462.402 215.239V215.366C419.016 237.037 376.391 260.355 334.782 285.321C324.76 291.328 315.727 299.16 311.731 310.122C307.735 321.084 307.088 332.959 306.682 344.631C306.327 354.782 306.137 365.047 308.116 375.021C306.378 374.641 305.49 372.74 304.919 371.067C299.312 354.529 299.147 336.71 299.033 319.247C299.007 314.951 299.198 309.995 299.756 305.737L299.768 305.725Z" fill="#472D22"/>
<mask id="mask1_629_4674" style="mask-type:luminance" maskUnits="userSpaceOnUse" x="146" y="179" width="319" height="232">
<path d="M299.768 305.725C255.495 336.9 211.855 367.569 178.618 410.277C182.297 395.957 190.416 383.284 199.042 371.244C226.951 332.592 261.457 298.628 300.53 271.254C330.595 250.217 363.579 235.136 395.547 217.013C314.484 230.447 231.772 240.965 150.963 225.631C148.692 225.149 145.406 221.956 146.802 220.308C148.197 218.661 151.851 218.788 154.134 218.788C230.123 219.928 306.238 212.324 380.578 196.103C454.917 179.881 435.888 183.43 464.178 179.628C463.417 191.667 463.163 203.2 462.402 215.239V215.366C419.016 237.037 376.391 260.355 334.782 285.321C324.76 291.328 315.727 299.16 311.731 310.122C307.735 321.084 307.088 332.959 306.682 344.631C306.327 354.782 306.137 365.047 308.116 375.021C306.378 374.641 305.49 372.74 304.919 371.067C299.312 354.529 299.147 336.71 299.033 319.247C299.007 314.951 299.198 309.995 299.756 305.737L299.768 305.725Z" fill="white"/>
</mask>
<g mask="url(#mask1_629_4674)">
<path d="M364.06 262.459C300.301 297.855 234.804 334.695 189.617 391.901C179.899 404.207 170.88 418.439 171.095 434.102C171.121 435.889 171.298 437.752 172.275 439.248C173.734 441.453 176.55 442.264 179.151 442.758C192.192 445.204 205.626 443.671 218.718 441.491C245.473 437.055 272.024 429.946 296.127 417.513C318.518 405.968 338.359 390.076 357.515 373.715C379.436 354.997 400.837 335.392 418.394 312.53C435.431 290.352 448.612 265.234 457.302 238.671C459.471 232.031 461.361 225.289 462.96 218.496C465.256 208.776 464.926 206.482 455.462 211.741C441.115 219.713 426.767 227.671 412.419 235.63C396.308 244.577 380.184 253.524 364.073 262.471L364.06 262.459Z" fill="#341D11"/>
<path d="M464.52 198.764C460.93 199.144 457.517 200.411 454.117 201.615C434.949 208.421 415.172 213.553 395.103 216.937C357.578 223.248 323.643 244.121 286.359 251.75C274.891 254.094 263.258 255.843 251.561 255.805C236.592 255.755 221.8 252.789 207.123 249.824C189.299 246.224 171.082 242.486 155.466 233.184C151.47 230.801 144.822 226.188 145.951 221.689C170.74 222.729 197.71 227.532 222.511 228.241C231.15 228.482 239.802 228.317 248.441 228.013C301.24 226.163 353.873 219.446 405.442 207.965C422.606 204.137 440.531 199.778 456.718 192.896C459.915 191.54 463.277 190.07 466.727 190.476C467.932 193.834 466.245 195.634 464.532 198.764H464.52Z" fill="#341D11"/>
</g>
<mask id="mask2_629_4674" style="mask-type:luminance" maskUnits="userSpaceOnUse" x="294" y="218" width="60" height="61">
<path d="M353.938 218.914V278.224H294.567V218.914H353.938ZM340.744 225.504C335.924 222.082 330.215 220.181 324.252 220.181C318.29 220.181 308.268 223.73 302.813 229.94C315.499 228.672 328.058 227.278 340.744 225.504Z" fill="white"/>
</mask>
<g mask="url(#mask2_629_4674)">
<path d="M324.253 275.689C309.259 275.689 297.105 263.547 297.105 248.569C297.105 233.59 309.259 221.448 324.253 221.448C339.246 221.448 351.4 233.59 351.4 248.569C351.4 263.547 339.246 275.689 324.253 275.689Z" fill="#7C6931"/>
<path d="M326.282 257.947C316.964 257.947 309.41 250.4 309.41 241.091C309.41 231.783 316.964 224.236 326.282 224.236C335.6 224.236 343.154 231.783 343.154 241.091C343.154 250.4 335.6 257.947 326.282 257.947Z" fill="#8C7637"/>
</g>
<path d="M261.329 279.998C255.935 279.998 251.561 275.629 251.561 270.24C251.561 264.85 255.935 260.481 261.329 260.481C266.724 260.481 271.098 264.85 271.098 270.24C271.098 275.629 266.724 279.998 261.329 279.998Z" fill="#B35653"/>
<path d="M288.477 187.485C282.521 187.485 277.694 182.662 277.694 176.713C277.694 170.763 282.521 165.94 288.477 165.94C294.432 165.94 299.26 170.763 299.26 176.713C299.26 182.662 294.432 187.485 288.477 187.485Z" fill="#B35653"/>
<path d="M205.131 195.216C199.456 195.216 194.855 190.62 194.855 184.951C194.855 179.281 199.456 174.686 205.131 174.686C210.806 174.686 215.406 179.281 215.406 184.951C215.406 190.62 210.806 195.216 205.131 195.216Z" fill="#B35653"/>
<path d="M207.669 336.774C199.752 336.774 193.334 330.362 193.334 322.453C193.334 314.544 199.752 308.133 207.669 308.133C215.586 308.133 222.004 314.544 222.004 322.453C222.004 330.362 215.586 336.774 207.669 336.774Z" fill="#B35653"/>
</g>
<defs>
<clipPath id="clip0_629_4674">
<rect width="470" height="444" fill="white" transform="matrix(-1 0 0 1 470 0)"/>
</clipPath>
</defs>
</svg>
