<svg width="248" height="192" viewBox="0 0 248 192" fill="none" xmlns="http://www.w3.org/2000/svg">
<g clip-path="url(#clip0_629_4766)">
<path d="M31.1042 59.559C35.9564 56.9297 40.9329 54.4257 46.0339 52.5476C51.6325 50.4191 57.48 49.0419 63.3274 47.6646C73.2805 45.2858 83.2336 42.9069 93.4355 41.9053C81.4918 47.9151 69.6725 54.05 57.8532 60.185C50.6372 63.9411 43.2968 67.8225 36.5784 72.455C22.8929 81.4947 21.8603 82.3211 12.0316 87.9552C6.93061 90.8349 -1.61661 97.7462 -4.85136 102.629C-3.98047 101.252 -4.85136 96.1185 -4.85136 94.3657V86.1022C-4.72695 80.5932 -2.86075 80.0924 1.61815 77.0875C11.0736 70.8273 20.9023 65.068 30.8554 59.6842L31.1042 59.559Z" fill="#472D22"/>
<mask id="mask0_629_4766" style="mask-type:luminance" maskUnits="userSpaceOnUse" x="-5" y="41" width="99" height="62">
<path d="M31.1042 59.559C35.9564 56.9297 40.9329 54.4257 46.0339 52.5476C51.6325 50.4191 57.48 49.0419 63.3274 47.6646C73.2805 45.2858 83.2336 42.9069 93.4355 41.9053C81.4918 47.9151 69.6725 54.05 57.8532 60.185C50.6372 63.9411 43.2968 67.8225 36.5784 72.455C22.8929 81.4947 21.8603 82.3211 12.0316 87.9552C6.93061 90.8349 -1.61661 97.7462 -4.85136 102.629C-3.98047 101.252 -4.85136 96.1185 -4.85136 94.3657V86.1022C-4.72695 80.5932 -2.86075 80.0924 1.61815 77.0875C11.0736 70.8273 20.9023 65.068 30.8554 59.6842L31.1042 59.559Z" fill="white"/>
</mask>
<g mask="url(#mask0_629_4766)">
<path d="M27.1236 72.1916C29.4751 70.6641 31.8265 69.1366 34.1779 67.6091C36.8652 65.8688 39.5526 64.1159 42.3021 62.4507C58.7247 52.4845 76.9514 45.5482 95.8125 42.0801C84.6775 50.4186 71.6887 55.8024 59.4837 62.4633C43.8946 70.9646 29.5621 81.5318 14.8937 91.498C11.6092 93.7266 -3.65636 106.535 -7.52563 103.956C-11.905 101.039 1.12114 90.9471 2.99979 89.3695C10.6015 83.0342 18.8625 77.5753 27.1361 72.1791L27.1236 72.1916Z" fill="#341D11"/>
</g>
<path d="M94.3052 29.2728C105.876 18.6305 119.81 10.8679 134.74 5.85972C143.2 3.10524 151.909 1.22718 160.742 0.475962C190.353 -2.15332 220.585 6.23533 245.841 22.011C246.463 22.3866 247.085 22.7622 247.459 23.3883C248.454 25.0159 247.21 27.0192 245.966 28.3964C225.935 51.9347 195.205 64.0795 164.599 67.5852C142.702 70.2145 119.686 68.712 99.655 59.4469C93.8076 56.8177 85.0986 51.9347 83.2324 45.0485C81.615 39.0387 90.5728 32.6533 94.4296 29.0224L94.3052 29.2728ZM167.585 29.2728C175.174 28.772 176.418 28.5216 184.008 28.0208C190.104 27.6452 197.569 27.52 210.757 28.2712C198.191 24.5151 194.583 24.3899 190.602 24.2647C182.888 24.0143 175.174 24.3899 167.461 25.2663C159.622 26.1427 151.909 27.52 144.32 29.1476C137.228 30.6501 135.362 30.3997 122.298 34.281C137.352 33.2794 152.655 30.1493 167.585 29.1476V29.2728Z" fill="#466C50"/>
<path d="M36.6273 122.199C38.6179 117.817 42.313 116.039 47.5632 113.736C54.1074 111.908 57.3048 110.868 64.8941 108.477C73.9763 106.524 77.5967 106.123 81.6775 105.297C88.8935 104.295 96.1095 103.168 103.45 102.793C144.009 100.664 184.941 120.447 208.58 153.626C209.948 155.629 211.441 158.133 210.446 160.387C210.073 161.388 209.202 162.139 208.331 162.765C198.253 171.154 185.687 176.037 172.873 178.541C160.058 181.045 146.995 181.421 133.931 181.421C128.457 181.421 122.983 181.421 117.633 180.544C112.283 179.668 107.058 178.04 101.833 176.287C89.3912 172.281 76.7009 168.149 65.2549 161.639C53.8088 155.128 43.4825 145.863 37.8838 133.969C36.142 130.212 34.8979 125.83 36.5153 122.074L36.6397 122.199H36.6273ZM92.8623 143.985C100.078 146.865 107.419 149.118 115.008 150.996C122.597 152.749 130.311 154.126 138.149 155.253C145.365 156.255 146.982 157.131 160.668 158.008C146.236 153.751 130.684 151.497 116.252 147.24C108.912 145.112 107.668 144.861 100.452 142.733C94.6041 140.98 87.5125 138.601 75.32 133.343C85.8951 141.23 89.2543 142.482 92.8623 143.985Z" fill="#466C50"/>
<mask id="mask1_629_4766" style="mask-type:luminance" maskUnits="userSpaceOnUse" x="35" y="102" width="176" height="80">
<path d="M36.6273 122.199C38.6179 117.817 42.313 116.039 47.5632 113.736C54.1074 111.908 57.3048 110.868 64.8941 108.477C73.9763 106.524 77.5967 106.123 81.6775 105.297C88.8935 104.295 96.1095 103.168 103.45 102.793C144.009 100.664 184.941 120.447 208.58 153.626C209.948 155.629 211.441 158.133 210.446 160.387C210.073 161.388 209.202 162.139 208.331 162.765C198.253 171.154 185.687 176.037 172.873 178.541C160.058 181.045 146.995 181.421 133.931 181.421C128.457 181.421 122.983 181.421 117.633 180.544C112.283 179.668 107.058 178.04 101.833 176.287C89.3912 172.281 76.7009 168.149 65.2549 161.639C53.8088 155.128 43.4825 145.863 37.8838 133.969C36.142 130.212 34.8979 125.83 36.5153 122.074L36.6397 122.199H36.6273ZM92.8623 143.985C100.078 146.865 107.419 149.118 115.008 150.996C122.597 152.749 130.311 154.126 138.149 155.253C145.365 156.255 146.982 157.131 160.668 158.008C146.236 153.751 130.684 151.497 116.252 147.24C108.912 145.112 107.668 144.861 100.452 142.733C94.6041 140.98 87.5125 138.601 75.32 133.343C85.8951 141.23 89.2543 142.482 92.8623 143.985Z" fill="white"/>
</mask>
<g mask="url(#mask1_629_4766)">
<path d="M95.114 145.901C99.0206 155.717 105.167 164.443 111.263 173.057C115.045 178.391 118.815 183.725 122.597 189.058C123.368 190.135 124.202 191.275 125.434 191.75C126.479 192.151 127.636 192.001 128.743 191.838C140.575 190.16 152.407 188.483 164.226 186.805C181.706 184.326 199.597 181.722 215.198 173.421C216.418 172.769 217.699 172.006 218.246 170.741C219.043 168.901 217.998 166.81 216.965 165.094C191.808 123.577 148.637 92.301 100.65 86.6042C84.0039 84.626 88.8311 95.4687 89.0675 106.474C89.3537 119.883 90.1126 133.293 95.1265 145.901H95.114Z" fill="#294833"/>
</g>
<path d="M23.3895 112.283C33.2182 114.537 42.6736 119.294 49.2676 126.932C30.6055 122.925 11.4458 121.298 -7.58953 122.174C-7.58953 119.545 -8.83369 113.785 -7.21631 111.532C-5.59893 109.278 -1.99093 110.029 0.24852 110.029C8.08659 110.029 15.8003 110.53 23.5139 112.283H23.3895Z" fill="#472D22"/>
<mask id="mask2_629_4766" style="mask-type:luminance" maskUnits="userSpaceOnUse" x="-9" y="109" width="59" height="18">
<path d="M23.3895 112.283C33.2182 114.537 42.6736 119.294 49.2676 126.932C30.6055 122.925 11.4458 121.298 -7.58953 122.174C-7.58953 119.545 -8.83369 113.785 -7.21631 111.532C-5.59893 109.278 -1.99093 110.029 0.24852 110.029C8.08659 110.029 15.8003 110.53 23.5139 112.283H23.3895Z" fill="white"/>
</mask>
<g mask="url(#mask2_629_4766)">
<path d="M40.1101 122.825C44.5766 123.827 49.4038 125.067 52.2031 128.697C45.7087 131.477 38.3061 130.388 31.3265 129.374C16.9816 127.295 2.54956 125.755 -11.9322 125.192C-12.6662 125.167 -11.6709 117.667 -9.94158 116.866C-7.14227 115.564 -1.86713 116.515 1.13124 116.653C9.49186 117.003 17.7778 118.255 25.9767 119.846C30.7044 120.759 35.4072 121.786 40.0976 122.838L40.1101 122.825Z" fill="#341D11"/>
</g>
</g>
<defs>
<clipPath id="clip0_629_4766">
<rect width="260" height="192" fill="white" transform="matrix(-1 0 0 1 247.82 0)"/>
</clipPath>
</defs>
</svg>
