<svg width="103" height="104" viewBox="0 0 103 104" fill="none" xmlns="http://www.w3.org/2000/svg">
<rect width="103" height="104" rx="20" fill="#FBF6F4" fill-opacity="0.8"/>
<mask id="mask0_674_7724" style="mask-type:alpha" maskUnits="userSpaceOnUse" x="0" y="0" width="103" height="104">
<rect width="103" height="104" fill="#D9D9D9" fill-opacity="0.8"/>
</mask>
<g mask="url(#mask0_674_7724)">
<path d="M65.1751 52L32.0638 18.5662C31.4308 17.9277 31.1185 17.16 31.1271 16.263C31.135 15.3653 31.4554 14.5972 32.0885 13.9587C32.7208 13.3196 33.4815 13 34.3706 13C35.2589 13 36.0196 13.3196 36.6526 13.9587L69.426 47.0752C70.1191 47.775 70.6251 48.5554 70.9441 49.4163C71.2631 50.2779 71.4227 51.1391 71.4227 52C71.4227 52.8609 71.2631 53.7221 70.9441 54.5838C70.6251 55.4446 70.1191 56.225 69.426 56.9248L36.6269 90.0413C35.9946 90.6804 35.2382 90.9957 34.3577 90.987C33.4772 90.9791 32.7208 90.6555 32.0885 90.0163C31.4554 89.3779 31.1389 88.6098 31.1389 87.7121C31.1389 86.8151 31.4554 86.047 32.0885 85.4078L65.1751 52Z" fill="#81221A"/>
</g>
</svg>
