<svg width="103" height="104" viewBox="0 0 103 104" fill="none" xmlns="http://www.w3.org/2000/svg">
<rect width="103" height="104" rx="20" transform="matrix(-1 8.74228e-08 8.74228e-08 1 103 0)" fill="#FBF6F4" fill-opacity="0.8"/>
<mask id="mask0_735_3627" style="mask-type:alpha" maskUnits="userSpaceOnUse" x="0" y="0" width="103" height="104">
<rect width="103" height="104" transform="matrix(-1 8.74228e-08 8.74228e-08 1 103 0)" fill="#D9D9D9" fill-opacity="0.8"/>
</mask>
<g mask="url(#mask0_735_3627)">
<path d="M37.8249 52L70.9362 18.5662C71.5692 17.9277 71.8815 17.16 71.8729 16.263C71.865 15.3653 71.5446 14.5972 70.9115 13.9587C70.2792 13.3196 69.5185 13 68.6294 13C67.7411 13 66.9804 13.3196 66.3474 13.9587L33.574 47.0752C32.8809 47.775 32.3749 48.5554 32.0559 49.4163C31.7369 50.2779 31.5773 51.1391 31.5773 52C31.5773 52.8609 31.7369 53.7221 32.0559 54.5838C32.3749 55.4446 32.8809 56.225 33.574 56.9248L66.3731 90.0413C67.0054 90.6804 67.7618 90.9957 68.6423 90.987C69.5228 90.9791 70.2792 90.6555 70.9115 90.0163C71.5446 89.3779 71.8611 88.6098 71.8611 87.7121C71.8611 86.8151 71.5446 86.047 70.9115 85.4078L37.8249 52Z" fill="#81221A"/>
</g>
</svg>
