<svg width="117" height="70" viewBox="0 0 117 70" fill="none" xmlns="http://www.w3.org/2000/svg">
<path d="M2.26918e-05 0H98.6256C103.242 0 107.669 1.83369 110.932 5.09767C114.196 8.36165 116.03 12.7886 116.03 17.4045C116.03 22.0205 114.196 26.4474 110.932 29.7114C107.669 32.9754 103.242 34.809 98.6256 34.809H91.3621C88.5472 45.7574 81.8333 55.302 72.4804 61.6513C63.1276 68.0007 51.779 70.7183 40.5647 69.2941C29.3503 67.8699 19.0413 62.4018 11.5726 53.916C4.10382 45.4303 -0.01115 34.5104 2.26918e-05 23.206V0ZM92.8241 23.206H98.6256C100.164 23.206 101.64 22.5948 102.728 21.5068C103.816 20.4188 104.427 18.9432 104.427 17.4045C104.427 15.8659 103.816 14.3902 102.728 13.3022C101.64 12.2142 100.164 11.603 98.6256 11.603H92.8241V23.206Z" fill="#452C1C"/>
<g clip-path="url(#clip0_795_2300)">
<path d="M48.4935 18.0933L48.4746 40.8777C48.4746 41.5447 48.5879 42.0733 48.8144 42.4634C49.041 42.8535 49.4437 43.1555 50.0226 43.3695C50.6014 43.5708 51.4383 43.7344 52.5332 43.8603V45.3516H37.7526V43.8603C38.8348 43.7344 39.6654 43.5708 40.2443 43.3695C40.8358 43.1555 41.2385 42.8535 41.4524 42.4634C41.679 42.0733 41.7922 41.5447 41.7922 40.8777V22.7936L37.5827 23.964V22.6049C38.904 21.9001 40.1814 21.1576 41.4147 20.3774C42.648 19.5971 43.7806 18.8358 44.8125 18.0933H48.4935ZM53.5903 84.3516H35.8082V80.0476L39.829 76.0457C41.1001 74.9257 42.1635 73.9063 43.0192 72.9877C43.875 72.069 44.5545 71.2132 45.0579 70.4204C45.5739 69.615 45.9451 68.841 46.1717 68.0985C46.3982 67.356 46.5114 66.5947 46.5114 65.8144C46.5114 64.3546 46.071 63.1968 45.1901 62.3411C44.3217 61.4853 43.1451 61.0574 41.6601 61.0574C40.2128 61.0574 38.9984 61.4035 38.0168 62.0957C37.0352 62.7752 36.2927 63.6121 35.7894 64.6063V63.0584C36.2676 61.1455 37.3121 59.5913 38.9229 58.3958C40.5463 57.1877 42.5913 56.5836 45.0579 56.5836C46.6813 56.5836 48.116 56.8982 49.3619 57.5275C50.6077 58.1441 51.583 59.0187 52.2878 60.1513C52.9925 61.2714 53.3449 62.5739 53.3449 64.0589C53.3449 65.5313 52.9988 66.9156 52.3067 68.2118C51.6145 69.508 50.5385 70.7979 49.0787 72.0816C47.6189 73.3652 45.7186 74.7369 43.3779 76.1967L38.2622 79.5757L38.2434 79.0849L53.8546 79.066L53.5903 84.3516ZM44.3406 123.861C42.5536 123.861 40.9868 123.553 39.6402 122.936C38.2937 122.307 37.2429 121.483 36.4878 120.463C35.7453 119.444 35.3741 118.337 35.3741 117.141H37.3561C37.4065 117.921 37.6519 118.626 38.0923 119.255C38.5454 119.872 39.1369 120.369 39.8668 120.747C40.5967 121.124 41.4084 121.313 42.3019 121.313C43.3464 121.313 44.2777 121.08 45.0957 120.614C45.9263 120.149 46.5744 119.494 47.04 118.651C47.5056 117.795 47.7384 116.795 47.7384 115.65C47.7384 113.762 47.0652 112.277 45.7186 111.195C44.3846 110.113 42.5599 109.59 40.2443 109.628V108.023C42.5976 107.734 44.3154 107.193 45.3977 106.4C46.4926 105.595 47.04 104.619 47.04 103.474C47.04 102.455 46.631 101.631 45.813 101.001C45.0076 100.372 43.8938 100.057 42.4718 100.057C40.9994 100.057 39.7032 100.366 38.5831 100.982C37.4757 101.599 36.6199 102.411 36.0159 103.418V101.888C36.3431 100.693 36.9408 99.617 37.8092 98.6605C38.6901 97.7041 39.7787 96.9553 41.0749 96.4142C42.3837 95.8605 43.8561 95.5836 45.4921 95.5836C47.0778 95.5836 48.4809 95.8416 49.7016 96.3576C50.9349 96.8609 51.8977 97.5846 52.5898 98.5284C53.282 99.4597 53.628 100.542 53.628 101.775C53.628 102.908 53.3008 103.908 52.6464 104.777C52.0046 105.645 51.13 106.337 50.0226 106.853C48.9151 107.369 47.6566 107.659 46.2472 107.721V107.401C47.9209 107.35 49.3933 107.652 50.6644 108.307C51.9354 108.961 52.9296 109.873 53.6469 111.044C54.3642 112.214 54.7229 113.542 54.7229 115.027C54.7229 116.386 54.4523 117.613 53.9112 118.708C53.3701 119.79 52.6213 120.721 51.6648 121.502C50.7084 122.269 49.601 122.854 48.3425 123.257C47.0966 123.66 45.7627 123.861 44.3406 123.861ZM38.2811 114.102C39.0614 114.102 39.722 114.372 40.2632 114.914C40.8043 115.455 41.0749 116.134 41.0749 116.952C41.0749 117.707 40.8106 118.349 40.2821 118.878C39.7661 119.406 39.1369 119.671 38.3944 119.671C37.6393 119.671 36.9975 119.431 36.4689 118.953C35.953 118.462 35.695 117.858 35.695 117.141H35.3741C35.3741 116.26 35.6509 115.537 36.2046 114.97C36.7584 114.391 37.4505 114.102 38.2811 114.102ZM46.1339 162.352V156.594H34.0149V153.045L46.7002 135.093H52.1745V152.045H56.082L55.9122 156.594H52.1745V162.352H46.1339ZM46.1528 152.045V138.302H46.7002L36.8653 153.064V152.045H46.1528ZM43.8498 201.861C42.0502 201.861 40.5023 201.559 39.2061 200.955C37.9224 200.351 36.9408 199.565 36.2613 198.596C35.5817 197.627 35.2419 196.601 35.2419 195.519H37.2051C37.2555 196.249 37.5009 196.903 37.9413 197.482C38.3818 198.048 38.967 198.495 39.6969 198.822C40.4268 199.149 41.2511 199.313 42.1698 199.313C43.1639 199.313 44.0637 199.08 44.8692 198.614C45.6872 198.149 46.3353 197.488 46.8135 196.632C47.2917 195.764 47.5308 194.726 47.5308 193.518C47.5308 192.347 47.2917 191.322 46.8135 190.441C46.3353 189.56 45.6934 188.874 44.888 188.383C44.0952 187.892 43.2017 187.647 42.2075 187.647C41.2007 187.647 40.3387 187.855 39.6214 188.27C38.904 188.673 38.3692 189.157 38.0168 189.723L36.1858 189.704L38.9796 174.093H53.3071L53.024 179.398H40.2066L38.0735 188.421L37.9224 187.836C38.2622 187.169 38.7845 186.558 39.4892 186.005C40.2066 185.438 41.0749 184.979 42.0942 184.627C43.1262 184.274 44.2777 184.098 45.5487 184.098C47.1596 184.098 48.6382 184.438 49.9848 185.117C51.3314 185.784 52.4073 186.747 53.2128 188.006C54.0182 189.264 54.4209 190.787 54.4209 192.574C54.4209 194.474 53.9364 196.123 52.9674 197.52C52.0109 198.904 50.7273 199.974 49.1165 200.729C47.5182 201.484 45.7627 201.861 43.8498 201.861ZM38.0735 192.517C38.8663 192.517 39.5333 192.781 40.0744 193.31C40.6156 193.826 40.8861 194.487 40.8861 195.292C40.8861 196.047 40.6218 196.689 40.0933 197.218C39.5773 197.733 38.9418 197.991 38.1867 197.991C37.4442 197.991 36.815 197.759 36.299 197.293C35.7831 196.815 35.5251 196.223 35.5251 195.519H35.2419C35.2419 194.65 35.5062 193.933 36.0348 193.367C36.5759 192.8 37.2555 192.517 38.0735 192.517ZM34.1659 229.063C34.1911 226.722 34.6693 224.552 35.6006 222.551C36.5444 220.537 37.891 218.794 39.6402 217.322C41.3895 215.837 43.4974 214.704 45.964 213.924C48.4306 213.144 51.1992 212.798 54.2699 212.886L54.2887 214.339C51.4069 214.566 48.9717 215.352 46.9834 216.699C45.0076 218.045 43.51 219.851 42.4907 222.116C41.4713 224.382 40.9616 226.999 40.9616 229.969V232.008H41.0938C41.0938 233.355 41.2511 234.544 41.5657 235.576C41.8929 236.608 42.3585 237.413 42.9626 237.992C43.5666 238.558 44.2966 238.841 45.1523 238.841C45.9829 238.841 46.6939 238.602 47.2854 238.124C47.8895 237.646 48.3488 236.96 48.6634 236.067C48.9906 235.16 49.1542 234.084 49.1542 232.839C49.1542 230.926 48.8018 229.428 48.0971 228.346C47.405 227.251 46.4485 226.704 45.2278 226.704C44.0071 226.704 43.0129 227.182 42.2453 228.138C41.4776 229.082 41.0938 230.372 41.0938 232.008H40.5275C40.5275 230.234 40.8421 228.698 41.4713 227.402C42.1131 226.106 43.0192 225.105 44.1896 224.401C45.36 223.683 46.7443 223.325 48.3425 223.325C49.8652 223.325 51.1929 223.658 52.3255 224.325C53.4707 224.979 54.358 225.904 54.9872 227.1C55.629 228.295 55.9499 229.705 55.9499 231.328C55.9499 232.801 55.6793 234.122 55.1382 235.293C54.5971 236.463 53.8357 237.463 52.8541 238.294C51.8851 239.125 50.7462 239.76 49.4374 240.201C48.1286 240.641 46.7002 240.861 45.1523 240.861C42.9626 240.861 41.0371 240.414 39.376 239.521C37.7274 238.627 36.4438 237.306 35.5251 235.557C34.6064 233.808 34.1533 231.643 34.1659 229.063ZM45.1146 279.352H37.9791V279.012C39.4389 276.067 40.9176 273.305 42.4151 270.725C43.9127 268.132 45.4292 265.71 46.9645 263.457C48.4998 261.192 50.0603 259.078 51.646 257.115V257.417H36.0347L36.3179 252.093H53.477V257.341C52.4325 259.493 51.4383 261.714 50.4945 264.005C49.5632 266.282 48.6508 268.686 47.7573 271.216C46.8638 273.745 45.9829 276.457 45.1146 279.352ZM55.4969 310.895C55.4969 312.456 55.0438 313.834 54.1377 315.029C53.2442 316.225 51.9983 317.162 50.4001 317.842C48.8144 318.521 46.9834 318.861 44.9069 318.861C42.7172 318.861 40.8295 318.591 39.2438 318.05C37.6582 317.508 36.4375 316.747 35.5817 315.765C34.7259 314.771 34.2981 313.607 34.2981 312.273C34.2981 311.09 34.619 310.046 35.2608 309.14C35.9152 308.221 36.8465 307.472 38.0546 306.893C39.2753 306.314 40.7414 305.943 42.4529 305.78L43.4345 306.119C42.3648 306.598 41.5531 307.321 40.9994 308.29C40.4457 309.259 40.1688 310.392 40.1688 311.688C40.1688 312.682 40.3639 313.569 40.754 314.35C41.1441 315.117 41.6978 315.721 42.4151 316.162C43.1451 316.602 44.0134 316.823 45.0202 316.823C46.4171 316.823 47.5308 316.464 48.3614 315.747C49.2046 315.029 49.6261 314.085 49.6261 312.915C49.6261 312.147 49.4625 311.455 49.1353 310.839C48.8081 310.222 48.2733 309.637 47.5308 309.083C46.8009 308.529 45.8319 307.963 44.6238 307.384L41.5657 305.912C40.2191 305.282 39.0551 304.597 38.0735 303.854C37.1044 303.099 36.3557 302.256 35.8271 301.325C35.3111 300.393 35.0531 299.342 35.0531 298.172C35.0531 296.586 35.4747 295.234 36.3179 294.114C37.1611 292.981 38.3314 292.113 39.829 291.509C41.3266 290.892 43.0633 290.584 45.039 290.584C47.1155 290.584 48.8836 290.854 50.3435 291.395C51.8033 291.924 52.917 292.66 53.6847 293.604C54.4523 294.535 54.8362 295.592 54.8362 296.775C54.8236 297.858 54.5027 298.782 53.8734 299.55C53.2442 300.305 52.3696 300.916 51.2496 301.381C50.1295 301.834 48.8333 302.136 47.3609 302.287L46.3604 301.891C47.2036 301.438 47.8517 300.827 48.3048 300.06C48.7578 299.292 48.9843 298.386 48.9843 297.342C48.9843 296.435 48.8207 295.63 48.4935 294.925C48.1789 294.208 47.7196 293.648 47.1155 293.245C46.5114 292.83 45.7815 292.622 44.9258 292.622C43.6799 292.622 42.7046 292.937 41.9999 293.566C41.2951 294.195 40.9427 295.02 40.9427 296.039C40.9427 297.046 41.2825 297.92 41.9621 298.663C42.6417 299.393 43.6925 300.098 45.1146 300.777L48.1915 302.231C49.8023 302.973 51.1489 303.76 52.2312 304.59C53.3134 305.408 54.1251 306.333 54.6663 307.365C55.22 308.385 55.4969 309.561 55.4969 310.895ZM55.6856 341.382C55.6605 343.722 55.176 345.9 54.2321 347.913C53.3008 349.914 51.9606 351.657 50.2113 353.142C48.4621 354.614 46.3541 355.741 43.8876 356.521C41.421 357.301 38.6524 357.647 35.5817 357.559L35.5628 356.106C38.4447 355.879 40.8735 355.093 42.8493 353.746C44.8377 352.4 46.3416 350.594 47.3609 348.328C48.3803 346.063 48.8899 343.446 48.8899 340.476V338.437H48.7578C48.7578 337.078 48.5942 335.888 48.267 334.869C47.9524 333.837 47.493 333.038 46.889 332.472C46.2849 331.893 45.555 331.603 44.6993 331.603C43.8687 331.603 43.1514 331.843 42.5473 332.321C41.9558 332.799 41.4965 333.485 41.1693 334.378C40.8547 335.272 40.6974 336.348 40.6974 337.606C40.6974 339.507 41.0434 341.004 41.7356 342.099C42.4403 343.194 43.403 343.741 44.6238 343.741C45.8445 343.741 46.8386 343.269 47.6063 342.326C48.374 341.369 48.7578 340.073 48.7578 338.437H49.3241C49.3241 340.211 49.0032 341.747 48.3614 343.043C47.7322 344.339 46.8324 345.346 45.662 346.063C44.5042 346.768 43.1199 347.12 41.5091 347.12C39.9863 347.12 38.6524 346.793 37.5072 346.139C36.3745 345.472 35.4873 344.54 34.8455 343.345C34.2163 342.149 33.9017 340.74 33.9017 339.116C33.9017 337.644 34.1722 336.323 34.7134 335.152C35.2545 333.982 36.0096 332.981 36.9786 332.151C37.9602 331.32 39.1054 330.685 40.4142 330.244C41.723 329.804 43.1514 329.584 44.6993 329.584C46.889 329.584 48.8081 330.03 50.4567 330.924C52.1179 331.817 53.4078 333.139 54.3265 334.888C55.2452 336.637 55.6982 338.802 55.6856 341.382ZM35.7413 369.093L35.7224 391.878C35.7224 392.545 35.8357 393.073 36.0622 393.463C36.2888 393.854 36.6915 394.156 37.2704 394.369C37.8492 394.571 38.6861 394.734 39.781 394.86V396.352H25.0004V394.86C26.0826 394.734 26.9132 394.571 27.4921 394.369C28.0836 394.156 28.4863 393.854 28.7002 393.463C28.9268 393.073 29.04 392.545 29.04 391.878V373.794L24.8305 374.964V373.605C26.1518 372.9 27.4292 372.158 28.6625 371.377C29.8958 370.597 31.0284 369.836 32.0603 369.093H35.7413ZM52.9399 396.861C51.3416 396.861 49.844 396.547 48.4472 395.917C47.0628 395.276 45.8484 394.344 44.8039 393.124C43.7594 391.903 42.9414 390.424 42.3499 388.688C41.771 386.938 41.4816 384.95 41.4816 382.722C41.4816 380.495 41.771 378.507 42.3499 376.757C42.9414 374.995 43.7594 373.51 44.8039 372.302C45.861 371.082 47.1006 370.157 48.5227 369.527C49.9447 368.898 51.4801 368.584 53.1286 368.584C54.7269 368.584 56.2182 368.905 57.6025 369.546C58.9994 370.176 60.2201 371.101 61.2646 372.321C62.3091 373.542 63.1208 375.027 63.6997 376.776C64.2912 378.513 64.5869 380.495 64.5869 382.722C64.5869 384.95 64.2912 386.945 63.6997 388.706C63.1208 390.456 62.3028 391.941 61.2457 393.161C60.2012 394.369 58.9679 395.288 57.5458 395.917C56.1238 396.547 54.5885 396.861 52.9399 396.861ZM53.1475 394.841C53.8271 394.841 54.4249 394.634 54.9408 394.218C55.4568 393.791 55.891 393.117 56.2433 392.199C56.5957 391.267 56.86 390.053 57.0362 388.555C57.2249 387.045 57.3193 385.214 57.3193 383.062C57.3067 380.898 57.2061 379.029 57.0173 377.456C56.8285 375.883 56.5454 374.593 56.1678 373.586C55.7903 372.567 55.3309 371.818 54.7898 371.34C54.2487 370.849 53.6257 370.603 52.921 370.603C52.2414 370.603 51.6437 370.817 51.1277 371.245C50.6117 371.661 50.1775 372.334 49.8252 373.265C49.4728 374.184 49.2022 375.398 49.0135 376.908C48.8373 378.406 48.7492 380.231 48.7492 382.383C48.7492 384.547 48.8436 386.416 49.0323 387.989C49.2337 389.562 49.5231 390.858 49.9007 391.878C50.2782 392.885 50.7376 393.633 51.2787 394.124C51.8198 394.602 52.4428 394.841 53.1475 394.841Z" fill="#FBF6F4"/>
</g>
<defs>
<clipPath id="clip0_795_2300">
<rect width="63" height="38" fill="white" transform="translate(13.4258 12.3516)"/>
</clipPath>
</defs>
</svg>
