<svg width="24" height="24" viewBox="0 0 24 24" fill="none" xmlns="http://www.w3.org/2000/svg">
<mask id="mask0_602_1643" style="mask-type:alpha" maskUnits="userSpaceOnUse" x="0" y="0" width="24" height="24">
<rect x="24" width="24" height="24" transform="rotate(90 24 0)" fill="#D9D9D9"/>
</mask>
<g mask="url(#mask0_602_1643)">
<path d="M12 15.1865L19.7155 7.47122C19.8628 7.32372 20.04 7.25097 20.247 7.25297C20.4542 7.2548 20.6314 7.32947 20.7788 7.47697C20.9263 7.6243 21 7.80155 21 8.00872C21 8.21572 20.9263 8.39297 20.7788 8.54047L13.1365 16.177C12.975 16.3385 12.7949 16.4564 12.5962 16.5307C12.3974 16.6051 12.1987 16.6422 12 16.6422C11.8013 16.6422 11.6026 16.6051 11.4037 16.5307C11.2051 16.4564 11.025 16.3385 10.8635 16.177L3.22125 8.53447C3.07375 8.38714 3.001 8.21089 3.003 8.00572C3.00483 7.80055 3.0795 7.6243 3.227 7.47697C3.37433 7.32947 3.55158 7.25572 3.75875 7.25572C3.96575 7.25572 4.143 7.32947 4.2905 7.47697L12 15.1865Z" fill="#452C1C"/>
</g>
</svg>
