<svg width="174" height="174" viewBox="0 0 174 174" fill="none" xmlns="http://www.w3.org/2000/svg">
<path d="M69.0032 9.05647C65.981 9.07754 62.9975 9.50711 60.1017 10.3727C57.2287 11.2325 54.582 12.4787 52.1799 14.0658C54.8042 20.7342 61.5036 29.199 69.2639 36.4251C77.3664 43.9703 86.6571 50.3808 92.657 53.2719L92.7274 53.3058L92.7964 53.3408C98.31 56.1734 102.213 60.6315 104.467 65.5494C105.918 68.7161 106.763 72.0329 107.256 75.4049C111.674 71.9588 116.331 69.1993 121.066 67.1966C120.705 60.9741 119.336 54.4491 116.843 47.9156C111.615 34.2131 102.482 23.1817 92.1384 16.4542C84.7043 11.6189 76.7269 9.00278 69.0032 9.05647ZM43.0364 23.4336C41.2988 26.1299 39.8739 29.1361 38.7911 32.401C35.1752 43.3012 35.4685 56.9744 40.6976 70.6776C43.8623 78.9708 48.4587 86.2833 53.887 92.2577C59.2348 93.8577 64.5241 96.3297 69.4926 99.684C73.3315 102.276 76.7523 105.243 79.7168 108.47C80.6843 108.705 81.6522 108.905 82.6191 109.063C84.461 104.258 86.8518 99.478 89.7979 94.8405C91.5803 92.0321 93.5336 89.3358 95.6466 86.7669C95.6711 85.0024 95.6568 83.2926 95.5729 81.6604C95.3452 77.2458 94.6383 73.4701 93.3435 70.6447C92.0494 67.8192 90.3631 65.8454 87.2059 64.2237L87.3453 64.2923C79.5703 60.5455 69.8613 53.6987 60.9258 45.3783C53.8231 38.7649 47.2342 31.3574 43.0364 23.4336ZM138.108 69.5589C133.518 69.5962 128.662 70.6623 123.749 72.7017C113.269 77.0524 102.745 85.8707 94.9612 98.121C90.9792 104.388 88.1177 110.923 86.3387 117.33C93.3224 129.047 95.0376 142.506 90.0066 153.81C90.82 154.971 91.7278 156.064 92.7206 157.076C100.076 150.73 108.553 145.473 114.578 140.075C117.871 137.125 120.364 134.204 121.75 131.422C123.136 128.64 123.612 126.088 122.892 122.613L122.85 122.41L122.822 122.206C120.085 102.396 124.886 90.7532 131.883 83.6308C137.51 77.9044 143.111 74.8883 146.974 70.9063C144.183 69.9786 141.206 69.5334 138.108 69.5589ZM157.393 77.6991C151.742 84.7237 144.774 87.9682 140.611 92.2057C135.827 97.075 132.525 102.936 134.93 120.448C136.088 126.402 135.071 132.12 132.701 136.877C130.29 141.719 126.683 145.656 122.742 149.187C116.757 154.55 109.852 159.143 104.076 163.623C110.627 165.325 118.084 164.501 125.678 161.349C136.159 156.999 146.683 148.18 154.466 135.929C162.251 123.679 165.763 110.405 165.249 99.0689C164.856 90.3994 162.179 82.9711 157.394 77.6995L157.393 77.6991ZM134.93 120.448C134.91 120.341 134.893 120.235 134.871 120.128L134.942 120.533C134.939 120.505 134.935 120.476 134.931 120.448H134.93ZM39.6982 96.1751C33.4508 96.1187 27.5657 97.4886 22.6125 100.188C22.6465 100.189 22.6761 100.191 22.7101 100.192C25.6429 100.296 29.3248 99.9497 33.564 100.528C37.8029 101.108 42.7686 103.032 46.5304 107.289C50.2924 111.545 52.8719 117.579 54.6686 126.245L54.7111 126.447L54.739 126.652C55.5726 132.698 59.4241 136.196 66.1013 139.472C71.7984 142.266 79.1129 144.262 86.0559 146.293C89.1655 132.36 81.7875 115.365 66.0697 104.754C57.5947 99.0325 48.3047 96.2529 39.6988 96.1751H39.6982ZM12.1443 110.261C3.55646 125.054 10.4437 146.762 29.1725 159.406C47.6005 171.848 69.881 170.375 80.6045 157.469C74.3391 155.683 67.2364 153.656 60.7134 150.457C52.3023 146.331 44.2854 139.398 42.6677 128.631C41.1272 121.257 39.0688 117.321 37.3628 115.391C35.6499 113.451 34.3144 112.98 31.9083 112.652C29.5022 112.323 26.1955 112.558 22.2795 112.42C19.2277 112.312 15.6471 111.874 12.1443 110.261V110.261ZM42.6681 128.631C42.6755 128.665 42.683 128.696 42.6901 128.73L42.6198 128.324C42.6341 128.427 42.6528 128.528 42.6684 128.631L42.6681 128.631Z" fill="#81221A"/>
</svg>
