<svg width="290" height="112" viewBox="0 0 290 112" fill="none" xmlns="http://www.w3.org/2000/svg">
<path d="M31.39 38.0935C25.5821 33.514 16.8915 34.2772 12.072 39.7869L5.04963 47.8177C0.230286 53.3307 1.03856 61.584 6.84295 66.1636C12.6473 70.7433 21.3414 69.9799 26.1609 64.4703L33.1833 56.4394C38.0026 50.9265 37.1944 42.6732 31.39 38.0935ZM20.9622 61.2156C18.316 64.2419 13.5404 64.6595 10.3557 62.1448C8.75988 60.8876 7.85224 59.1244 7.67613 57.2983C7.49654 55.4723 8.04849 53.5836 9.37151 52.0688L17.2739 43.0348C19.9201 40.0085 24.6957 39.5909 27.8839 42.1054C29.4762 43.3628 30.3873 45.1259 30.5634 46.952C30.743 48.7779 30.1911 50.6667 28.8681 52.1815L20.9657 61.2155L20.9622 61.2156Z" fill="#452C1C"/>
<path d="M82.1972 35.6247C82.0392 28.463 75.7347 22.7481 68.1848 22.9212L57.1878 23.1731C49.6379 23.3462 43.5932 29.3456 43.7511 36.5074C43.9102 43.666 50.2136 49.384 57.7635 49.2109L68.7605 48.959C76.3104 48.7859 82.3551 42.7865 82.1972 35.6247ZM56.9469 43.3581C52.8033 43.4539 49.34 40.3147 49.2525 36.384C49.2109 34.4177 50.0186 32.61 51.3549 31.2852C52.6923 29.9572 54.5583 29.1119 56.629 29.0619L69.0036 28.7781C73.1473 28.6823 76.6106 31.8216 76.697 35.7554C76.7396 37.7186 75.932 39.5262 74.5946 40.8542C73.2572 42.1823 71.3911 43.0275 69.3204 43.0775L56.9459 43.3613L56.9469 43.3581Z" fill="#452C1C"/>
<path d="M49.4479 32.322L25.7858 40.3923C23.6648 41.1157 22.5579 43.3314 23.3136 45.3412C24.0693 47.351 26.4013 48.3938 28.5223 47.6704L52.1844 39.6001C54.3054 38.8767 55.4123 36.661 54.6566 34.6512C53.9009 32.6414 51.5689 31.5986 49.4479 32.322Z" fill="#452C1C"/>
<path d="M100.745 40.7793L76.9784 33.1377C74.8481 32.4527 72.5301 33.5376 71.8012 35.5608C71.0722 37.584 72.2082 39.7795 74.3386 40.4645L98.1046 48.106C100.235 48.791 102.553 47.7061 103.282 45.6829C104.011 43.6597 102.875 41.4643 100.745 40.7793Z" fill="#452C1C"/>
<path d="M152.681 38.8551L142.511 34.8925C141.051 34.325 139.544 34.0164 138.045 33.9434C137.982 34.023 137.926 34.106 137.884 34.1956C137.717 34.5507 137.947 34.866 138.209 35.1182C138.244 35.1514 138.234 35.2211 138.195 35.2476C137.86 35.4799 137.483 35.6459 137.116 35.835C137.304 36.0839 137.524 36.3129 137.731 36.5486C137.853 36.6913 137.975 36.834 138.087 36.9833C138.167 37.0895 138.258 37.209 138.297 37.3351C138.335 37.4546 138.304 37.6039 138.279 37.7201C138.248 37.8661 138.202 38.0055 138.147 38.1449C138.017 38.4701 137.853 38.7788 137.685 39.0841C137.594 39.25 137.503 39.4126 137.42 39.5786C138.129 39.645 138.838 39.8076 139.527 40.0764L150.972 44.5334C154.806 46.0269 156.654 50.2251 155.085 53.8657C154.299 55.6877 152.8 57.0351 151.017 57.7453C149.235 58.4522 147.17 58.5186 145.255 57.7719L137.112 54.5992C137.084 54.6589 137.06 54.722 137.039 54.7883C136.906 55.2231 136.909 55.6944 136.895 56.1424C136.895 56.1955 136.836 56.2254 136.787 56.222C135.774 56.1922 134.792 55.9101 133.824 55.6413C133.789 56.1988 133.911 56.7829 134.047 57.3205C134.058 57.357 134.026 57.4035 133.991 57.4168C133.376 57.6524 132.744 57.8482 132.094 57.9777C132.125 58.3759 132.268 58.7609 132.447 59.1259L142.27 62.9524C149.253 65.6705 157.304 62.4712 160.17 55.8404C163.032 49.2096 159.663 41.5632 152.681 38.8418V38.8551Z" fill="#452C1C"/>
<path d="M123.293 32.4564C123 32.7418 122.727 33.0372 122.469 33.3392C122.563 33.525 122.675 33.7042 122.825 33.8469C123.028 34.0427 123.311 34.0925 123.556 33.9332C123.832 33.754 124.013 33.4487 124.188 33.1865C124.22 33.14 124.296 33.1168 124.338 33.1633C124.548 33.389 124.761 33.6279 125.037 33.7839C125.436 33.3259 125.981 33.0106 126.488 32.6655C126.544 32.6256 126.641 32.6721 126.634 32.7418C126.606 33.1268 126.547 33.5117 126.551 33.9C127.386 33.9598 128.238 33.6943 129 33.389C129.07 33.3591 129.137 33.4354 129.123 33.4985C129 33.983 128.881 34.4642 128.766 34.9521C129.919 34.3016 131.219 33.9697 132.526 33.9531C133.697 33.9399 134.868 34.1821 135.941 34.6833C136.091 34.5538 136.245 34.4244 136.398 34.2983C136.675 34.0726 136.951 33.8469 137.199 33.5947C137.37 33.4188 137.65 33.1566 137.625 32.9011C137.597 32.5958 137.478 32.2905 137.38 32.0017C137.283 31.7163 137.171 31.4309 137.104 31.1355C137.09 31.0725 137.129 31.026 137.195 31.0161C137.594 30.9663 137.999 30.953 138.39 30.87C138.258 30.5216 138.219 30.1366 138.506 29.8445C138.569 29.7782 138.642 29.7251 138.722 29.672C133.624 27.5115 127.403 28.4507 123.29 32.4531L123.293 32.4564Z" fill="#452C1C"/>
<path d="M171.79 55.1502C172.237 62.3054 178.765 67.8078 186.3 67.383L197.273 66.7658C204.807 66.341 210.602 60.1416 210.154 52.9864C209.707 45.8345 203.179 40.3287 195.644 40.7535L184.671 41.3708C177.137 41.7956 171.343 47.995 171.79 55.1502ZM196.696 46.5779C200.831 46.3456 204.416 49.3689 204.664 53.295C204.786 55.2597 204.053 57.0916 202.77 58.4656C201.488 59.8362 199.656 60.7456 197.591 60.8617L185.244 61.5587C181.11 61.791 177.525 58.7676 177.277 54.8415C177.154 52.8768 177.888 51.0449 179.171 49.6743C180.453 48.3036 182.281 47.3943 184.35 47.2781L196.696 46.5812V46.5779Z" fill="#452C1C"/>
<path d="M153.199 57.5194L178.247 59.1369C180.492 59.2819 182.436 57.6709 182.589 55.5387C182.742 53.4065 181.045 51.5604 178.8 51.4154L153.752 49.798C151.507 49.653 149.563 51.264 149.41 53.3962C149.258 55.5284 150.954 57.3745 153.199 57.5194Z" fill="#452C1C"/>
<path d="M121.878 45.813C121.868 46.2148 121.824 46.6233 121.667 46.994C121.02 46.8449 120.363 46.7588 119.7 46.7199C119.66 46.7182 119.611 46.7449 119.605 46.7848C119.481 47.3262 119.324 47.9025 119.035 48.3898C118.284 47.7518 117.529 47.095 116.631 46.6493C116.587 46.6287 116.521 46.6294 116.497 46.6778C116.278 47.0785 116.067 47.5022 115.749 47.8408C115.701 47.8927 115.649 47.9393 115.594 47.9818L109.712 41.7826C108.329 40.3229 106.439 39.5352 104.51 39.4401C102.58 39.3482 100.61 39.949 99.0672 41.2664C95.9842 43.9022 95.7222 48.4445 98.4896 51.3638L106.755 60.0789C107.254 60.605 107.82 61.0433 108.428 61.39C109.399 61.8791 110.473 62.1553 111.556 62.2112C112.859 62.2786 114.183 62.0279 115.379 61.4523C115.23 61.9299 115.074 62.4055 114.919 62.878C114.899 62.938 114.959 63.0192 115.034 62.9933C115.812 62.7395 116.686 62.5256 117.514 62.6395C117.491 63.0267 117.401 63.4073 117.348 63.7886C117.339 63.8558 117.431 63.9084 117.491 63.8743C118.019 63.5651 118.589 63.2859 119.017 62.8518C119.28 63.0266 119.475 63.2744 119.671 63.5159C119.709 63.5659 119.788 63.5484 119.822 63.5029C120.015 63.2515 120.22 62.9548 120.508 62.7989C120.763 62.657 121.041 62.7246 121.23 62.9326C121.369 63.0866 121.467 63.2703 121.548 63.4625C121.27 63.7473 120.976 64.027 120.662 64.2901C116.334 67.9614 110.188 68.5503 105.293 66.2113L105.276 66.2198C103.963 65.5389 102.746 64.643 101.691 63.5317L94.3445 55.7886C89.3023 50.4741 89.7733 42.1966 95.3952 37.3969C101.014 32.5963 109.737 33.0194 114.779 38.334L121.874 45.812L121.878 45.813Z" fill="#452C1C"/>
<path d="M170.535 86.5143C173.785 92.5876 180.285 96.4042 186.715 99.3578C211.877 110.874 240.882 113.496 268.56 110.011C271.251 109.679 273.977 109.281 276.493 108.285C278.764 107.422 280.826 106.095 282.713 104.635C284.915 102.942 286.942 100.951 288.165 98.5282C291.066 92.8863 288.969 85.7842 284.496 81.1711C279.987 76.5913 273.522 74.1686 267.057 72.8743C262.794 72.0114 258.46 71.58 254.197 70.7503C249.025 69.7547 243.992 68.1285 238.89 66.967C233.019 65.6395 227.008 64.843 221.033 64.0797C217.258 63.5818 213.449 63.1172 209.675 62.6194C206.6 62.2212 203.559 61.8229 200.449 61.7234C197.234 61.6238 194.054 61.8229 190.874 62.0884C185.422 62.5199 179.795 63.1172 175.148 65.8718C171.373 68.1285 168.053 72.0778 167.18 76.2926C166.306 80.5074 168.927 83.4279 170.535 86.448V86.5143Z" fill="#81221A"/>
<path d="M276.843 66.5353C277.507 54.4883 277.856 42.4413 277.891 30.3943C277.891 27.4406 277.891 24.4206 276.808 21.6328C275.655 18.5464 273.209 15.9246 270.133 14.4312C264.716 11.8094 259.195 8.557 253.813 5.86882C252.136 5.03914 250.423 4.17627 248.676 3.47933C245.076 2.05227 241.197 1.28896 237.388 0.492468C235.082 0.0278447 231.552 0.45928 229.246 0.857529C222.606 2.05227 216.036 3.24702 209.71 5.47057C208.557 5.86882 207.404 6.30026 206.356 6.89763C203.979 8.25831 202.162 10.4155 200.869 12.7386C199.576 15.0617 198.737 17.6172 197.933 20.1394C192.866 35.7375 187.03 51.1032 182.767 66.9004C182.173 69.0576 181.613 71.2148 181.509 73.4383C181.264 78.9806 184.164 84.3238 188.288 88.2399C192.412 92.156 197.654 94.8442 202.966 97.1009C214.393 101.913 226.66 105.066 239.136 105.531C251.611 105.995 264.297 103.672 275.34 98.1297C276.039 97.7646 276.773 97.3996 277.227 96.769C277.717 96.0721 277.821 95.176 277.891 94.3464C278.59 84.9543 276.319 75.9274 276.843 66.5353Z" fill="#FBF6F4"/>
<mask id="mask0_646_3431" style="mask-type:luminance" maskUnits="userSpaceOnUse" x="181" y="0" width="98" height="106">
<path d="M276.843 66.5353C277.507 54.4883 277.856 42.4413 277.891 30.3943C277.891 27.4406 277.891 24.4206 276.808 21.6328C275.655 18.5464 273.209 15.9246 270.133 14.4312C264.716 11.8094 259.195 8.557 253.813 5.86882C252.136 5.03914 250.423 4.17627 248.676 3.47933C245.076 2.05227 241.197 1.28896 237.388 0.492468C235.082 0.0278447 231.552 0.45928 229.246 0.857529C222.606 2.05227 216.036 3.24702 209.71 5.47057C208.557 5.86882 207.404 6.30026 206.356 6.89763C203.979 8.25831 202.162 10.4155 200.869 12.7386C199.576 15.0617 198.737 17.6172 197.933 20.1394C192.866 35.7375 187.03 51.1032 182.767 66.9004C182.173 69.0576 181.613 71.2148 181.509 73.4383C181.264 78.9806 184.164 84.3238 188.288 88.2399C192.412 92.156 197.654 94.8442 202.966 97.1009C214.393 101.913 226.66 105.066 239.136 105.531C251.611 105.995 264.297 103.672 275.34 98.1297C276.039 97.7646 276.773 97.3996 277.227 96.769C277.717 96.0721 277.821 95.176 277.891 94.3464C278.59 84.9543 276.319 75.9274 276.843 66.5353Z" fill="white"/>
</mask>
<g mask="url(#mask0_646_3431)">
<path d="M269.26 29.7639C265.206 31.8215 260.593 32.6844 256.015 33.0495C234.907 34.6756 213.45 25.3168 200.101 9.71873C199.751 9.32048 199.437 8.92223 199.332 8.42442C199.227 7.86024 199.402 7.29605 199.646 6.76506C201.673 2.1852 206.181 -1.06716 211.109 -2.75972C216.036 -4.45227 221.348 -4.71777 226.555 -4.71777C237.354 -4.71777 248.222 -3.62259 258.531 -0.60254C263.529 0.857704 268.526 2.84895 272.231 6.33362C280.198 13.8008 279.08 24.7194 269.26 29.7307V29.7639Z" fill="#81221A"/>
<path d="M246.72 1.02394C243.645 0.16107 240.395 0.0615077 237.214 0.0283203C235.502 0.0283203 233.79 0.0283202 232.077 0.16107C230.575 0.293819 228.932 0.625693 228.023 1.75406C226.975 3.04837 227.29 4.97324 228.338 6.23436C229.386 7.49548 230.959 8.29198 232.497 8.88935C235.712 10.1505 239.102 10.9802 242.561 11.2788C245.951 11.5775 249.446 11.3452 252.591 10.0177C253.465 9.65266 254.373 9.15485 254.862 8.35835C255.946 6.63261 253.779 5.13918 252.591 4.07718C251.403 3.01518 248.922 1.58813 246.755 0.990754H246.72V1.02394Z" fill="#FBF6F4"/>
</g>
</svg>
