<svg width="304" height="121" viewBox="0 0 304 121" fill="none" xmlns="http://www.w3.org/2000/svg">
<path d="M303.142 98.6796C292.226 97.7399 281.116 97.7998 270.315 99.5651C263.409 93.7095 259.425 91.0082 250.593 91.3301C241.76 91.6503 233.34 91.8187 226.666 97.2943C225.092 98.586 223.534 99.9975 221.565 100.647C220.115 101.124 218.545 101.149 217.008 101.167C208.82 101.269 200.606 101.37 192.463 100.54C185.434 99.8253 176.366 99.7392 169.321 99.1869C162.415 98.6459 154.149 98.9043 147.228 99.1869C134.758 99.6942 124.381 98.9585 111.901 98.9585C103.316 98.9492 94.7333 98.5242 86.196 97.68C84.5508 97.519 82.8917 97.3374 81.3317 96.8151C79.4586 96.1861 77.8074 95.091 76.0552 94.2018C66.7924 89.505 54.9171 90.9951 46.0706 96.3602C45.0082 97.006 43.9477 97.7155 42.7207 98.0001C41.3471 98.3183 39.908 98.0712 38.5145 97.8428C26.5064 95.866 14.2545 95.2202 2.08789 95.9184C2.22863 69.5513 3.1444 43.1861 4.83322 16.8677C5.04333 13.5992 5.28912 10.2446 6.75396 7.2775C8.22078 4.31039 11.2059 1.77945 14.6708 1.71767C47.1806 1.13174 79.3892 1.19726 111.901 0.796652C124.482 0.796652 137.632 0.165789 150.199 0.69182C156.383 0.952028 162.607 1.21411 168.649 2.49081C179.004 4.67917 188.411 9.75041 197.214 15.3402C210.687 23.8933 223.177 33.8262 234.394 44.9065C238.154 48.6224 241.827 52.5087 246.396 55.3017C250.381 57.7372 254.904 59.2516 259.378 60.7436C269.855 64.2367 280.333 67.7299 290.811 71.223C292.817 71.8913 294.916 72.6195 296.304 74.1396C297.612 75.5736 298.096 77.5017 298.536 79.3475C300.07 85.7928 301.606 92.2362 303.142 98.6796Z" fill="#D8DEE3"/>
<mask id="mask0_629_4417" style="mask-type:luminance" maskUnits="userSpaceOnUse" x="2" y="0" width="302" height="102">
<path d="M303.144 98.6796C292.228 97.7399 281.118 97.7998 270.317 99.5651C263.411 93.7095 259.427 91.0082 250.595 91.3301C241.762 91.6503 233.342 91.8187 226.668 97.2943C225.094 98.586 223.536 99.9975 221.567 100.647C220.116 101.124 218.547 101.149 217.01 101.167C208.822 101.269 200.608 101.37 192.465 100.54C185.436 99.8253 176.368 99.7392 169.323 99.1869C162.417 98.6459 154.151 98.9043 147.23 99.1869C134.76 99.6942 124.383 98.9585 111.903 98.9585C103.318 98.9492 94.7353 98.5242 86.198 97.68C84.5528 97.519 82.8937 97.3374 81.3337 96.8151C79.4605 96.1861 77.8094 95.091 76.0571 94.2018C66.7943 89.505 54.9191 90.9951 46.0726 96.3602C45.0101 97.006 43.9497 97.7155 42.7227 98.0001C41.349 98.3183 39.91 98.0712 38.5165 97.8428C26.5084 95.866 14.2565 95.2202 2.08984 95.9184C2.23058 69.5513 3.14635 43.1861 4.83517 16.8677C5.04528 13.5992 5.29108 10.2446 6.75591 7.2775C8.22273 4.31039 11.2079 1.77945 14.6728 1.71767C47.1826 1.13174 79.3911 1.19726 111.903 0.796652C124.484 0.796652 137.634 0.165789 150.201 0.69182C156.385 0.952028 162.609 1.21411 168.651 2.49081C179.006 4.67917 188.413 9.75041 197.216 15.3402C210.689 23.8933 223.179 33.8262 234.396 44.9065C238.156 48.6224 241.829 52.5087 246.398 55.3017C250.382 57.7372 254.906 59.2516 259.38 60.7436C269.857 64.2367 280.335 67.7299 290.813 71.223C292.819 71.8913 294.918 72.6195 296.306 74.1396C297.614 75.5736 298.098 77.5017 298.538 79.3475C300.072 85.7928 301.608 92.2362 303.144 98.6796Z" fill="white"/>
</mask>
<g mask="url(#mask0_629_4417)">
<path d="M117.756 53.66C129.749 53.66 139.471 44.4784 139.471 33.1523C139.471 21.8262 129.749 12.6445 117.756 12.6445C105.763 12.6445 96.041 21.8262 96.041 33.1523C96.041 44.4784 105.763 53.66 117.756 53.66Z" fill="#D3411D"/>
<path d="M79.9087 64.2907C78.2377 63.6224 76.5668 62.9541 74.8958 62.2858C74.0177 61.9338 73.1257 61.58 72.1782 61.4677C71.2307 61.3573 70.2059 61.522 69.4824 62.1079V73.7611C71.6767 73.7611 73.5935 71.9097 75.5757 71.0242C76.5093 70.6068 77.4865 70.1556 78.0653 69.3488C78.765 68.3754 78.7452 67.0725 79.3934 66.0672C79.7264 65.5505 80.1783 64.8373 79.9087 64.2888V64.2907Z" fill="#5D5F47"/>
<path d="M137.141 60.4458C136.229 63.2332 135.21 66.2134 132.758 67.9937C131.611 68.8286 130.229 69.3284 128.83 69.6822C128.094 69.8675 127.329 70.0248 126.707 70.4366C125.69 71.1087 125.266 72.3086 124.849 73.4112C124.181 75.184 123.387 76.9119 122.469 78.5817C122.084 79.2799 121.654 79.995 120.954 80.4237C120.28 80.8374 119.448 80.9292 118.647 81.0115C117.668 81.1107 116.667 81.21 115.702 81.0209C114.377 80.7626 113.242 79.9875 112.153 79.2331C105.939 74.9275 99.4813 69.8058 96.3574 63.1602C100.147 65.5245 104.853 67.6642 109.511 68.0854C112.042 68.3138 114.655 67.6155 116.679 66.1647C118.405 64.9292 119.797 63.134 121.886 62.5817C122.83 62.3327 123.834 62.3664 124.78 62.1324C126.267 61.7618 127.476 60.764 128.574 59.7513C130.358 58.1076 132.033 56.3255 134.104 55.0132C134.996 54.4498 138.643 52.6059 140.568 52.4411C141.282 52.3793 138.671 56.5052 138.34 57.2316C137.864 58.2724 137.498 59.3581 137.143 60.4402L137.141 60.4458Z" fill="#5D5F47"/>
<path d="M165.024 61.917C162.982 62.8305 160.948 63.8227 158.738 64.2719C156.528 64.7212 154.066 64.5602 152.234 63.3135C151.115 62.5516 148.934 60.4456 147.872 59.1108C147.757 58.9667 148.379 61.2505 148.254 61.3891C148.153 61.5014 148.145 61.6605 148.143 61.8065C148.102 64.4049 148.522 67.0088 149.38 69.478C149.893 70.9531 150.587 72.4151 151.733 73.5308C152.675 74.4481 153.878 75.0902 155.105 75.6312C158.348 77.0577 162.237 77.8308 165.46 76.3613C167.89 75.2531 169.521 73.0778 171.361 71.217C174.021 68.5232 177.273 66.3686 179.749 63.5213C181.379 61.6474 183.133 59.2101 184.602 57.252C181.799 57.252 177.299 57.8529 174.701 58.4856C171.359 59.2999 168.14 60.5242 165.025 61.917H165.024Z" fill="#5D5F47"/>
<path d="M189.985 59.6171C190.445 60.0084 190.822 60.4782 191.214 60.9294C192.084 61.9234 193.058 62.8388 194.116 63.655C194.776 64.1642 195.474 64.6397 196.049 65.2368C196.416 65.6169 196.741 66.0512 197.214 66.3039C197.452 66.4312 197.734 66.5192 197.878 66.7344C198.069 67.0171 197.974 67.4439 198.245 67.6592C198.527 67.8838 198.953 67.6966 199.254 67.4963C200.114 66.9235 200.903 66.2571 201.603 65.5158C202.009 65.0833 202.426 64.6004 203.018 64.4469C203.716 64.2653 204.434 64.5929 205.149 64.6921C206.134 64.8287 207.119 64.5273 208.107 64.4113C209.048 64.3008 210.003 64.3626 210.951 64.4244C210.301 67.2455 223.579 78.7601 221.129 80.4955C220.067 81.248 203.524 72.7454 202.277 73.1778C200.237 73.8855 197.936 73.936 195.888 73.2546C193.619 72.5021 191.75 70.9052 190.36 69.0538C188.972 67.2024 188.023 65.0964 187.149 62.9848C186.83 62.2136 186.517 61.4367 186.261 60.643C186.11 60.1712 184.035 57.249 184.602 57.249C185.593 57.249 189.44 59.1472 189.989 59.6134L189.985 59.6171Z" fill="#5D5F47"/>
<path d="M69.4824 86.4503V68.6457C69.6925 66.9703 70.307 65.2218 71.2803 63.8066C71.5498 63.4154 71.865 63.0241 72.313 62.8276C73.1118 62.4775 74.0395 62.8388 74.9196 62.865C76.3229 62.9062 77.5658 62.09 78.8284 61.5078C82.3131 59.9054 86.4123 60.0271 90.2339 60.6486C91.9208 60.9237 93.6314 61.3038 95.0645 62.1855C96.3926 63.0017 97.3956 64.1941 98.4481 65.3136C102.581 69.7071 107.78 73.2059 113.537 75.4579C114.783 75.9465 116.129 76.3846 117.461 76.173C119.761 75.808 121.212 73.6926 122.302 71.7495C123.392 69.8064 124.641 67.6423 126.871 66.9965C127.878 66.7063 128.964 66.7737 129.987 66.5416C132.264 66.0249 133.874 64.1286 135.053 62.221C136.304 60.203 137.283 58.0353 137.965 55.7889C138.195 55.027 138.399 54.2426 138.855 53.578C139.313 52.9135 140.09 52.3818 140.928 52.4342C141.767 52.4866 142.197 53.7016 142.829 54.5627C143.604 56.0079 145.049 56.2044 146.336 57.2771C148.724 59.2689 149.186 62.5393 149.947 65.4558C150.453 67.3971 151.154 69.2916 152.04 71.1093C153.25 73.5897 155.309 76.2123 158.207 76.2217C159.573 76.2254 160.857 75.6227 162.005 74.9281C166.705 72.0846 169.971 67.5937 174.162 64.1136C175.555 62.9567 177.048 61.9122 178.54 60.8713C180.047 59.8193 181.553 58.7672 183.06 57.7133C183.331 57.5242 183.611 57.3295 183.934 57.2359C184.673 57.0225 185.488 57.3875 186.003 57.9304C186.519 58.4752 186.804 59.1715 187.111 59.8399C189.222 64.415 192.943 68.3181 197.546 70.7854C197.76 70.8996 197.99 71.0157 198.237 71.0063C198.521 70.9951 198.765 70.821 198.973 70.6413C199.91 69.8232 200.499 68.7206 201.234 67.7378C201.972 66.7531 202.973 65.8265 204.239 65.6674C205.183 65.5494 206.158 65.877 207.086 65.6749C208.483 65.3697 209.534 76.8432 210.959 77.0042V86.5401L69.4884 86.4522L69.4824 86.4503Z" fill="#31312C"/>
<path d="M24.8419 61.3076C22.8002 62.2211 20.7665 63.2133 18.5564 63.6626C16.3462 64.1118 13.8844 63.9509 12.0528 62.7041C10.9329 61.9422 8.75248 59.8362 7.69003 58.5015C7.57506 58.3573 8.19747 60.6412 8.07259 60.7797C7.9715 60.892 7.96357 61.0511 7.96159 61.1971C7.91996 63.7955 8.34018 66.3994 9.19847 68.8686C9.71185 70.3437 10.4056 71.8057 11.5513 72.9215C12.4929 73.8387 13.696 74.4808 14.923 75.0218C18.1659 76.4483 22.0549 77.2214 25.278 75.7519C27.7081 74.6437 29.3395 72.4684 31.1789 70.6077C33.839 67.9139 37.0918 65.7592 39.5675 62.9119C41.1969 61.038 42.9511 58.6007 44.4199 56.6426C41.6171 56.6426 37.1176 57.2435 34.5189 57.8762C31.177 58.6905 27.9579 59.9148 24.8439 61.3076H24.8419Z" fill="#5D5F47"/>
<path d="M49.8037 59.0048C50.2635 59.396 50.6402 59.8659 51.0326 60.3171C51.9028 61.3111 52.8761 62.2265 53.9346 63.0427C54.5946 63.5519 55.2924 64.0274 55.8672 64.6245C56.2339 65.0045 56.559 65.4388 57.0327 65.6916C57.2706 65.8189 57.552 65.9068 57.6967 66.1221C57.887 66.4048 57.7919 66.8316 58.0634 67.0469C58.3449 67.2715 58.7711 67.0843 59.0724 66.884C59.9327 66.3112 60.7216 65.6448 61.4213 64.9035C61.8276 64.471 62.2439 63.9881 62.8366 63.8345C63.5343 63.653 64.2518 63.9806 64.9674 64.0798C65.9526 64.2164 66.9377 63.915 67.9248 63.799C68.8664 63.6885 69.8218 63.7503 70.7693 63.8121C70.1191 66.6332 68.0002 68.9788 65.5522 70.7141C64.4897 71.4667 63.344 72.1331 62.0972 72.5655C60.0575 73.2732 57.7562 73.3237 55.7086 72.6423C53.439 71.8897 51.5698 70.2929 50.1803 68.4415C48.7928 66.5901 47.8433 64.4841 46.9692 62.3725C46.65 61.6013 46.3368 60.8244 46.0811 60.0306C45.9305 59.5589 43.8551 56.6367 44.4221 56.6367C45.4131 56.6367 49.2606 58.5349 49.8096 59.0011L49.8037 59.0048Z" fill="#5D5F47"/>
<path d="M-70.6992 85.8399V68.0354C-70.4891 66.3599 -69.8746 64.6115 -68.9014 63.1963C-68.6318 62.805 -68.3166 62.4138 -67.8687 62.2172C-67.0698 61.8671 -66.1422 62.2284 -65.2621 62.2546C-63.8587 62.2958 -62.6159 61.4796 -61.3532 60.8975C-57.8685 59.295 -53.7694 59.4167 -49.9477 60.0382C-48.2609 60.3134 -46.5502 60.6934 -45.1171 61.5751C-43.7891 62.3913 -42.7861 63.5838 -41.7335 64.7032C-37.6007 69.0968 -32.4014 72.5956 -26.6451 74.8476C-25.3983 75.3362 -24.0524 75.7742 -22.7204 75.5627C-20.4211 75.1976 -18.9701 73.0823 -17.8799 71.1391C-16.7897 69.196 -15.5409 67.032 -13.311 66.3861C-12.304 66.096 -11.2178 66.1634 -10.195 65.9312C-7.91743 65.4146 -6.3079 63.5182 -5.1285 61.6107C-3.87774 59.5927 -2.89854 57.4249 -2.21667 55.1785C-1.98673 54.4166 -1.78256 53.6322 -1.32666 52.9677C-0.868774 52.3031 -0.0917587 51.7715 0.746704 51.8239C1.58517 51.8763 2.0153 53.0912 2.64762 53.9523C3.42265 55.3975 4.86767 55.5941 6.15411 56.6667C8.54264 58.6585 9.00449 61.9289 9.76566 64.8455C10.2711 66.7868 10.9728 68.6812 11.8588 70.4989C13.068 72.9793 15.1275 75.602 18.0254 75.6113C19.3911 75.6151 20.6756 75.0123 21.8233 74.3178C26.523 71.4742 29.7897 66.9833 33.98 63.5033C35.3735 62.3464 36.8661 61.3018 38.3587 60.261C39.8652 59.2089 41.3716 58.1568 42.8781 57.1029C43.1496 56.9138 43.4291 56.7192 43.7522 56.6256C44.4916 56.4121 45.3063 56.7772 45.8216 57.3201C46.337 57.8648 46.6224 58.5612 46.9297 59.2295C49.0407 63.8047 52.7613 67.7078 57.3639 70.1751C57.578 70.2893 57.8079 70.4053 58.0557 70.396C58.3391 70.3847 58.5829 70.2106 58.7911 70.0309C59.7286 69.2129 60.3174 68.1103 61.0527 67.1275C61.7901 66.1428 62.7911 65.2161 64.0577 65.057C65.0013 64.9391 65.9765 65.2667 66.9042 65.0645C68.3016 64.7594 69.3522 63.3086 70.7773 63.4677V85.9279L-70.6933 85.8399H-70.6992Z" fill="#31312C"/>
<path d="M260.422 76.8891C259.51 79.6765 258.492 82.6568 256.04 84.437C254.892 85.2719 253.51 85.7718 252.111 86.1256C251.375 86.3109 250.61 86.4681 249.988 86.88C248.971 87.552 248.547 88.752 248.131 89.8546C247.463 91.6274 246.668 93.3552 245.75 95.025C245.365 95.7233 244.935 96.4384 244.236 96.8671C243.562 97.2808 242.729 97.3725 241.928 97.4549C240.949 97.5541 239.948 97.6533 238.983 97.4643C237.659 97.2059 236.523 96.4309 235.435 95.6765C229.221 91.3709 222.763 86.2491 219.639 79.6035C223.429 81.9679 228.134 84.1076 232.792 84.5288C235.324 84.7571 237.936 84.0589 239.96 82.6081C241.687 81.3726 243.078 79.5773 245.167 79.0251C246.111 78.7761 247.116 78.8098 248.061 78.5758C249.548 78.2052 250.757 77.2074 251.855 76.1946C253.639 74.551 255.314 72.7689 257.385 71.4566C258.277 70.8931 261.925 69.0492 263.849 68.8845C264.563 68.8227 261.952 72.9486 261.621 73.6749C261.146 74.7157 260.779 75.8015 260.424 76.8835L260.422 76.8891Z" fill="#5D5F47"/>
<path d="M288.305 78.3613C286.263 79.2748 284.229 80.267 282.019 80.7163C279.809 81.1656 277.347 81.0046 275.516 79.7578C274.396 78.9959 272.215 76.8899 271.153 75.5552C271.038 75.411 271.66 77.6949 271.535 77.8334C271.434 77.9457 271.426 78.1048 271.424 78.2509C271.383 80.8492 271.803 83.4531 272.661 85.9223C273.175 87.3974 273.869 88.8595 275.014 89.9752C275.956 90.8924 277.159 91.5345 278.386 92.0756C281.629 93.502 285.518 94.2751 288.741 92.8056C291.171 91.6974 292.802 89.5222 294.642 87.6614C297.302 84.9676 300.555 82.8129 303.03 79.9656C304.66 78.0917 306.414 75.6544 307.883 73.6963C305.08 73.6963 300.58 74.2972 297.982 74.9299C294.64 75.7443 291.421 76.9685 288.307 78.3613H288.305Z" fill="#5D5F47"/>
<path d="M192.764 102.894V85.0891C192.974 83.4136 193.588 81.6652 194.562 80.25C194.831 79.8587 195.146 79.4675 195.594 79.2709C196.393 78.9209 197.321 79.2822 198.201 79.3084C199.604 79.3495 200.847 78.5334 202.11 77.9512C205.594 76.3487 209.694 76.4704 213.515 77.0919C215.202 77.3671 216.913 77.7471 218.346 78.6288C219.674 79.445 220.677 80.6375 221.729 81.7569C225.862 86.1505 231.061 89.6493 236.818 91.9013C238.065 92.3899 239.41 92.8279 240.742 92.6164C243.042 92.2513 244.493 90.136 245.583 88.1929C246.673 86.2497 247.922 84.0857 250.152 83.4399C251.159 83.1497 252.245 83.2171 253.268 82.985C255.545 82.4683 257.155 80.572 258.334 78.6644C259.585 76.6464 260.564 74.4786 261.246 72.2322C261.476 71.4703 261.68 70.6859 262.136 70.0214C262.594 69.3568 263.371 68.8252 264.21 68.8776C265.048 68.93 265.478 70.1449 266.111 71.0061C266.886 72.4512 268.331 72.6478 269.617 73.7205C272.006 75.7123 272.467 78.9826 273.229 81.8992C273.734 83.8405 274.436 85.7349 275.322 87.5526C276.531 90.033 278.59 92.6557 281.488 92.6651C282.854 92.6688 284.138 92.066 285.286 91.3715C289.986 88.5279 293.253 84.037 297.443 80.557C298.836 79.4001 300.329 78.3555 301.822 77.3147C303.328 76.2626 304.835 75.2106 306.341 74.1566C306.613 73.9676 306.892 73.7729 307.215 73.6793C307.954 73.4659 308.769 73.8309 309.285 74.3738C309.8 74.9185 310.085 75.6149 310.393 76.2832C312.504 80.8584 316.224 84.7615 320.827 87.2288C321.041 87.343 321.271 87.459 321.519 87.4497C321.802 87.4384 322.046 87.2643 322.254 87.0846C323.192 86.2666 323.78 85.164 324.516 84.1812C325.253 83.1965 326.254 82.2699 327.521 82.1107C328.464 81.9928 329.439 82.3204 330.367 82.1182C331.764 81.8131 332.815 80.3623 334.24 80.5214V102.982L192.77 102.894H192.764Z" fill="#31312C"/>
<path d="M117.597 63.8628C117.597 63.8628 115.726 63.743 115.308 63.3967C114.669 62.9923 113.997 62.6348 113.298 62.3259C112.969 61.5172 112.969 60.6299 113.298 59.8212C113.886 58.6044 114.963 57.2884 116.626 57.1629C117.706 57.0637 118.798 57.1817 119.821 57.5093C120.027 57.5692 120.998 56.3467 121.972 56.1801C123.228 55.9724 124.521 56.0154 125.758 56.3056C126.751 56.5808 127.609 57.1555 128.188 57.9342C128.481 58.8927 128.632 59.883 128.638 60.8789V61.1578C128.62 61.3337 128.62 61.5135 128.638 61.6894C128.638 61.6894 131.45 62.9792 131.73 63.6831C132.009 64.387 132.975 65.63 132.283 66.3807C131.591 67.1313 129.094 68.4735 128.394 68.4735H125.25C125.006 68.4735 125.861 67.2511 126.422 66.4799C126.981 65.7086 126.731 63.655 125.863 63.1571C124.994 62.6591 124.162 61.6557 123.159 61.828C122.158 62.0002 120.897 61.549 119.926 62.1144C119.099 62.6404 118.322 63.2245 117.599 63.8628H117.597Z" fill="#E4CEBC"/>
<path d="M130.588 83.9392C129.851 85.6333 127.458 86.5974 127.458 86.5974C127.458 86.5974 127.702 87.3874 128.128 88.7109C125.928 88.9393 123.714 89.0516 121.5 89.0497C120.86 89.0497 120.217 89.0497 119.577 89.016C119.577 87.8722 119.577 86.6311 119.512 85.8393C119.516 85.5603 119.464 85.2833 119.357 85.0212H119.319C118.937 85.0212 114.82 82.5427 114.164 82.157L114.12 82.1233L113.082 88.5368C111.387 88.3178 109.716 88.0257 108.075 87.6719C108.229 87.1515 108.443 86.6461 108.709 86.1631C109.858 84.1694 109.335 79.862 108.709 79.2124C108.082 78.5609 100.689 77.61 98.6036 76.3875C96.5204 75.1651 97.3588 70.751 97.668 71.0318L100.15 70.4926H100.261C100.784 70.9999 101.131 71.6364 101.256 72.3197C101.26 72.4114 101.286 72.5032 101.329 72.5855L101.432 72.7446C102.078 73.3455 102.853 73.8248 103.708 74.1542L109.29 76.2471L109.533 76.3407L111.294 77.0053L111.375 77.1382L111.5 77.3572V77.4302C111.531 77.4714 111.559 77.5164 111.581 77.5632V77.6025C111.581 77.6193 111.581 77.638 111.581 77.6549L111.898 78.1734L115.006 76.3932L115.242 76.6459L117.496 79.0121C117.496 79.0121 119.785 81.1724 119.888 80.5134C119.991 79.8563 120.721 77.6961 120.935 76.7582C121.149 75.8203 125.67 70.7772 126.091 70.311V70.2773C127.139 70.8146 128.126 71.4455 129.036 72.1587C130.289 73.1958 131.437 74.8843 131.54 76.0131C131.643 77.142 131.312 82.2469 130.59 83.9354L130.588 83.9392Z" fill="#81221A"/>
<path d="M116.467 71.4906L116.106 72.2881L115.273 76.1426L115.583 77.1254C115.583 77.1254 118.138 79.997 118.919 80.2759C119.7 80.5549 120.112 80.7477 120.112 80.7477C120.112 80.7477 120.944 77.0786 121.938 75.8093C122.933 74.5401 125.789 71.2098 126.15 70.7849C126.51 70.36 126.047 69.701 126.047 69.701L125.214 68.8231L122.195 69.9594L121.268 70.9234L120.53 70.9702L120.11 71.2566L119.587 69.7422L118.976 68.4131C118.564 69.1638 118.615 69.1507 118.395 69.4839L116.467 71.4906Z" fill="#E4CEBC"/>
<path d="M127.098 63.1309C127.284 63.7374 127.405 64.357 127.458 64.9841C127.458 65.1695 127.797 63.9002 127.9 63.655L127.098 63.1309Z" fill="#211E1B"/>
<path d="M96.8418 60.2323C97.7516 59.8991 98.7487 59.8055 99.714 59.9665C101.385 60.2192 103.329 60.9699 104.303 60.9699C108.321 60.7789 112.317 61.6251 115.821 63.4091C116.868 63.9145 119.57 63.8471 119.57 64.9179C119.57 65.9887 119.298 68.7986 118.097 69.9292C116.896 71.0599 115.887 71.8705 115.74 72.434C115.593 72.9974 113.242 75.8167 112.13 76.3146C112.13 76.3146 110.113 78.0088 109.841 77.1926C108.88 75.3487 107.813 73.5516 106.646 71.8087C105.26 69.5492 103.7 69.3639 103.104 67.9206C102.196 66.2732 101.026 64.7532 99.6347 63.4072C98.7288 62.5292 97.5494 62.0313 97.6248 61.4659C97.6981 60.9006 96.8438 60.2304 96.8438 60.2304L96.8418 60.2323Z" fill="#BF7B38"/>
<path d="M96.8403 60.2323C96.0078 60.4776 96.2139 66.1198 96.9057 66.6851C98.4458 68.0273 99.7144 69.6017 100.654 71.337C101.701 73.4037 102.864 74.5344 104.131 74.9724C105.397 75.4105 109.382 76.8257 109.802 77.0859C110.539 77.5315 108.505 74.7871 107.879 73.6564C107.253 72.5276 105.935 69.9611 104.682 69.2104C103.429 68.4598 102.392 65.2624 101.14 64.757C99.8869 64.2515 100.587 63.1957 99.2684 62.3776C98.3527 61.7674 97.534 61.0448 96.8383 60.2305L96.8403 60.2323Z" fill="#AE7048"/>
<path d="M97.6733 70.9719C97.6733 70.9719 96.9359 68.1545 98.1966 66.3668C99.4553 64.579 100.589 63.4558 101.422 63.8339C102.254 64.2121 102.571 65.5225 102.571 65.5225C102.571 65.5225 104.133 65.9006 104.133 66.6513C104.133 67.402 103.19 67.782 102.359 68.1526C101.527 68.5252 100.694 69.9404 100.282 70.4065C99.8696 70.8708 97.6753 70.9719 97.6753 70.9719H97.6733Z" fill="#984620"/>
<path d="M112.043 78.1175L111.498 77.247C111.498 77.247 108.788 72.8273 109.724 72.0766C110.659 71.3259 110.873 70.4816 111.934 70.4816C112.994 70.4816 114.223 70.1952 114.953 70.667C115.327 70.8523 115.641 71.1237 115.861 71.4551C116.081 71.7864 116.2 72.1627 116.206 72.5483C116.102 73.299 115.373 75.4593 115.27 76.1163C115.167 76.7734 112.045 78.1175 112.045 78.1175H112.043Z" fill="#984620"/>
<path d="M128.636 61.6681C127.471 60.9511 126.24 60.3258 124.953 59.7998L128.083 60.8893C128.313 60.9661 128.509 61.1083 128.642 61.2955L128.634 61.6681H128.636Z" fill="#CAB4A5"/>
<path d="M117.566 64.2068L117.913 62.6455C117.913 62.6455 117.84 61.2041 119.025 60.8241C120.211 60.4459 122.56 60.8915 123.533 61.3894C124.504 61.8874 126.522 62.5781 127.01 63.0181C127.495 63.4561 127.495 64.9462 127.495 64.9462C127.495 64.9462 127.907 62.5201 128.466 63.458C129.025 64.3959 128.046 66.7153 127.148 66.7153C126.25 66.7153 125.41 67.5932 125.477 68.0444C125.543 68.4955 124.924 69.2331 124.924 69.2331C124.924 69.2331 122.494 69.7385 122.074 70.1111C121.654 70.4836 120.203 71.9924 120.203 71.9924C119.925 70.9235 119.553 69.8771 119.091 68.8624C118.528 67.9957 118.086 67.0691 117.773 66.105C117.638 65.4816 117.568 64.847 117.566 64.2105V64.2068Z" fill="#984620"/>
<path d="M7.55707 39.6181C8.77016 41.7896 8.89108 44.3392 8.98623 46.7916C9.35491 56.2189 9.7236 65.6463 10.0923 75.0718C7.24586 74.9539 4.40142 74.8341 1.55501 74.7161C0.766095 74.6824 0.458861 51.6419 0.439039 49.4929C0.413271 46.8384 -0.9366 39.6349 0.696721 37.4615C2.669 34.837 6.3182 37.3998 7.55509 39.6162L7.55707 39.6181Z" fill="#9F352A"/>
</g>
<path d="M303.821 108.013C303.419 109.842 301.54 110.211 300.045 110.224C288.029 110.325 275.617 110.993 263.587 110.552C185.031 107.669 109.652 104.352 32.5173 106.302C21.869 106.572 11.2722 104.803 0.64966 104.054C1.67247 98.2096 1.45641 92.0208 0.0332031 86.3131C2.08675 83.608 2.75673 79.338 1.67644 75.8393C1.34739 74.7685 0.86374 73.6003 1.21062 72.5408C1.64472 71.221 3.02432 71.0189 4.14624 71.0245C10.848 71.0395 17.5498 71.0544 24.2496 71.0694C29.4607 71.0825 33.887 79.6881 39.0961 79.8566C42.1408 79.9558 44.1131 73.9354 47.1617 74.0309C48.9932 72.4191 51.0606 71.1967 53.1915 70.3899C57.8199 68.6396 62.7496 68.6489 67.5564 69.2068C70.4603 69.5456 73.4375 70.1109 75.9549 71.9867C77.051 72.801 87.0551 79.9689 88.0383 81.1314C136.32 82.5747 167.966 83.1494 216.101 84.7032C226.359 73.8081 250.589 68.312 260.929 79.0853C266.187 84.5609 270.566 92.779 277.323 93.6738C283.315 94.4638 301.688 92.5824 301.688 92.5824C301.688 92.5824 305.135 98.9584 303.611 105.568C303.429 106.364 303.997 107.212 303.821 108.013Z" fill="#3F3F3C"/>
<mask id="mask1_629_4417" style="mask-type:luminance" maskUnits="userSpaceOnUse" x="0" y="68" width="304" height="43">
<path d="M303.821 108.013C303.419 109.842 301.54 110.211 300.045 110.224C288.029 110.325 275.617 110.993 263.587 110.552C185.031 107.669 109.652 104.352 32.5173 106.302C21.869 106.572 11.2722 104.803 0.64966 104.054C1.67247 98.2096 1.45641 92.0208 0.0332031 86.3131C2.08675 83.608 2.75673 79.338 1.67644 75.8393C1.34739 74.7685 0.86374 73.6003 1.21062 72.5408C1.64472 71.221 3.02432 71.0189 4.14624 71.0245C10.848 71.0395 17.5498 71.0544 24.2496 71.0694C29.4607 71.0825 33.887 79.6881 39.0961 79.8566C42.1408 79.9558 44.1131 73.9354 47.1617 74.0309C48.9932 72.4191 51.0606 71.1967 53.1915 70.3899C57.8199 68.6396 62.7496 68.6489 67.5564 69.2068C70.4603 69.5456 73.4375 70.1109 75.9549 71.9867C77.051 72.801 87.0551 79.9689 88.0383 81.1314C136.32 82.5747 167.966 83.1494 216.101 84.7032C226.359 73.8081 250.589 68.312 260.929 79.0853C266.187 84.5609 270.566 92.779 277.323 93.6738C283.315 94.4638 301.688 92.5824 301.688 92.5824C301.688 92.5824 305.135 98.9584 303.611 105.568C303.429 106.364 303.997 107.212 303.821 108.013Z" fill="white"/>
</mask>
<g mask="url(#mask1_629_4417)">
<path d="M7.69769 42.0966C8.91079 44.2681 9.03171 46.8178 9.12685 49.2701C9.49554 58.6975 9.86422 68.1248 10.2329 77.5503C7.38649 77.4324 4.54205 77.3126 1.69563 77.1947C0.906722 77.161 0.599482 54.1204 0.57966 51.9714C0.553892 49.3169 -0.795973 42.1134 0.837348 39.94C2.80962 37.3155 6.45883 39.8783 7.69571 42.0947L7.69769 42.0966Z" fill="#4F1C17"/>
</g>
<path d="M62.3447 120.912C75.1838 120.912 85.5918 111.082 85.5918 98.9567C85.5918 86.8314 75.1838 77.002 62.3447 77.002C49.5057 77.002 39.0977 86.8314 39.0977 98.9567C39.0977 111.082 49.5057 120.912 62.3447 120.912Z" fill="#31302D"/>
<path d="M243.8 120.912C256.639 120.912 267.047 111.082 267.047 98.9567C267.047 86.8314 256.639 77.002 243.8 77.002C230.961 77.002 220.553 86.8314 220.553 98.9567C220.553 111.082 230.961 120.912 243.8 120.912Z" fill="#31302D"/>
<path d="M26.5527 33.4425C26.5527 32.0085 26.8164 30.6756 27.3416 29.4439C27.8669 28.2027 28.6162 27.1188 29.5894 26.1903C30.5627 25.2618 31.7262 24.5411 33.0801 24.0263C34.4438 23.5022 35.9523 23.2401 37.6074 23.2401C39.2625 23.2401 40.6679 23.4797 42.0316 23.957C43.4033 24.4344 44.5966 25.1196 45.6095 26.0125C46.6323 26.9036 47.4251 27.9706 47.9901 29.2117C48.5649 30.4529 48.8523 31.8363 48.8523 33.362C48.8523 34.7959 48.5887 36.1344 48.0634 37.3755C47.5381 38.6073 46.7889 39.6931 45.8156 40.629C44.8424 41.5576 43.6788 42.2839 42.325 42.8081C40.9712 43.3322 39.4687 43.5943 37.8135 43.5943C36.1584 43.5943 34.7233 43.3547 33.3596 42.8773C31.9958 42.3906 30.8045 41.6998 29.7817 40.8088C28.7589 39.9177 27.966 38.8507 27.4011 37.6095C26.8362 36.359 26.5547 34.9719 26.5547 33.4443L26.5527 33.4425ZM32.5984 33.317C32.5984 34.9082 32.7193 36.3366 32.9631 37.6058C33.2069 38.8656 33.5518 39.9402 33.9998 40.8331C34.4478 41.7148 34.9929 42.3906 35.6351 42.8605C36.2773 43.321 37.0028 43.5494 37.8116 43.5494C38.989 43.5494 39.9424 43.145 40.6738 42.3363C41.4132 41.5182 41.9543 40.3595 42.2953 38.8619C42.6362 37.3549 42.8067 35.5616 42.8067 33.4836C42.8067 31.885 42.6857 30.4547 42.4419 29.1949C42.208 27.935 41.8631 26.8699 41.4053 25.9956C40.9474 25.1139 40.3983 24.4419 39.7561 23.9833C39.1238 23.5153 38.4082 23.2794 37.6094 23.2794C36.422 23.2794 35.4587 23.6837 34.7174 24.4924C33.9879 25.3011 33.4527 26.4543 33.1118 27.9538C32.7708 29.4514 32.6004 31.241 32.6004 33.317H32.5984ZM47.1258 23.665L47.2131 23.7474L28.2614 43.1637L28.1742 43.0814L47.1258 23.665ZM57.1002 23.4572L66.7653 38.4594H66.7515L66.4165 27.3996C66.3967 26.4243 66.3332 25.6718 66.2262 25.1383C66.1191 24.5954 65.9348 24.206 65.6712 23.9664C65.4075 23.7268 65.019 23.5658 64.5037 23.4834V23.4554H68.8546V23.4685C68.3769 23.5508 68.0121 23.7118 67.7604 23.9514C67.5087 24.191 67.3263 24.5804 67.2193 25.1233C67.1221 25.6568 67.0627 26.415 67.0448 27.3978L66.7237 43.3659H63.0289L51.1437 24.8462H51.2746L51.5659 39.4216C51.5858 40.3969 51.6432 41.1551 51.7404 41.6961C51.8474 42.2296 52.0377 42.6152 52.3093 42.8549C52.5828 43.0851 52.9713 43.2461 53.4768 43.3378V43.3659H49.1259V43.3528C49.6036 43.2704 49.9683 43.1094 50.22 42.8698C50.4738 42.6302 50.6482 42.2408 50.7453 41.698C50.8524 41.1551 50.9098 40.3969 50.9197 39.4235L51.227 25.8403C51.2369 25.3798 51.1774 24.9941 51.0526 24.6815C50.9356 24.3689 50.7513 24.1162 50.4975 23.9234C50.2438 23.7212 49.9187 23.5695 49.5183 23.4685V23.4554H57.0962L57.1002 23.4572ZM76.4483 43.5905C74.9974 43.5905 73.6931 43.4895 72.5355 43.2873C71.3878 43.0851 70.4324 42.8193 69.6732 42.4879L69.4254 36.4208H69.4393C69.6633 37.4972 70.0082 38.4763 70.476 39.358C70.9438 40.2322 71.4889 40.981 72.1113 41.6062C72.7436 42.2315 73.4295 42.7145 74.1708 43.0533C74.9201 43.3846 75.6792 43.5494 76.4483 43.5494C77.6456 43.5494 78.6089 43.2274 79.3384 42.5834C80.0777 41.9394 80.4484 41.0858 80.4484 40.0188C80.4484 39.109 80.157 38.3359 79.5723 37.7031C78.9875 37.0592 78.0143 36.4994 76.6525 36.0202L74.813 35.3856C73.0806 34.7884 71.7466 33.9797 70.813 32.9595C69.8794 31.9299 69.4116 30.6794 69.4116 29.208C69.4116 27.8845 69.7664 26.7819 70.478 25.8983C71.1975 25.0166 72.1866 24.3539 73.4413 23.9121C74.706 23.461 76.1569 23.2363 77.7923 23.2363C79.1362 23.2363 80.2739 23.3337 81.2095 23.5265C82.1431 23.7193 82.8548 23.9496 83.3404 24.2154L83.4276 29.193H83.4137C83.1422 28.0623 82.7378 27.0515 82.2026 26.1585C81.6773 25.2674 81.0391 24.5636 80.2898 24.0488C79.5504 23.534 78.7179 23.2756 77.7923 23.2756C76.5375 23.2756 75.5682 23.5658 74.8864 24.1442C74.2144 24.7227 73.8794 25.4734 73.8794 26.3925C73.8794 27.3117 74.1866 28.0474 74.7991 28.6539C75.4116 29.2511 76.3611 29.7808 77.6456 30.2395L79.4712 30.8741C81.2631 31.4993 82.6149 32.3642 83.5307 33.4668C84.4564 34.56 84.9182 35.8517 84.9182 37.3418C84.9182 38.6279 84.5475 39.7417 83.8082 40.6796C83.0787 41.6081 82.0758 42.3251 80.8012 42.8305C79.5366 43.336 78.0856 43.5887 76.4503 43.5887L76.4483 43.5905ZM92.5397 41.4808C92.5397 41.8758 92.5833 42.1978 92.6705 42.4468C92.7677 42.6864 92.9243 42.8736 93.1383 43.0121C93.3524 43.1506 93.6537 43.2648 94.0442 43.3565V43.3697H85.4593V43.3565C85.8677 43.2461 86.1888 43.1225 86.4227 42.984C86.6566 42.8361 86.8211 42.6396 86.9182 42.3906C87.0154 42.1341 87.0649 41.7934 87.0649 41.3704V25.4565C87.0649 25.0334 87.0154 24.6984 86.9182 24.4494C86.8211 24.191 86.6546 23.9889 86.4227 23.8429C86.1888 23.695 85.8677 23.5714 85.4593 23.4703V23.4572H94.0442V23.4703C93.6557 23.5527 93.3524 23.6688 93.1383 23.8148C92.9243 23.9533 92.7677 24.1405 92.6705 24.3801C92.5833 24.6197 92.5397 24.9417 92.5397 25.3461V41.4789V41.4808ZM99.0948 43.3697L93.5467 33.2066L98.7876 27.4146C99.6934 26.4131 100.316 25.6493 100.657 25.1252C100.998 24.5917 101.099 24.2098 100.964 23.9814C100.827 23.7418 100.492 23.5714 99.9571 23.4703V23.4572H104.907V23.4703C104.381 23.6257 103.87 23.8335 103.374 24.09C102.879 24.3483 102.367 24.674 101.842 25.069C101.317 25.4546 100.738 25.9283 100.104 26.4899C99.5012 27.014 98.96 27.5064 98.4823 27.965C98.0046 28.4161 97.5764 28.8205 97.1978 29.178L102.716 39.4235C103.251 40.3894 103.695 41.1382 104.044 41.6718C104.395 42.2053 104.7 42.5909 104.964 42.8305C105.236 43.0608 105.509 43.2349 105.783 43.3547V43.3678H99.0948V43.3697ZM93.6497 33.2758L92.4089 33.2216V33.2085L93.6497 33.1542V33.2777V33.2758Z" fill="#452C1C"/>
<path d="M150.564 38.8787C150.923 40.3913 151.332 41.9432 152.311 43.1862C153.383 44.549 155.022 45.3914 156.628 46.1552C164.535 49.916 172.921 52.7746 181.548 54.6466C184.305 55.2456 187.086 55.7436 189.873 56.2003C205.532 58.7631 221.432 60.0024 237.325 59.8994C236.215 55.6649 232.623 52.4769 229.188 49.5604C216.022 38.3845 202.666 27.409 189.128 16.6376C186.856 14.8292 184.545 13.0078 181.861 11.8059C174.452 8.48689 171.48 6.8882 161.593 6.8882C159.593 6.8882 153.938 6.81707 151.966 6.50631C144.182 5.2839 147.038 14.6626 147.431 19.3239C147.986 25.9002 149.032 32.441 150.562 38.8787H150.564Z" fill="#BCD5E1"/>
<path d="M62.3462 112.952C70.5304 112.952 77.165 106.686 77.165 98.957C77.165 91.2277 70.5304 84.9619 62.3462 84.9619C54.162 84.9619 47.5273 91.2277 47.5273 98.957C47.5273 106.686 54.162 112.952 62.3462 112.952Z" fill="#6E6A65"/>
<path d="M243.801 112.952C251.985 112.952 258.62 106.686 258.62 98.957C258.62 91.2277 251.985 84.9619 243.801 84.9619C235.617 84.9619 228.982 91.2277 228.982 98.957C228.982 106.686 235.617 112.952 243.801 112.952Z" fill="#6E6A65"/>
</svg>
