<svg width="117" height="114" viewBox="0 0 117 114" fill="none" xmlns="http://www.w3.org/2000/svg">
<path d="M27.731 13.4976C27.731 13.7495 27.7603 13.9429 27.8189 14.0776C27.8833 14.2124 28.0181 14.312 28.2232 14.3765C28.4282 14.4409 28.7446 14.4937 29.1724 14.5347V15.1675H24.3296V14.5347C24.7808 14.4937 25.1148 14.4409 25.3316 14.3765C25.5484 14.3062 25.6861 14.2036 25.7446 14.0688C25.8032 13.9282 25.8325 13.7261 25.8325 13.4624V4.18115C25.8325 3.91748 25.8032 3.71826 25.7446 3.5835C25.6861 3.44287 25.5484 3.34033 25.3316 3.27588C25.1148 3.20557 24.7808 3.1499 24.3296 3.10889V2.47607H29.1724V3.11768C28.7446 3.15869 28.4282 3.21143 28.2232 3.27588C28.0181 3.34033 27.8833 3.43994 27.8189 3.57471C27.7603 3.70947 27.731 3.90283 27.731 4.15479V13.4976ZM33.3208 15.1675L29.0318 8.52295L32.1255 4.74365C32.4419 4.35107 32.6353 4.04346 32.7056 3.8208C32.7759 3.59229 32.7114 3.42529 32.5122 3.31982C32.3189 3.21436 31.9761 3.14404 31.4839 3.10889V2.47607H35.8081V3.10889C35.4859 3.16162 35.19 3.2583 34.9204 3.39893C34.6509 3.53369 34.3579 3.74463 34.0415 4.03174C33.7251 4.31885 33.3384 4.71143 32.8814 5.20947C32.395 5.74854 31.9204 6.28467 31.4575 6.81787C30.9946 7.35107 30.5552 7.8667 30.1392 8.36475L30.4468 7.34521L33.5493 12.1177C33.9361 12.7212 34.2612 13.1929 34.5249 13.5327C34.7945 13.8667 35.0347 14.1099 35.2456 14.2622C35.4566 14.4146 35.6792 14.5229 35.9136 14.5874V15.1675H33.3208ZM29.8316 8.94482H26.8609V8.20654H29.8316V8.94482ZM35.7034 8.82178C35.7034 7.90771 35.8528 7.05225 36.1517 6.25537C36.4564 5.4585 36.89 4.7583 37.4525 4.15479C38.015 3.54541 38.6917 3.0708 39.4827 2.73096C40.2737 2.39111 41.1556 2.22119 42.1282 2.22119C42.9368 2.22119 43.7191 2.37061 44.4749 2.66943C45.2366 2.96826 45.9192 3.40479 46.5228 3.979C47.1263 4.55322 47.6067 5.24756 47.9642 6.06201C48.3216 6.87061 48.5003 7.79053 48.5003 8.82178C48.5003 9.73584 48.348 10.5913 48.0433 11.3882C47.7444 12.1851 47.3138 12.8882 46.7513 13.4976C46.1888 14.1011 45.512 14.5728 44.721 14.9126C43.9359 15.2524 43.054 15.4224 42.0755 15.4224C41.2669 15.4224 40.4847 15.2729 39.7288 14.9741C38.973 14.6753 38.2903 14.2388 37.681 13.6646C37.0775 13.0903 36.597 12.3989 36.2396 11.5903C35.8821 10.7759 35.7034 9.85303 35.7034 8.82178ZM37.8216 8.646C37.8216 9.43115 37.9212 10.1782 38.1204 10.8872C38.3255 11.5903 38.6185 12.2173 38.9993 12.7681C39.386 13.313 39.8489 13.7407 40.388 14.0513C40.9329 14.3618 41.5482 14.5171 42.2337 14.5171C43.2122 14.5171 44.0062 14.2651 44.6155 13.7612C45.2249 13.2515 45.6702 12.5776 45.9515 11.7397C46.2386 10.9019 46.3821 9.98486 46.3821 8.98877C46.3821 8.20947 46.2796 7.46826 46.0745 6.76514C45.8753 6.05615 45.5823 5.4292 45.1956 4.88428C44.8148 4.3335 44.3519 3.90283 43.8069 3.59229C43.2679 3.28174 42.6556 3.12646 41.97 3.12646C40.9915 3.12646 40.1976 3.38135 39.5882 3.89111C38.9788 4.39502 38.5306 5.06592 38.2435 5.90381C37.9622 6.7417 37.8216 7.65576 37.8216 8.646ZM59.5138 6.229C59.5138 6.89111 59.3849 7.47119 59.1271 7.96924C58.8692 8.46729 58.506 8.88623 58.0372 9.22607C57.5685 9.56006 57.0118 9.81201 56.3673 9.98193C55.7228 10.1519 55.0138 10.2368 54.2403 10.2368H52.8165V13.3481C52.8165 13.6353 52.8517 13.8579 52.922 14.0161C52.9923 14.1685 53.1446 14.2827 53.379 14.3589C53.6134 14.4292 53.9737 14.4878 54.4601 14.5347V15.1675H49.4151V14.5347C49.8663 14.4937 50.2003 14.4409 50.4171 14.3765C50.6339 14.3062 50.7716 14.2036 50.8302 14.0688C50.8888 13.9282 50.9181 13.7261 50.9181 13.4624V4.18115C50.9181 3.91748 50.8888 3.71826 50.8302 3.5835C50.7716 3.44287 50.6339 3.34033 50.4171 3.27588C50.2003 3.20557 49.8663 3.1499 49.4151 3.10889V2.47607H54.2403C55.8517 2.47607 57.1319 2.78662 58.0812 3.40771C59.0362 4.02881 59.5138 4.96924 59.5138 6.229ZM57.4835 6.36963C57.4835 5.7251 57.3399 5.17725 57.0528 4.72607C56.7716 4.26904 56.3468 3.91748 55.7784 3.67139C55.2101 3.41943 54.4981 3.27588 53.6427 3.24072L52.8165 3.20557V9.49854L53.6427 9.47217C54.4981 9.43701 55.2101 9.30225 55.7784 9.06787C56.3526 8.82764 56.7804 8.48486 57.0616 8.03955C57.3429 7.59424 57.4835 7.0376 57.4835 6.36963ZM70.3515 6.229C70.3515 6.89111 70.2226 7.47119 69.9647 7.96924C69.7069 8.46729 69.3436 8.88623 68.8749 9.22607C68.4061 9.56006 67.8495 9.81201 67.205 9.98193C66.5604 10.1519 65.8515 10.2368 65.078 10.2368H63.6542V13.3481C63.6542 13.6353 63.6894 13.8579 63.7597 14.0161C63.83 14.1685 63.9823 14.2827 64.2167 14.3589C64.4511 14.4292 64.8114 14.4878 65.2977 14.5347V15.1675H60.2528V14.5347C60.704 14.4937 61.038 14.4409 61.2548 14.3765C61.4716 14.3062 61.6093 14.2036 61.6679 14.0688C61.7265 13.9282 61.7558 13.7261 61.7558 13.4624V4.18115C61.7558 3.91748 61.7265 3.71826 61.6679 3.5835C61.6093 3.44287 61.4716 3.34033 61.2548 3.27588C61.038 3.20557 60.704 3.1499 60.2528 3.10889V2.47607H65.078C66.6894 2.47607 67.9696 2.78662 68.9188 3.40771C69.8739 4.02881 70.3515 4.96924 70.3515 6.229ZM68.3212 6.36963C68.3212 5.7251 68.1776 5.17725 67.8905 4.72607C67.6093 4.26904 67.1845 3.91748 66.6161 3.67139C66.0477 3.41943 65.3358 3.27588 64.4804 3.24072L63.6542 3.20557V9.49854L64.4804 9.47217C65.3358 9.43701 66.0477 9.30225 66.6161 9.06787C67.1903 8.82764 67.6181 8.48486 67.8993 8.03955C68.1806 7.59424 68.3212 7.0376 68.3212 6.36963ZM80.5739 2.47607L80.6794 5.62256H80.0993C79.9587 4.99561 79.7712 4.51807 79.5368 4.18994C79.3083 3.86182 78.989 3.63623 78.5788 3.51318C78.1745 3.38428 77.6296 3.30811 76.944 3.28467L74.4919 3.20557V8.29443H77.1022C77.319 8.29443 77.4919 8.25342 77.6208 8.17139C77.7497 8.0835 77.861 7.91357 77.9548 7.66162C78.0485 7.40381 78.1481 7.02002 78.2536 6.51025H78.8073V10.8257H78.2536C78.1657 10.3218 78.0749 9.94385 77.9811 9.69189C77.8932 9.43408 77.7819 9.26123 77.6472 9.17334C77.5124 9.07959 77.3307 9.03271 77.1022 9.03271H74.4919V14.438L76.944 14.3589C77.5827 14.3354 78.11 14.2915 78.5261 14.2271C78.9421 14.1626 79.2761 14.0425 79.528 13.8667C79.7858 13.6851 79.988 13.4185 80.1345 13.0669C80.2868 12.7095 80.4186 12.2319 80.53 11.6343H81.11L80.9694 15.1675H71.0905V14.5347C71.5417 14.4937 71.8757 14.4409 72.0925 14.3765C72.3093 14.3062 72.447 14.2036 72.5056 14.0688C72.5641 13.9282 72.5934 13.7261 72.5934 13.4624V4.18115C72.5934 3.91748 72.5641 3.71826 72.5056 3.5835C72.447 3.44287 72.3093 3.34033 72.0925 3.27588C71.8757 3.20557 71.5417 3.1499 71.0905 3.10889V2.47607H80.5739ZM92.0444 5.9126C92.0444 6.45752 91.9243 6.94971 91.6841 7.38916C91.4438 7.82275 91.1128 8.18311 90.6909 8.47021C90.269 8.75146 89.7915 8.94775 89.2583 9.05908V8.69873L91.1216 12.1177C91.4966 12.7915 91.8042 13.2983 92.0444 13.6382C92.2905 13.9722 92.5014 14.2036 92.6772 14.3325C92.8589 14.4614 93.0405 14.5464 93.2221 14.5874V15.1675H90.7876L87.7114 9.5249H85.4878V13.4976C85.4878 13.7495 85.5171 13.9429 85.5757 14.0776C85.6401 14.2124 85.7749 14.312 85.98 14.3765C86.185 14.4409 86.5014 14.4937 86.9292 14.5347V15.1675H82.0864V14.5347C82.5376 14.4937 82.8716 14.4409 83.0884 14.3765C83.3052 14.3062 83.4429 14.2036 83.5014 14.0688C83.56 13.9282 83.5893 13.7261 83.5893 13.4624V4.18115C83.5893 3.91748 83.56 3.71826 83.5014 3.5835C83.4429 3.44287 83.3052 3.34033 83.0884 3.27588C82.8716 3.20557 82.5376 3.1499 82.0864 3.10889V2.47607H87.1138C88.1977 2.47607 89.1059 2.61377 89.8384 2.88916C90.5708 3.16455 91.1216 3.56006 91.4907 4.07568C91.8598 4.59131 92.0444 5.20361 92.0444 5.9126ZM90.1284 6.07959C90.1284 5.49951 89.9995 5.00146 89.7417 4.58545C89.4897 4.16943 89.1001 3.8501 88.5727 3.62744C88.0513 3.39893 87.3833 3.27002 86.5688 3.24072L85.4878 3.20557V8.8042L86.8061 8.76025C87.9018 8.73096 88.728 8.49658 89.2846 8.05713C89.8471 7.61182 90.1284 6.95264 90.1284 6.07959ZM34.9684 24.229C34.9684 24.8911 34.8395 25.4712 34.5817 25.9692C34.3239 26.4673 33.9606 26.8862 33.4918 27.2261C33.0231 27.5601 32.4664 27.812 31.8219 27.9819C31.1774 28.1519 30.4684 28.2368 29.6949 28.2368H28.2711V31.3481C28.2711 31.6353 28.3063 31.8579 28.3766 32.0161C28.4469 32.1685 28.5992 32.2827 28.8336 32.3589C29.068 32.4292 29.4283 32.4878 29.9147 32.5347V33.1675H24.8698V32.5347C25.3209 32.4937 25.6549 32.4409 25.8717 32.3765C26.0885 32.3062 26.2262 32.2036 26.2848 32.0688C26.3434 31.9282 26.3727 31.7261 26.3727 31.4624V22.1812C26.3727 21.9175 26.3434 21.7183 26.2848 21.5835C26.2262 21.4429 26.0885 21.3403 25.8717 21.2759C25.6549 21.2056 25.3209 21.1499 24.8698 21.1089V20.4761H29.6949C31.3063 20.4761 32.5865 20.7866 33.5358 21.4077C34.4908 22.0288 34.9684 22.9692 34.9684 24.229ZM32.9381 24.3696C32.9381 23.7251 32.7946 23.1772 32.5074 22.7261C32.2262 22.269 31.8014 21.9175 31.233 21.6714C30.6647 21.4194 29.9528 21.2759 29.0973 21.2407L28.2711 21.2056V27.4985L29.0973 27.4722C29.9528 27.437 30.6647 27.3022 31.233 27.0679C31.8073 26.8276 32.235 26.4849 32.5162 26.0396C32.7975 25.5942 32.9381 25.0376 32.9381 24.3696ZM45.6654 23.9126C45.6654 24.4575 45.5453 24.9497 45.3051 25.3892C45.0649 25.8228 44.7338 26.1831 44.3119 26.4702C43.8901 26.7515 43.4125 26.9478 42.8793 27.0591V26.6987L44.7426 30.1177C45.1176 30.7915 45.4252 31.2983 45.6654 31.6382C45.9115 31.9722 46.1225 32.2036 46.2983 32.3325C46.4799 32.4614 46.6615 32.5464 46.8432 32.5874V33.1675H44.4086L41.3324 27.5249H39.1088V31.4976C39.1088 31.7495 39.1381 31.9429 39.1967 32.0776C39.2611 32.2124 39.3959 32.312 39.601 32.3765C39.8061 32.4409 40.1225 32.4937 40.5502 32.5347V33.1675H35.7074V32.5347C36.1586 32.4937 36.4926 32.4409 36.7094 32.3765C36.9262 32.3062 37.0639 32.2036 37.1225 32.0688C37.1811 31.9282 37.2104 31.7261 37.2104 31.4624V22.1812C37.2104 21.9175 37.1811 21.7183 37.1225 21.5835C37.0639 21.4429 36.9262 21.3403 36.7094 21.2759C36.4926 21.2056 36.1586 21.1499 35.7074 21.1089V20.4761H40.7348C41.8188 20.4761 42.727 20.6138 43.4594 20.8892C44.1918 21.1646 44.7426 21.5601 45.1117 22.0757C45.4809 22.5913 45.6654 23.2036 45.6654 23.9126ZM43.7494 24.0796C43.7494 23.4995 43.6205 23.0015 43.3627 22.5854C43.1108 22.1694 42.7211 21.8501 42.1938 21.6274C41.6723 21.3989 41.0043 21.27 40.1899 21.2407L39.1088 21.2056V26.8042L40.4272 26.7603C41.5229 26.731 42.349 26.4966 42.9057 26.0571C43.4682 25.6118 43.7494 24.9526 43.7494 24.0796ZM49.0324 33.3081C48.8274 33.3081 48.634 33.2554 48.4524 33.1499C48.2766 33.0444 48.1359 32.9038 48.0305 32.728C47.925 32.5522 47.8723 32.356 47.8723 32.1392C47.8723 31.9282 47.925 31.7349 48.0305 31.5591C48.1359 31.3774 48.2766 31.2368 48.4524 31.1372C48.634 31.0317 48.8274 30.979 49.0324 30.979C49.2492 30.979 49.4426 31.0317 49.6125 31.1372C49.7883 31.2368 49.9289 31.3774 50.0344 31.5591C50.1457 31.7349 50.2014 31.9282 50.2014 32.1392C50.2014 32.356 50.1457 32.5522 50.0344 32.728C49.9289 32.9038 49.7883 33.0444 49.6125 33.1499C49.4426 33.2554 49.2492 33.3081 49.0324 33.3081ZM67.8953 26.6284C67.8953 27.6421 67.7049 28.5532 67.324 29.3618C66.9432 30.1646 66.4217 30.8501 65.7596 31.4185C65.1033 31.9868 64.3504 32.4204 63.5008 32.7192C62.6512 33.0181 61.7605 33.1675 60.8289 33.1675H55.6697V32.5347C56.1209 32.4937 56.4549 32.4409 56.6717 32.3765C56.8885 32.3062 57.0262 32.2036 57.0848 32.0688C57.1434 31.9282 57.1726 31.7261 57.1726 31.4624V22.1812C57.1726 21.9175 57.1434 21.7183 57.0848 21.5835C57.0262 21.4429 56.8885 21.3403 56.6717 21.2759C56.4549 21.2056 56.1209 21.1499 55.6697 21.1089V20.4761H60.8113C62.1531 20.4761 63.3572 20.7192 64.4236 21.2056C65.49 21.6919 66.3338 22.395 66.9549 23.3149C67.5818 24.229 67.8953 25.3335 67.8953 26.6284ZM65.8123 26.769C65.8123 25.6733 65.5896 24.7183 65.1443 23.9038C64.699 23.0835 64.0691 22.4448 63.2547 21.9878C62.4402 21.5308 61.4851 21.2847 60.3894 21.2495L59.0711 21.2056V32.438L60.3894 32.394C61.491 32.3589 62.4461 32.1128 63.2547 31.6558C64.0691 31.1929 64.699 30.5483 65.1443 29.7222C65.5896 28.896 65.8123 27.9116 65.8123 26.769ZM78.4869 30.8472C78.6451 31.2925 78.7945 31.6294 78.9351 31.8579C79.0816 32.0864 79.2603 32.2476 79.4713 32.3413C79.6822 32.4292 79.9664 32.4937 80.3238 32.5347V33.1675H75.358V32.5347C75.8267 32.4761 76.1637 32.397 76.3687 32.2974C76.5797 32.1978 76.6881 32.0366 76.6939 31.814C76.7057 31.5854 76.6353 31.2603 76.483 30.8384L73.3101 21.8472H73.5914L70.4889 30.8032C70.3365 31.2368 70.2633 31.5679 70.2691 31.7964C70.275 32.0249 70.3834 32.1919 70.5943 32.2974C70.8053 32.397 71.1451 32.4761 71.6139 32.5347V33.1675H67.5621V32.5347C67.943 32.4937 68.2389 32.4263 68.4498 32.3325C68.6607 32.2329 68.8365 32.0659 68.9771 31.8315C69.1178 31.5913 69.276 31.2339 69.4517 30.7593L73.2486 20.4761H74.6637L78.4869 30.8472ZM70.7965 28.7554L71.0777 27.9731H76.2721L76.5709 28.7554H70.7965ZM80.184 26.8042C80.184 25.7671 80.351 24.8442 80.6849 24.0356C81.0189 23.2212 81.4847 22.5298 82.0824 21.9614C82.6801 21.3931 83.3744 20.9624 84.1654 20.6694C84.9564 20.3706 85.8119 20.2212 86.7318 20.2212C87.7162 20.2212 88.5717 20.3179 89.2982 20.5112C90.0248 20.7046 90.5785 20.9419 90.9594 21.2231L91.056 23.9214H90.476C90.3529 23.4175 90.1859 22.9868 89.975 22.6294C89.764 22.272 89.5092 21.9849 89.2103 21.7681C88.9174 21.5454 88.5775 21.3843 88.1908 21.2847C87.8099 21.1792 87.3851 21.1265 86.9164 21.1265C85.9379 21.1265 85.1029 21.3579 84.4115 21.8208C83.726 22.2778 83.2015 22.9165 82.8383 23.7368C82.4808 24.5571 82.3021 25.5034 82.3021 26.5757C82.3021 27.4487 82.4135 28.2485 82.6361 28.9751C82.8646 29.7017 83.184 30.3286 83.5941 30.856C84.0043 31.3833 84.4906 31.7935 85.0531 32.0864C85.6215 32.3735 86.2484 32.5171 86.934 32.5171C87.4672 32.5171 87.9476 32.4644 88.3754 32.3589C88.809 32.2534 89.1722 32.0952 89.4652 31.8843V28.6851C89.4652 28.4155 89.4301 28.2163 89.3597 28.0874C89.2953 27.9526 89.1429 27.856 88.9027 27.7974C88.6683 27.7388 88.2933 27.689 87.7777 27.6479V27.0151H92.7523V27.6479C92.2894 27.689 91.9496 27.7388 91.7328 27.7974C91.5219 27.856 91.3842 27.9526 91.3197 28.0874C91.2611 28.2163 91.2318 28.4155 91.2318 28.6851V32.2358C90.7396 32.5757 90.0892 32.8599 89.2806 33.0884C88.4779 33.311 87.6312 33.4224 86.7406 33.4224C85.8676 33.4224 85.0355 33.2729 84.2445 32.9741C83.4594 32.6753 82.7621 32.2417 82.1527 31.6733C81.5433 31.0991 81.0629 30.4048 80.7113 29.5903C80.3597 28.77 80.184 27.8413 80.184 26.8042Z" fill="#5B3120"/>
<path d="M0.545921 44.1675H99.1715C103.787 44.1675 108.214 46.0012 111.478 49.2651C114.742 52.5291 116.576 56.956 116.576 61.572C116.576 66.188 114.742 70.6149 111.478 73.8789C108.214 77.1428 103.787 78.9765 99.1715 78.9765H91.908C89.0931 89.9249 82.3792 99.4694 73.0263 105.819C63.6735 112.168 52.3249 114.886 41.1106 113.462C29.8962 112.037 19.5872 106.569 12.1185 98.0835C4.64972 89.5978 0.534748 78.6779 0.545921 67.3735V44.1675ZM93.37 67.3735H99.1715C100.71 67.3735 102.186 66.7623 103.274 65.6743C104.362 64.5863 104.973 63.1107 104.973 61.572C104.973 60.0333 104.362 58.5577 103.274 57.4697C102.186 56.3817 100.71 55.7705 99.1715 55.7705H93.37V67.3735Z" fill="#452C1C"/>
<g clip-path="url(#clip0_887_6240)">
<path d="M49.0394 62.2603L49.0205 85.0447C49.0205 85.7117 49.1338 86.2403 49.3603 86.6304C49.5869 87.0205 49.9896 87.3225 50.5685 87.5365C51.1473 87.7378 51.9842 87.9014 53.0791 88.0273V89.5186H38.2984V88.0273C39.3807 87.9014 40.2113 87.7378 40.7902 87.5365C41.3817 87.3225 41.7844 87.0205 41.9983 86.6304C42.2248 86.2403 42.3381 85.7117 42.3381 85.0447V66.9606L38.1286 68.131V66.7719C39.4499 66.0671 40.7273 65.3246 41.9606 64.5444C43.1939 63.7641 44.3265 63.0028 45.3584 62.2603H49.0394ZM54.1362 128.519H36.3541V124.215L40.3749 120.213C41.646 119.093 42.7094 118.073 43.5651 117.155C44.4209 116.236 45.1004 115.38 45.6038 114.587C46.1198 113.782 46.491 113.008 46.7176 112.266C46.9441 111.523 47.0573 110.762 47.0573 109.981C47.0573 108.522 46.6169 107.364 45.736 106.508C44.8676 105.652 43.691 105.224 42.206 105.224C40.7587 105.224 39.5443 105.571 38.5627 106.263C37.5811 106.942 36.8386 107.779 36.3352 108.773V107.225C36.8135 105.313 37.858 103.758 39.4688 102.563C41.0922 101.355 43.1372 100.751 45.6038 100.751C47.2272 100.751 48.6619 101.065 49.9078 101.694C51.1536 102.311 52.1289 103.186 52.8337 104.318C53.5384 105.438 53.8908 106.741 53.8908 108.226C53.8908 109.698 53.5447 111.083 52.8526 112.379C52.1604 113.675 51.0844 114.965 49.6246 116.249C48.1648 117.532 46.2645 118.904 43.9238 120.364L38.8081 123.743L38.7892 123.252L54.4005 123.233L54.1362 128.519ZM44.8865 168.028C43.0995 168.028 41.5327 167.72 40.1861 167.103C38.8396 166.474 37.7888 165.65 37.0337 164.63C36.2912 163.611 35.92 162.504 35.92 161.308H37.902C37.9524 162.088 38.1978 162.793 38.6382 163.422C39.0913 164.039 39.6828 164.536 40.4127 164.914C41.1426 165.291 41.9543 165.48 42.8478 165.48C43.8923 165.48 44.8236 165.247 45.6416 164.781C46.4722 164.316 47.1203 163.661 47.5859 162.818C48.0515 161.962 48.2843 160.962 48.2843 159.817C48.2843 157.929 47.6111 156.444 46.2645 155.362C44.9305 154.28 43.1058 153.757 40.7902 153.795V152.19C43.1435 151.901 44.8613 151.36 45.9436 150.567C47.0385 149.762 47.5859 148.786 47.5859 147.641C47.5859 146.622 47.1769 145.798 46.3589 145.168C45.5535 144.539 44.4397 144.224 43.0177 144.224C41.5453 144.224 40.2491 144.533 39.129 145.149C38.0216 145.766 37.1658 146.578 36.5618 147.585V146.055C36.889 144.86 37.4867 143.784 38.3551 142.828C39.236 141.871 40.3246 141.122 41.6208 140.581C42.9296 140.027 44.402 139.751 46.038 139.751C47.6237 139.751 49.0268 140.009 50.2475 140.525C51.4808 141.028 52.4436 141.752 53.1357 142.695C53.8279 143.627 54.1739 144.709 54.1739 145.942C54.1739 147.075 53.8467 148.075 53.1923 148.944C52.5505 149.812 51.6759 150.504 50.5685 151.02C49.461 151.536 48.2025 151.826 46.7931 151.888V151.568C48.4668 151.517 49.9392 151.819 51.2103 152.474C52.4813 153.128 53.4755 154.04 54.1928 155.211C54.9101 156.381 55.2688 157.709 55.2688 159.194C55.2688 160.553 54.9982 161.78 54.4571 162.875C53.916 163.957 53.1672 164.888 52.2107 165.669C51.2543 166.436 50.1469 167.021 48.8884 167.424C47.6425 167.827 46.3086 168.028 44.8865 168.028ZM38.827 158.269C39.6072 158.269 40.2679 158.539 40.8091 159.081C41.3502 159.622 41.6208 160.301 41.6208 161.119C41.6208 161.874 41.3565 162.516 40.828 163.045C40.312 163.573 39.6828 163.838 38.9403 163.838C38.1852 163.838 37.5434 163.598 37.0148 163.12C36.4988 162.629 36.2409 162.025 36.2409 161.308H35.92C35.92 160.427 36.1968 159.704 36.7505 159.137C37.3043 158.558 37.9964 158.269 38.827 158.269ZM46.6798 206.519V200.761H34.5608V197.212L47.2461 179.26H52.7204V196.212H56.6279L56.4581 200.761H52.7204V206.519H46.6798ZM46.6987 196.212V182.469H47.2461L37.4112 197.231V196.212H46.6987ZM44.3957 246.028C42.5961 246.028 41.0482 245.726 39.752 245.122C38.4683 244.518 37.4867 243.732 36.8072 242.763C36.1276 241.794 35.7878 240.768 35.7878 239.686H37.751C37.8014 240.415 38.0468 241.07 38.4872 241.649C38.9277 242.215 39.5129 242.662 40.2428 242.989C40.9727 243.316 41.797 243.48 42.7156 243.48C43.7098 243.48 44.6096 243.247 45.415 242.781C46.233 242.316 46.8812 241.655 47.3594 240.799C47.8376 239.931 48.0767 238.893 48.0767 237.685C48.0767 236.514 47.8376 235.489 47.3594 234.608C46.8812 233.727 46.2393 233.041 45.4339 232.55C44.6411 232.059 43.7476 231.814 42.7534 231.814C41.7466 231.814 40.8846 232.022 40.1673 232.437C39.4499 232.84 38.9151 233.324 38.5627 233.89L36.7317 233.871L39.5254 218.26H53.853L53.5699 223.565H40.7524L38.6194 232.588L38.4683 232.003C38.8081 231.336 39.3304 230.725 40.0351 230.172C40.7524 229.605 41.6208 229.146 42.6401 228.794C43.6721 228.441 44.8236 228.265 46.0946 228.265C47.7054 228.265 49.1841 228.605 50.5307 229.284C51.8773 229.951 52.9532 230.914 53.7587 232.173C54.5641 233.431 54.9668 234.954 54.9668 236.741C54.9668 238.641 54.4823 240.29 53.5133 241.687C52.5568 243.071 51.2732 244.141 49.6624 244.896C48.0641 245.651 46.3086 246.028 44.3957 246.028ZM38.6194 236.684C39.4122 236.684 40.0792 236.948 40.6203 237.477C41.1614 237.993 41.432 238.654 41.432 239.459C41.432 240.214 41.1677 240.856 40.6392 241.385C40.1232 241.9 39.4877 242.158 38.7326 242.158C37.9901 242.158 37.3609 241.926 36.8449 241.46C36.329 240.982 36.071 240.39 36.071 239.686H35.7878C35.7878 238.817 36.0521 238.1 36.5806 237.534C37.1218 236.967 37.8014 236.684 38.6194 236.684ZM34.7118 273.23C34.737 270.889 35.2152 268.719 36.1465 266.718C37.0903 264.704 38.4369 262.961 40.1861 261.489C41.9354 260.004 44.0433 258.871 46.5099 258.091C48.9765 257.311 51.7451 256.965 54.8158 257.053L54.8346 258.506C51.9528 258.733 49.5176 259.519 47.5293 260.866C45.5535 262.212 44.0559 264.018 43.0366 266.283C42.0172 268.549 41.5075 271.166 41.5075 274.136V276.175H41.6397C41.6397 277.522 41.797 278.711 42.1116 279.743C42.4388 280.775 42.9044 281.58 43.5085 282.159C44.1125 282.725 44.8424 283.008 45.6982 283.008C46.5288 283.008 47.2398 282.769 47.8313 282.291C48.4354 281.813 48.8947 281.127 49.2093 280.233C49.5365 279.327 49.7001 278.251 49.7001 277.006C49.7001 275.093 49.3477 273.595 48.643 272.513C47.9508 271.418 46.9944 270.871 45.7737 270.871C44.553 270.871 43.5588 271.349 42.7912 272.305C42.0235 273.249 41.6397 274.539 41.6397 276.175H41.0734C41.0734 274.401 41.388 272.865 42.0172 271.569C42.659 270.273 43.5651 269.272 44.7355 268.568C45.9058 267.85 47.2902 267.492 48.8884 267.492C50.4111 267.492 51.7388 267.825 52.8714 268.492C54.0166 269.146 54.9039 270.071 55.5331 271.267C56.1749 272.462 56.4958 273.872 56.4958 275.495C56.4958 276.968 56.2252 278.289 55.6841 279.46C55.143 280.63 54.3816 281.63 53.4 282.461C52.431 283.292 51.2921 283.927 49.9833 284.368C48.6745 284.808 47.2461 285.028 45.6982 285.028C43.5085 285.028 41.583 284.581 39.9219 283.688C38.2733 282.794 36.9896 281.473 36.071 279.724C35.1523 277.975 34.6992 275.81 34.7118 273.23ZM45.6604 323.519H38.525V323.179C39.9848 320.234 41.4635 317.472 42.961 314.892C44.4586 312.299 45.9751 309.877 47.5104 307.624C49.0457 305.359 50.6062 303.245 52.1919 301.282V301.584H36.5806L36.8638 296.26H54.0229V301.508C52.9784 303.66 51.9842 305.881 51.0404 308.172C50.1091 310.449 49.1967 312.853 48.3032 315.383C47.4097 317.912 46.5288 320.624 45.6604 323.519ZM56.0428 355.062C56.0428 356.623 55.5897 358.001 54.6836 359.196C53.7901 360.392 52.5442 361.329 50.946 362.009C49.3603 362.688 47.5293 363.028 45.4528 363.028C43.2631 363.028 41.3754 362.758 39.7897 362.217C38.2041 361.675 36.9834 360.914 36.1276 359.932C35.2718 358.938 34.844 357.774 34.844 356.44C34.844 355.257 35.1649 354.213 35.8067 353.307C36.4611 352.388 37.3924 351.639 38.6005 351.06C39.8212 350.481 41.2873 350.11 42.9988 349.947L43.9804 350.286C42.9107 350.765 42.099 351.488 41.5453 352.457C40.9916 353.426 40.7147 354.559 40.7147 355.855C40.7147 356.849 40.9098 357.736 41.2999 358.517C41.69 359.284 42.2437 359.888 42.961 360.329C43.691 360.769 44.5593 360.99 45.5661 360.99C46.963 360.99 48.0767 360.631 48.9073 359.914C49.7504 359.196 50.172 358.252 50.172 357.082C50.172 356.314 50.0084 355.622 49.6812 355.006C49.354 354.389 48.8192 353.804 48.0767 353.25C47.3468 352.696 46.3778 352.13 45.1696 351.551L42.1116 350.079C40.765 349.449 39.601 348.764 38.6194 348.021C37.6503 347.266 36.9016 346.423 36.373 345.492C35.857 344.56 35.599 343.509 35.599 342.339C35.599 340.753 36.0206 339.401 36.8638 338.281C37.707 337.148 38.8773 336.28 40.3749 335.676C41.8725 335.059 43.6092 334.751 45.5849 334.751C47.6614 334.751 49.4295 335.021 50.8894 335.562C52.3492 336.091 53.4629 336.827 54.2306 337.771C54.9982 338.702 55.3821 339.759 55.3821 340.942C55.3695 342.025 55.0486 342.949 54.4193 343.717C53.7901 344.472 52.9155 345.083 51.7954 345.548C50.6754 346.001 49.3792 346.303 47.9068 346.454L46.9063 346.058C47.7495 345.605 48.3976 344.994 48.8506 344.227C49.3037 343.459 49.5302 342.553 49.5302 341.509C49.5302 340.602 49.3666 339.797 49.0394 339.092C48.7248 338.375 48.2655 337.815 47.6614 337.412C47.0573 336.997 46.3274 336.789 45.4717 336.789C44.2258 336.789 43.2505 337.104 42.5458 337.733C41.841 338.362 41.4886 339.187 41.4886 340.206C41.4886 341.213 41.8284 342.087 42.508 342.83C43.1876 343.56 44.2384 344.265 45.6604 344.944L48.7374 346.398C50.3482 347.14 51.6948 347.927 52.777 348.757C53.8593 349.575 54.671 350.5 55.2122 351.532C55.7659 352.552 56.0428 353.728 56.0428 355.062ZM56.2315 385.549C56.2064 387.889 55.7219 390.067 54.778 392.08C53.8467 394.081 52.5065 395.824 50.7572 397.309C49.008 398.781 46.9 399.908 44.4334 400.688C41.9669 401.468 39.1982 401.814 36.1276 401.726L36.1087 400.273C38.9906 400.046 41.4194 399.26 43.3952 397.913C45.3836 396.567 46.8874 394.761 47.9068 392.495C48.9262 390.23 49.4358 387.613 49.4358 384.643V382.604H49.3037C49.3037 381.245 49.1401 380.055 48.8129 379.036C48.4983 378.004 48.0389 377.205 47.4349 376.639C46.8308 376.06 46.1009 375.77 45.2452 375.77C44.4146 375.77 43.6972 376.01 43.0932 376.488C42.5017 376.966 42.0424 377.652 41.7152 378.545C41.4006 379.439 41.2432 380.515 41.2432 381.773C41.2432 383.674 41.5893 385.171 42.2815 386.266C42.9862 387.361 43.9489 387.908 45.1696 387.908C46.3904 387.908 47.3845 387.436 48.1522 386.493C48.9199 385.536 49.3037 384.24 49.3037 382.604H49.87C49.87 384.378 49.5491 385.914 48.9073 387.21C48.278 388.506 47.3782 389.513 46.2079 390.23C45.0501 390.935 43.6658 391.287 42.055 391.287C40.5322 391.287 39.1982 390.96 38.053 390.306C36.9204 389.639 36.0332 388.707 35.3914 387.512C34.7622 386.316 34.4476 384.907 34.4476 383.283C34.4476 381.811 34.7181 380.49 35.2593 379.319C35.8004 378.149 36.5555 377.148 37.5245 376.318C38.5061 375.487 39.6513 374.852 40.9601 374.411C42.2689 373.971 43.6972 373.751 45.2452 373.751C47.4349 373.751 49.354 374.197 51.0026 375.091C52.6638 375.984 53.9537 377.306 54.8724 379.055C55.7911 380.804 56.2441 382.969 56.2315 385.549ZM36.2872 413.26L36.2683 436.045C36.2683 436.712 36.3816 437.24 36.6081 437.63C36.8347 438.021 37.2374 438.323 37.8163 438.536C38.3951 438.738 39.232 438.901 40.3269 439.027V440.519H25.5463V439.027C26.6285 438.901 27.4591 438.738 28.038 438.536C28.6295 438.323 29.0322 438.021 29.2461 437.63C29.4727 437.24 29.5859 436.712 29.5859 436.045V417.961L25.3764 419.131V417.772C26.6977 417.067 27.9751 416.325 29.2084 415.544C30.4417 414.764 31.5743 414.003 32.6062 413.26H36.2872ZM53.4858 441.028C51.8875 441.028 50.3899 440.714 48.9931 440.084C47.6087 439.443 46.3943 438.511 45.3498 437.291C44.3053 436.07 43.4873 434.591 42.8958 432.855C42.3169 431.105 42.0275 429.117 42.0275 426.889C42.0275 424.662 42.3169 422.674 42.8958 420.924C43.4873 419.162 44.3053 417.677 45.3498 416.469C46.4069 415.249 47.6465 414.324 49.0686 413.694C50.4906 413.065 52.0259 412.751 53.6745 412.751C55.2728 412.751 56.7641 413.072 58.1484 413.713C59.5453 414.343 60.766 415.268 61.8105 416.488C62.855 417.709 63.6667 419.194 64.2456 420.943C64.8371 422.68 65.1328 424.662 65.1328 426.889C65.1328 429.117 64.8371 431.112 64.2456 432.873C63.6667 434.623 62.8487 436.108 61.7916 437.328C60.7471 438.536 59.5138 439.455 58.0917 440.084C56.6697 440.714 55.1343 441.028 53.4858 441.028ZM53.6934 439.008C54.373 439.008 54.9707 438.801 55.4867 438.385C56.0027 437.958 56.4369 437.284 56.7892 436.366C57.1416 435.434 57.4059 434.22 57.5821 432.722C57.7708 431.212 57.8652 429.381 57.8652 427.229C57.8526 425.065 57.7519 423.196 57.5632 421.623C57.3744 420.05 57.0913 418.76 56.7137 417.753C56.3362 416.734 55.8768 415.985 55.3357 415.507C54.7946 415.016 54.1716 414.77 53.4669 414.77C52.7873 414.77 52.1895 414.984 51.6736 415.412C51.1576 415.828 50.7234 416.501 50.3711 417.432C50.0187 418.351 49.7481 419.565 49.5594 421.075C49.3832 422.573 49.2951 424.398 49.2951 426.55C49.2951 428.714 49.3895 430.583 49.5782 432.156C49.7796 433.729 50.069 435.025 50.4466 436.045C50.8241 437.051 51.2835 437.8 51.8246 438.291C52.3657 438.769 52.9887 439.008 53.6934 439.008Z" fill="#FBF6F4"/>
</g>
<defs>
<clipPath id="clip0_887_6240">
<rect width="63" height="38" fill="white" transform="translate(13.9717 56.5186)"/>
</clipPath>
</defs>
</svg>
